  0
SECTION
  2
HEADER
  9
$ACADVER
  1
AC1032
  9
$ACADMAINTVER
 90
        4
  9
$DWGCODEPAGE
  3
ANSI_936
  9
$REQUIREDVERSIONS
160
                 0
  9
$LASTSAVEDBY
  1
86130
  9
$INSBASE
 10
0.0
 20
0.0
 30
0.0
  9
$EXTMIN
 10
168.6017871685866
 20
128.5004887776253
 30
0.0
  9
$EXTMAX
 10
551.9579530438692
 20
220.0176815982757
 30
0.0
  9
$LIMMIN
 10
0.0
 20
0.0
  9
$LIMMAX
 10
420.0
 20
297.0
  9
$ORTHOMODE
 70
     0
  9
$REGENMODE
 70
     1
  9
$FILLMODE
 70
     1
  9
$QTEXTMODE
 70
     0
  9
$MIRRTEXT
 70
     1
  9
$LTSCALE
 40
15.0
  9
$ATTMODE
 70
     1
  9
$TEXTSIZE
 40
2.5
  9
$TRACEWID
 40
1.0
  9
$TEXTSTYLE
  7
Standard
  9
$CLAYER
  8
0
  9
$CELTYPE
  6
ByLayer
  9
$CECOLOR
 62
   256
  9
$CELTSCALE
 40
1.0
  9
$DISPSILH
 70
     0
  9
$DIMSCALE
 40
1.0
  9
$DIMASZ
 40
2.5
  9
$DIMEXO
 40
0.625
  9
$DIMDLI
 40
3.75
  9
$DIMRND
 40
0.0
  9
$DIMDLE
 40
0.0
  9
$DIMEXE
 40
1.25
  9
$DIMTP
 40
0.0
  9
$DIMTM
 40
0.0
  9
$DIMTXT
 40
2.5
  9
$DIMCEN
 40
2.5
  9
$DIMTSZ
 40
0.0
  9
$DIMTOL
 70
     0
  9
$DIMLIM
 70
     0
  9
$DIMTIH
 70
     0
  9
$DIMTOH
 70
     0
  9
$DIMSE1
 70
     0
  9
$DIMSE2
 70
     0
  9
$DIMTAD
 70
     1
  9
$DIMZIN
 70
     8
  9
$DIMBLK
  1

  9
$DIMASO
 70
     1
  9
$DIMSHO
 70
     1
  9
$DIMPOST
  1

  9
$DIMAPOST
  1

  9
$DIMALT
 70
     0
  9
$DIMALTD
 70
     3
  9
$DIMALTF
 40
0.03937007874016
  9
$DIMLFAC
 40
1.0
  9
$DIMTOFL
 70
     1
  9
$DIMTVP
 40
0.0
  9
$DIMTIX
 70
     0
  9
$DIMSOXD
 70
     0
  9
$DIMSAH
 70
     0
  9
$DIMBLK1
  1

  9
$DIMBLK2
  1

  9
$DIMSTYLE
  2
ISO-25
  9
$DIMCLRD
 70
     1
  9
$DIMCLRE
 70
     1
  9
$DIMCLRT
 70
     1
  9
$DIMTFAC
 40
1.0
  9
$DIMGAP
 40
0.625
  9
$DIMJUST
 70
     0
  9
$DIMSD1
 70
     0
  9
$DIMSD2
 70
     0
  9
$DIMTOLJ
 70
     0
  9
$DIMTZIN
 70
     8
  9
$DIMALTZ
 70
     0
  9
$DIMALTTZ
 70
     0
  9
$DIMUPT
 70
     0
  9
$DIMDEC
 70
     2
  9
$DIMTDEC
 70
     2
  9
$DIMALTU
 70
     2
  9
$DIMALTTD
 70
     3
  9
$DIMTXSTY
  7
Standard
  9
$DIMAUNIT
 70
     0
  9
$DIMADEC
 70
     0
  9
$DIMALTRND
 40
0.0
  9
$DIMAZIN
 70
     0
  9
$DIMDSEP
 70
    44
  9
$DIMATFIT
 70
     3
  9
$DIMFRAC
 70
     0
  9
$DIMLDRBLK
  1

  9
$DIMLUNIT
 70
     2
  9
$DIMLWD
 70
    -3
  9
$DIMLWE
 70
    -3
  9
$DIMTMOVE
 70
     0
  9
$DIMFXL
 40
1.0
  9
$DIMFXLON
 70
     0
  9
$DIMJOGANG
 40
0.7853981633974483
  9
$DIMTFILL
 70
     0
  9
$DIMTFILLCLR
 70
     0
  9
$DIMARCSYM
 70
     0
  9
$DIMLTYPE
  6

  9
$DIMLTEX1
  6

  9
$DIMLTEX2
  6

  9
$DIMTXTDIRECTION
 70
     0
  9
$LUNITS
 70
     2
  9
$LUPREC
 70
     4
  9
$SKETCHINC
 40
1.0
  9
$FILLETRAD
 40
10.0
  9
$AUNITS
 70
     0
  9
$AUPREC
 70
     0
  9
$MENU
  1
.
  9
$ELEVATION
 40
0.0
  9
$PELEVATION
 40
0.0
  9
$THICKNESS
 40
0.0
  9
$LIMCHECK
 70
     0
  9
$CHAMFERA
 40
10.0
  9
$CHAMFERB
 40
10.0
  9
$CHAMFERC
 40
20.0
  9
$CHAMFERD
 40
0.0
  9
$SKPOLY
 70
     0
  9
$TDCREATE
 40
2458068.667767639
  9
$TDUCREATE
 40
2458068.334434306
  9
$TDUPDATE
 40
2460418.426702025
  9
$TDUUPDATE
 40
2460418.093368692
  9
$TDINDWG
 40
0.1501159838
  9
$TDUSRTIMER
 40
0.1501159606
  9
$USRTIMER
 70
     1
  9
$ANGBASE
 50
0.0
  9
$ANGDIR
 70
     0
  9
$PDMODE
 70
     0
  9
$PDSIZE
 40
0.0
  9
$PLINEWID
 40
0.0
  9
$SPLFRAME
 70
     0
  9
$SPLINETYPE
 70
     6
  9
$SPLINESEGS
 70
     8
  9
$HANDSEED
  5
49B6
  9
$SURFTAB1
 70
     6
  9
$SURFTAB2
 70
     6
  9
$SURFTYPE
 70
     6
  9
$SURFU
 70
     6
  9
$SURFV
 70
     6
  9
$UCSBASE
  2

  9
$UCSNAME
  2

  9
$UCSORG
 10
0.0
 20
0.0
 30
0.0
  9
$UCSXDIR
 10
1.0
 20
0.0
 30
0.0
  9
$UCSYDIR
 10
0.0
 20
1.0
 30
0.0
  9
$UCSORTHOREF
  2

  9
$UCSORTHOVIEW
 70
     0
  9
$UCSORGTOP
 10
0.0
 20
0.0
 30
0.0
  9
$UCSORGBOTTOM
 10
0.0
 20
0.0
 30
0.0
  9
$UCSORGLEFT
 10
0.0
 20
0.0
 30
0.0
  9
$UCSORGRIGHT
 10
0.0
 20
0.0
 30
0.0
  9
$UCSORGFRONT
 10
0.0
 20
0.0
 30
0.0
  9
$UCSORGBACK
 10
0.0
 20
0.0
 30
0.0
  9
$PUCSBASE
  2

  9
$PUCSNAME
  2

  9
$PUCSORG
 10
0.0
 20
0.0
 30
0.0
  9
$PUCSXDIR
 10
1.0
 20
0.0
 30
0.0
  9
$PUCSYDIR
 10
0.0
 20
1.0
 30
0.0
  9
$PUCSORTHOREF
  2

  9
$PUCSORTHOVIEW
 70
     0
  9
$PUCSORGTOP
 10
0.0
 20
0.0
 30
0.0
  9
$PUCSORGBOTTOM
 10
0.0
 20
0.0
 30
0.0
  9
$PUCSORGLEFT
 10
0.0
 20
0.0
 30
0.0
  9
$PUCSORGRIGHT
 10
0.0
 20
0.0
 30
0.0
  9
$PUCSORGFRONT
 10
0.0
 20
0.0
 30
0.0
  9
$PUCSORGBACK
 10
0.0
 20
0.0
 30
0.0
  9
$USERI1
 70
     0
  9
$USERI2
 70
     0
  9
$USERI3
 70
     0
  9
$USERI4
 70
     0
  9
$USERI5
 70
     2
  9
$USERR1
 40
0.0
  9
$USERR2
 40
0.0
  9
$USERR3
 40
0.0
  9
$USERR4
 40
0.0
  9
$USERR5
 40
0.0
  9
$WORLDVIEW
 70
     1
  9
$SHADEDGE
 70
     3
  9
$SHADEDIF
 70
    70
  9
$TILEMODE
 70
     1
  9
$MAXACTVP
 70
    16
  9
$PINSBASE
 10
0.0
 20
0.0
 30
0.0
  9
$PLIMCHECK
 70
     0
  9
$PEXTMIN
 10
1.000000000000000E+20
 20
1.000000000000000E+20
 30
1.000000000000000E+20
  9
$PEXTMAX
 10
-1.000000000000000E+20
 20
-1.000000000000000E+20
 30
-1.000000000000000E+20
  9
$PLIMMIN
 10
-20.0
 20
-7.5
  9
$PLIMMAX
 10
277.0
 20
202.5
  9
$UNITMODE
 70
     0
  9
$VISRETAIN
 70
     1
  9
$PLINEGEN
 70
     0
  9
$PSLTSCALE
 70
     1
  9
$TREEDEPTH
 70
  3020
  9
$CMLSTYLE
  2
Standard
  9
$CMLJUST
 70
     0
  9
$CMLSCALE
 40
20.0
  9
$PROXYGRAPHICS
 70
     1
  9
$MEASUREMENT
 70
     1
  9
$CELWEIGHT
370
    -1
  9
$ENDCAPS
280
     0
  9
$JOINSTYLE
280
     0
  9
$LWDISPLAY
290
     1
  9
$INSUNITS
 70
     4
  9
$HYPERLINKBASE
  1

  9
$STYLESHEET
  1

  9
$XEDIT
290
     1
  9
$CEPSNTYPE
380
     0
  9
$PSTYLEMODE
290
     1
  9
$FINGERPRINTGUID
  2
{707AFEF9-EF83-425C-B180-281970873DC9}
  9
$VERSIONGUID
  2
{C3566288-392E-4DE9-A545-498C63227FA5}
  9
$EXTNAMES
290
     1
  9
$PSVPSCALE
 40
0.0
  9
$OLESTARTUP
290
     0
  9
$SORTENTS
280
   127
  9
$INDEXCTL
280
     0
  9
$HIDETEXT
280
     1
  9
$XCLIPFRAME
280
     0
  9
$HALOGAP
280
     0
  9
$OBSCOLOR
 70
   257
  9
$OBSLTYPE
280
     0
  9
$INTERSECTIONDISPLAY
280
     0
  9
$INTERSECTIONCOLOR
 70
   257
  9
$DIMASSOC
280
     2
  9
$PROJECTNAME
  1

  9
$CAMERADISPLAY
290
     0
  9
$LENSLENGTH
 40
50.0
  9
$CAMERAHEIGHT
 40
0.0
  9
$STEPSPERSEC
 40
2.0
  9
$STEPSIZE
 40
6.0
  9
$3DDWFPREC
 40
2.0
  9
$PSOLWIDTH
 40
0.25
  9
$PSOLHEIGHT
 40
4.0
  9
$LOFTANG1
 40
1.570796326794897
  9
$LOFTANG2
 40
1.570796326794897
  9
$LOFTMAG1
 40
0.0
  9
$LOFTMAG2
 40
0.0
  9
$LOFTPARAM
 70
     7
  9
$LOFTNORMALS
280
     1
  9
$LATITUDE
 40
37.795
  9
$LONGITUDE
 40
-122.394
  9
$NORTHDIRECTION
 40
0.0
  9
$TIMEZONE
 70
 -8000
  9
$LIGHTGLYPHDISPLAY
280
     1
  9
$TILEMODELIGHTSYNCH
280
     1
  9
$CMATERIAL
347
375
  9
$SOLIDHIST
280
     1
  9
$SHOWHIST
280
     1
  9
$DWFFRAME
280
     2
  9
$DGNFRAME
280
     2
  9
$REALWORLDSCALE
290
     1
  9
$INTERFERECOLOR
 62
   256
  9
$CSHADOW
280
     0
  9
$SHADOWPLANELOCATION
 40
0.0
  0
ENDSEC
  0
SECTION
  2
CLASSES
  0
CLASS
  1
ACDBDICTIONARYWDFLT
  2
AcDbDictionaryWithDefault
  3
ObjectDBX Classes
 90
        0
 91
        4
280
     0
281
     0
  0
CLASS
  1
ACDBPLACEHOLDER
  2
AcDbPlaceHolder
  3
ObjectDBX Classes
 90
        0
 91
        1
280
     0
281
     0
  0
CLASS
  1
LAYOUT
  2
AcDbLayout
  3
ObjectDBX Classes
 90
        0
 91
        1
280
     0
281
     0
  0
CLASS
  1
DICTIONARYVAR
  2
AcDbDictionaryVar
  3
ObjectDBX Classes
 90
        0
 91
        4
280
     0
281
     0
  0
CLASS
  1
TABLESTYLE
  2
AcDbTableStyle
  3
ObjectDBX Classes
 90
     4095
 91
        4
280
     0
281
     0
  0
CLASS
  1
WIPEOUTVARIABLES
  2
AcDbWipeoutVariables
  3
WipeOut|AutoCAD Express Tool|expresstools@autodesk.com
 90
        0
 91
        4
280
     0
281
     0
  0
CLASS
  1
SCALE
  2
AcDbScale
  3
ObjectDBX Classes
 90
     1153
 91
        4
280
     0
281
     0
  0
CLASS
  1
MLEADERSTYLE
  2
AcDbMLeaderStyle
  3
ACDB_MLEADERSTYLE_CLASS
 90
     4095
 91
        4
280
     0
281
     0
  0
CLASS
  1
MATERIAL
  2
AcDbMaterial
  3
ObjectDBX Classes
 90
     1153
 91
        4
280
     0
281
     0
  0
CLASS
  1
CELLSTYLEMAP
  2
AcDbCellStyleMap
  3
ObjectDBX Classes
 90
     1152
 91
        4
280
     0
281
     0
  0
CLASS
  1
SORTENTSTABLE
  2
AcDbSortentsTable
  3
ObjectDBX Classes
 90
        0
 91
        4
280
     0
281
     0
  0
CLASS
  1
VISUALSTYLE
  2
AcDbVisualStyle
  3
ObjectDBX Classes
 90
     4095
 91
        4
280
     0
281
     0
  0
ENDSEC
  0
SECTION
  2
TABLES
  0
TABLE
  2
VPORT
  5
8
330
0
100
AcDbSymbolTable
 70
     3
  0
VPORT
  5
AD
330
8
100
AcDbSymbolTableRecord
100
AcDbViewportTableRecord
  2
*Active
 70
     0
 10
0.0
 20
0.0
 11
1.0
 21
1.0
 12
431.3235785465188
 22
162.2890215191227
 13
0.0
 23
0.0
 14
10.0
 24
10.0
 15
10.0
 25
10.0
 16
0.0
 26
0.0
 36
1.0
 17
0.0
 27
0.0
 37
0.0
 40
212.4918825254886
 41
2.537313432835821
 42
50.0
 43
0.0
 44
0.0
 50
0.0
 51
0.0
 71
    16
 72
  1000
 73
     1
 74
     3
 75
     0
 76
     0
 77
     0
 78
     0
281
     0
 65
     1
110
0.0
120
0.0
130
0.0
111
1.0
121
0.0
131
0.0
112
0.0
122
1.0
132
0.0
 79
     0
146
0.0
348
499C
 60
     3
 61
     5
292
     1
282
     1
141
0.0
142
0.0
 63
   256
  0
ENDTAB
  0
TABLE
  2
LTYPE
  5
5
330
0
100
AcDbSymbolTable
 70
     1
  0
LTYPE
  5
14
330
5
100
AcDbSymbolTableRecord
100
AcDbLinetypeTableRecord
  2
ByBlock
 70
     0
  3

 72
    65
 73
     0
 40
0.0
  0
LTYPE
  5
15
330
5
100
AcDbSymbolTableRecord
100
AcDbLinetypeTableRecord
  2
ByLayer
 70
     0
  3

 72
    65
 73
     0
 40
0.0
  0
LTYPE
  5
16
330
5
100
AcDbSymbolTableRecord
100
AcDbLinetypeTableRecord
  2
Continuous
 70
     0
  3
Solid line
 72
    65
 73
     0
 40
0.0
  0
ENDTAB
  0
TABLE
  2
LAYER
  5
2
330
0
100
AcDbSymbolTable
 70
     9
  0
LAYER
  5
10
330
2
100
AcDbSymbolTableRecord
100
AcDbLayerTableRecord
  2
0
 70
     0
 62
     7
  6
Continuous
370
    -3
390
F
347
F9
348
0
  0
LAYER
  5
F6
102
{ACAD_XDICTIONARY
360
F7
102
}
330
2
100
AcDbSymbolTableRecord
100
AcDbLayerTableRecord
  2
正线
 70
     0
 62
     7
  6
Continuous
370
    30
390
F
347
F9
348
0
  0
LAYER
  5
FE
102
{ACAD_XDICTIONARY
360
FF
102
}
330
2
100
AcDbSymbolTableRecord
100
AcDbLayerTableRecord
  2
信号
 70
     0
 62
     4
  6
Continuous
370
    15
390
F
347
F9
348
0
  0
LAYER
  5
110
102
{ACAD_XDICTIONARY
360
111
102
}
330
2
100
AcDbSymbolTableRecord
100
AcDbLayerTableRecord
  2
站线
 70
     0
 62
     7
  6
Continuous
370
    15
390
F
347
F9
348
0
  0
LAYER
  5
12D
102
{ACAD_XDICTIONARY
360
12E
102
}
330
2
100
AcDbSymbolTableRecord
100
AcDbLayerTableRecord
  2
道岔
 70
     0
 62
     1
  6
Continuous
370
    15
390
F
347
F9
348
0
  0
LAYER
  5
133
102
{ACAD_XDICTIONARY
360
134
102
}
330
2
100
AcDbSymbolTableRecord
100
AcDbLayerTableRecord
  2
股道
 70
     0
 62
     3
  6
Continuous
370
    15
390
F
347
F9
348
0
  0
LAYER
  5
151
102
{ACAD_XDICTIONARY
360
152
102
}
330
2
100
AcDbSymbolTableRecord
100
AcDbLayerTableRecord
  2
里程
 70
     0
 62
     6
  6
Continuous
370
    15
390
F
347
F9
348
0
  0
LAYER
  5
191
102
{ACAD_XDICTIONARY
360
192
102
}
330
2
100
AcDbSymbolTableRecord
100
AcDbLayerTableRecord
  2
站舍
 70
     0
 62
     7
  6
Continuous
370
    15
390
F
347
F9
348
0
  0
LAYER
  5
348
102
{ACAD_XDICTIONARY
360
349
102
}
330
2
100
AcDbSymbolTableRecord
100
AcDbLayerTableRecord
  2
其它
 70
     0
 62
     7
  6
Continuous
370
    15
390
F
347
F9
348
0
  0
ENDTAB
  0
TABLE
  2
STYLE
  5
3
330
0
100
AcDbSymbolTable
 70
     2
  0
STYLE
  5
11
330
3
100
AcDbSymbolTableRecord
100
AcDbTextStyleTableRecord
  2
Standard
 70
     0
 40
0.0
 41
1.0
 50
0.0
 71
     0
 42
2.5
  3
txt
  4

  0
STYLE
  5
102
330
3
100
AcDbSymbolTableRecord
100
AcDbTextStyleTableRecord
  2
标准（黑体）
 70
     0
 40
0.0
 41
1.0
 50
0.0
 71
     0
 42
2.5
  3
simhei.ttf
  4

1001
ACAD
1000
黑体
1071
    34306
  0
ENDTAB
  0
TABLE
  2
VIEW
  5
6
330
0
100
AcDbSymbolTable
 70
     0
  0
ENDTAB
  0
TABLE
  2
UCS
  5
7
330
0
100
AcDbSymbolTable
 70
     0
  0
ENDTAB
  0
TABLE
  2
APPID
  5
9
330
0
100
AcDbSymbolTable
 70
     3
  0
APPID
  5
12
330
9
100
AcDbSymbolTableRecord
100
AcDbRegAppTableRecord
  2
ACAD
 70
     0
  0
APPID
  5
373
330
9
100
AcDbSymbolTableRecord
100
AcDbRegAppTableRecord
  2
ACAD_PSEXT
 70
     0
  0
APPID
  5
882
330
9
100
AcDbSymbolTableRecord
100
AcDbRegAppTableRecord
  2
ACAD_MLEADERVER
 70
     0
  0
ENDTAB
  0
TABLE
  2
DIMSTYLE
  5
A
330
0
100
AcDbSymbolTable
 70
     2
100
AcDbDimStyleTable
  0
DIMSTYLE
105
27
330
A
100
AcDbSymbolTableRecord
100
AcDbDimStyleTableRecord
  2
Standard
 70
     0
178
     0
340
11
  0
DIMSTYLE
105
9C
330
A
100
AcDbSymbolTableRecord
100
AcDbDimStyleTableRecord
  2
ISO-25
 70
     0
 41
2.5
 42
0.625
 43
3.75
 44
1.25
 73
     0
 74
     0
 77
     1
 78
     8
140
2.5
141
2.5
143
0.03937007874016
147
0.625
171
     3
172
     1
178
     0
271
     2
272
     2
274
     3
278
    44
283
     0
284
     8
340
11
  0
ENDTAB
  0
TABLE
  2
BLOCK_RECORD
  5
1
330
0
100
AcDbSymbolTable
 70
     1
  0
BLOCK_RECORD
  5
1F
102
{ACAD_XDICTIONARY
360
1A45
102
}
330
1
100
AcDbSymbolTableRecord
100
AcDbBlockTableRecord
  2
*Model_Space
340
22
 70
     0
280
     1
281
     0
  0
BLOCK_RECORD
  5
73
330
1
100
AcDbSymbolTableRecord
100
AcDbBlockTableRecord
  2
*Paper_Space
340
1E
 70
     0
280
     1
281
     0
  0
BLOCK_RECORD
  5
23
330
1
100
AcDbSymbolTableRecord
100
AcDbBlockTableRecord
  2
*Paper_Space0
340
26
 70
     0
280
     1
281
     0
  0
ENDTAB
  0
ENDSEC
  0
SECTION
  2
BLOCKS
  0
BLOCK
  5
20
330
1F
100
AcDbEntity
  8
0
100
AcDbBlockBegin
  2
*Model_Space
 70
     0
 10
0.0
 20
0.0
 30
0.0
  3
*Model_Space
  1

  0
ENDBLK
  5
21
330
1F
100
AcDbEntity
  8
0
100
AcDbBlockEnd
  0
BLOCK
  5
75
330
73
100
AcDbEntity
 67
     1
  8
0
100
AcDbBlockBegin
  2
*Paper_Space
 70
     0
 10
0.0
 20
0.0
 30
0.0
  3
*Paper_Space
  1

  0
ENDBLK
  5
76
330
73
100
AcDbEntity
 67
     1
  8
0
100
AcDbBlockEnd
  0
BLOCK
  5
9A
330
23
100
AcDbEntity
  8
0
100
AcDbBlockBegin
  2
*Paper_Space0
 70
     0
 10
0.0
 20
0.0
 30
0.0
  3
*Paper_Space0
  1

  0
ENDBLK
  5
9B
330
23
100
AcDbEntity
  8
0
100
AcDbBlockEnd
  0
ENDSEC
  0
SECTION
  2
ENTITIES
  0
LINE
  5
39D
330
1F
100
AcDbEntity
  8
正线
 62
     7
100
AcDbLine
 10
190.5305646903013
 20
174.8298821792723
 30
0.0
 11
308.6070336280842
 21
174.8298821792723
 31
0.0
  0
LINE
  5
39E
330
1F
100
AcDbEntity
  8
正线
 62
     7
100
AcDbLine
 10
190.5305646903013
 20
164.8298667649073
 30
0.0
 11
308.6242920251509
 21
164.8298660651507
 31
0.0
  0
LINE
  5
39F
330
1F
100
AcDbEntity
  8
信号
 62
     7
100
AcDbLine
 10
197.6321480920269
 20
176.7813570269156
 30
0.0
 11
199.1321480920269
 21
176.7813570269156
 31
0.0
  0
MTEXT
  5
3A0
330
1F
100
AcDbEntity
  8
信号
 62
     7
100
AcDbMText
 10
197.2315246506951
 20
176.7813570269156
 30
0.0
 40
2.5
 41
6.050799999999999
 46
0.0
 71
     6
 72
     5
  1
X
  7
标准（黑体）
 73
     1
 44
1.0
  0
LINE
  5
3A1
330
1F
100
AcDbEntity
  8
信号
 62
     7
100
AcDbLine
 10
197.6321480920269
 20
178.2813570269156
 30
0.0
 11
197.6321480920269
 21
175.2813570269156
 31
0.0
  0
CIRCLE
  5
3A2
330
1F
100
AcDbEntity
  8
信号
 62
     7
100
AcDbCircle
 10
211.1321480920269
 20
176.7813570269156
 30
0.0
 40
1.5
  0
CIRCLE
  5
3A3
330
1F
100
AcDbEntity
  8
信号
 62
     7
100
AcDbCircle
 10
205.1321480920251
 20
176.7813570269156
 30
0.0
 40
1.5
  0
CIRCLE
  5
3A4
330
1F
100
AcDbEntity
  8
信号
 62
     7
100
AcDbCircle
 10
200.6321480920269
 20
176.7813570269156
 30
0.0
 40
1.5
  0
CIRCLE
  5
3A5
330
1F
100
AcDbEntity
  8
信号
 62
     7
100
AcDbCircle
 10
200.6321480920269
 20
176.7813570269156
 30
0.0
 40
0.75
  0
LINE
  5
3A6
330
1F
100
AcDbEntity
  8
信号
 62
     7
100
AcDbLine
 10
202.1321480920269
 20
176.7813570269156
 30
0.0
 11
203.6321480920269
 21
176.7813570269156
 31
0.0
  0
CIRCLE
  5
3A7
330
1F
100
AcDbEntity
  8
信号
 62
     7
100
AcDbCircle
 10
208.1321480920251
 20
176.7813570269156
 30
0.0
 40
1.5
  0
LINE
  5
3A8
330
1F
100
AcDbEntity
  8
信号
 62
     7
100
AcDbLine
 10
206.7179345296536
 20
175.3671434645425
 30
0.0
 11
207.071487920246
 21
175.7206968551358
 31
0.0
  0
LINE
  5
3A9
330
1F
100
AcDbEntity
  8
信号
 62
     7
100
AcDbLine
 10
206.7179345296536
 20
178.1955705892887
 30
0.0
 11
207.071487920246
 21
177.8420171986954
 31
0.0
  0
LINE
  5
3AA
330
1F
100
AcDbEntity
  8
信号
 62
     7
100
AcDbLine
 10
209.5463616544021
 20
175.3671434645425
 30
0.0
 11
209.1928082638078
 21
175.7206968551358
 31
0.0
  0
LINE
  5
3AB
330
1F
100
AcDbEntity
  8
信号
 62
     7
100
AcDbLine
 10
209.5463616544021
 20
178.1955705892887
 30
0.0
 11
209.1928082638078
 21
177.8420171986954
 31
0.0
  0
CIRCLE
  5
3AC
330
1F
100
AcDbEntity
  8
信号
 62
     7
100
AcDbCircle
 10
214.1321480920269
 20
176.7813570269156
 30
0.0
 40
1.5
  0
LINE
  5
3AD
330
1F
100
AcDbEntity
  8
站线
 62
     7
100
AcDbLine
 10
255.4672158991107
 20
164.0313570269155
 30
0.0
 11
269.7172158991116
 21
145.0313570269156
 31
0.0
  0
CIRCLE
  5
3AE
330
1F
100
AcDbEntity
  8
信号
 62
     7
100
AcDbCircle
 10
200.6321480920269
 20
163.0600747319005
 30
0.0
 40
0.75
  0
CIRCLE
  5
3AF
330
1F
100
AcDbEntity
  8
信号
 62
     7
100
AcDbCircle
 10
200.6321480920269
 20
163.0600747319005
 30
0.0
 40
1.5
  0
LINE
  5
3B0
330
1F
100
AcDbEntity
  8
信号
 62
     7
100
AcDbLine
 10
197.6321480920269
 20
161.5600747319005
 30
0.0
 11
197.6321480920269
 21
164.5600747319005
 31
0.0
  0
LINE
  5
3B1
330
1F
100
AcDbEntity
  8
信号
 62
     7
100
AcDbLine
 10
197.6321480920269
 20
163.0600747319005
 30
0.0
 11
199.1321480920269
 21
163.0600747319005
 31
0.0
  0
CIRCLE
  5
3B2
330
1F
100
AcDbEntity
  8
信号
 62
     7
100
AcDbCircle
 10
214.1321480920269
 20
163.0600747319005
 30
0.0
 40
1.5
  0
CIRCLE
  5
3B3
330
1F
100
AcDbEntity
  8
信号
 62
     7
100
AcDbCircle
 10
208.1321480920251
 20
163.0600747319005
 30
0.0
 40
1.5
  0
CIRCLE
  5
3B4
330
1F
100
AcDbEntity
  8
信号
 62
     7
100
AcDbCircle
 10
205.1321480920251
 20
163.0600747319005
 30
0.0
 40
1.5
  0
CIRCLE
  5
3B5
330
1F
100
AcDbEntity
  8
信号
 62
     7
100
AcDbCircle
 10
211.1321480920269
 20
163.0600747319005
 30
0.0
 40
1.5
  0
LINE
  5
3B6
330
1F
100
AcDbEntity
  8
信号
 62
     7
100
AcDbLine
 10
206.7179345296536
 20
164.4742882942735
 30
0.0
 11
207.071487920246
 21
164.1207349036803
 31
0.0
  0
LINE
  5
3B7
330
1F
100
AcDbEntity
  8
信号
 62
     7
100
AcDbLine
 10
209.5463616544021
 20
164.4742882942735
 30
0.0
 11
209.1928082638078
 21
164.1207349036803
 31
0.0
  0
LINE
  5
3B8
330
1F
100
AcDbEntity
  8
信号
 62
     7
100
AcDbLine
 10
202.1321480920269
 20
163.0600747319005
 30
0.0
 11
203.6321480920269
 21
163.0600747319005
 31
0.0
  0
LINE
  5
3B9
330
1F
100
AcDbEntity
  8
信号
 62
     7
100
AcDbLine
 10
206.7179345296536
 20
161.6458611695274
 30
0.0
 11
207.071487920246
 21
161.9994145601207
 31
0.0
  0
LINE
  5
3BA
330
1F
100
AcDbEntity
  8
信号
 62
     7
100
AcDbLine
 10
209.5463616544021
 20
161.6458611695274
 30
0.0
 11
209.1928082638078
 21
161.9994145601207
 31
0.0
  0
MTEXT
  5
3BB
330
1F
100
AcDbEntity
  8
信号
 62
     7
100
AcDbMText
 10
197.2315246506951
 20
163.0600747319005
 30
0.0
 40
2.5
 41
6.050799999999999
 46
0.0
 71
     6
 72
     5
  1
XF
  7
标准（黑体）
 73
     1
 44
1.0
  0
LINE
  5
3BC
330
1F
100
AcDbEntity
  8
站线
 62
     7
100
AcDbLine
 10
261.0629231274988
 20
185.0313570269156
 30
0.0
 11
254.5071746542899
 21
176.0313570269156
 31
0.0
  0
CIRCLE
  5
3BD
330
1F
100
AcDbEntity
  8
信号
 62
     7
100
AcDbCircle
 10
225.5150399384747
 20
176.7813570269156
 30
0.0
 40
1.5
  0
CIRCLE
  5
3BE
330
1F
100
AcDbEntity
  8
信号
 62
     7
100
AcDbCircle
 10
225.5150399384747
 20
176.7813570269156
 30
0.0
 40
0.75
  0
CIRCLE
  5
3BF
330
1F
100
AcDbEntity
  8
信号
 62
     7
100
AcDbCircle
 10
222.5150399384747
 20
176.7813570269156
 30
0.0
 40
1.5
  0
MTEXT
  5
3C0
330
1F
100
AcDbEntity
  8
信号
 62
     7
100
AcDbMText
 10
220.6144164971438
 20
176.7813570269156
 30
0.0
 40
2.5
 41
7.5
 46
0.0
 71
     6
 72
     5
  1
D5
  7
标准（黑体）
 73
     1
 44
1.0
  0
LINE
  5
3C1
330
1F
100
AcDbEntity
  8
信号
 62
     7
100
AcDbLine
 10
221.1008263761005
 20
178.1955705892887
 30
0.0
 11
221.4543797666947
 21
177.8420171986955
 31
0.0
  0
LINE
  5
3C2
330
1F
100
AcDbEntity
  8
信号
 62
     7
100
AcDbLine
 10
221.4543797666947
 20
175.7206968551358
 30
0.0
 11
221.1008263761005
 21
175.3671434645425
 31
0.0
  0
LINE
  5
3C3
330
1F
100
AcDbEntity
  8
信号
 62
     7
100
AcDbLine
 10
221.0150399384747
 20
178.2813570269156
 30
0.0
 11
221.0150399384747
 21
175.2813570269156
 31
0.0
  0
CIRCLE
  5
3C4
330
1F
100
AcDbEntity
  8
信号
 62
     7
100
AcDbCircle
 10
222.5150399384747
 20
176.7813570269156
 30
0.0
 40
0.75
  0
LINE
  5
3C5
330
1F
100
AcDbEntity
  8
信号
 62
     7
100
AcDbLine
 10
223.5757001102556
 20
175.7206968551358
 30
0.0
 11
223.929253500849
 21
175.3671434645425
 31
0.0
  0
LINE
  5
3C6
330
1F
100
AcDbEntity
  8
信号
 62
     7
100
AcDbLine
 10
223.929253500849
 20
178.1955705892887
 30
0.0
 11
223.5757001102556
 21
177.8420171986955
 31
0.0
  0
MTEXT
  5
3C7
330
1F
100
AcDbEntity
  8
道岔
 62
     7
100
AcDbMText
 10
255.3284103461319
 20
162.3069879966404
 30
0.0
 40
2.5
 41
7.211599999999999
 46
0.0
 71
     6
 72
     5
  1
9
  7
标准（黑体）
 73
     1
 44
1.0
  0
MTEXT
  5
3C8
330
1F
100
AcDbEntity
  8
信号
 62
     7
100
AcDbMText
 10
270.1978995851505
 20
180.615898864818
 30
0.0
 40
2.5
 41
10.6919
 46
0.0
 71
     7
 72
     5
  1
S3
  7
标准（黑体）
 73
     1
 44
1.0
  0
MTEXT
  5
3C9
330
1F
100
AcDbEntity
  8
信号
 62
     7
100
AcDbMText
 10
267.5279782906828
 20
169.7820164159793
 30
0.0
 40
2.5
 41
10.6919
 46
0.0
 71
     7
 72
     5
  1
SⅠ
  7
标准（黑体）
 73
     1
 44
1.0
  0
MTEXT
  5
3CA
330
1F
100
AcDbEntity
  8
股道
 62
     7
100
AcDbMText
 10
301.2362467314043
 20
176.8594080361199
 30
0.0
 40
2.5
 41
16.9539
 46
0.0
 71
     5
 72
     5
  1
Ⅰ(847)
  7
标准（黑体）
 73
     1
 44
1.0
  0
LINE
  5
3CB
330
1F
100
AcDbEntity
  8
股道
 62
     7
100
AcDbLine
 10
326.5527439216977
 20
176.7679006155016
 30
0.0
 11
327.3301747681254
 21
175.0313570269156
 31
0.0
  0
MTEXT
  5
3CC
330
1F
100
AcDbEntity
  8
股道
 62
     7
100
AcDbMText
 10
325.8843595655536
 20
180.0313570269156
 30
0.0
 40
2.5
 41
4.1223
 46
0.0
 71
     5
 72
     5
  1
5.23
  7
标准（黑体）
 11
1.000000000000000E-16
 21
1.0
 31
0.0
 73
     2
 44
1.0
  0
LINE
  5
3CD
330
1F
100
AcDbEntity
  8
股道
 62
     7
100
AcDbLine
 10
327.3301747681254
 20
175.0313570269156
 30
0.0
 11
327.3301747681254
 21
185.0313570269156
 31
0.0
  0
LINE
  5
3CE
330
1F
100
AcDbEntity
  8
股道
 62
     7
100
AcDbLine
 10
327.3301747681254
 20
185.0313570269156
 30
0.0
 11
328.107605614554
 21
183.2948134383295
 31
0.0
  0
MTEXT
  5
3CF
330
1F
100
AcDbEntity
  8
股道
 62
     7
100
AcDbMText
 10
325.8843595655536
 20
170.0313570269156
 30
0.0
 40
2.5
 41
4.1223
 46
0.0
 71
     5
 72
     5
  1
5.19
  7
标准（黑体）
 11
1.000000000000000E-16
 21
1.0
 31
0.0
 73
     2
 44
1.0
  0
LINE
  5
3D0
330
1F
100
AcDbEntity
  8
股道
 62
     7
100
AcDbLine
 10
326.5527439216977
 20
166.7679006155016
 30
0.0
 11
327.3301747681254
 21
165.0313570269155
 31
0.0
  0
LINE
  5
3D1
330
1F
100
AcDbEntity
  8
股道
 62
     7
100
AcDbLine
 10
327.3301747681254
 20
165.0313570269155
 30
0.0
 11
327.3301747681254
 21
175.0313570269156
 31
0.0
  0
LINE
  5
3D2
330
1F
100
AcDbEntity
  8
股道
 62
     7
100
AcDbLine
 10
327.3301747681254
 20
175.0313570269156
 30
0.0
 11
328.107605614554
 21
173.2948134383295
 31
0.0
  0
MTEXT
  5
3D3
330
1F
100
AcDbEntity
  8
股道
 62
     7
100
AcDbMText
 10
325.8843595655536
 20
155.0313570269156
 30
0.0
 40
2.5
 41
4.1223
 46
0.0
 71
     5
 72
     5
  1
9.59
  7
标准（黑体）
 11
1.000000000000000E-16
 21
1.0
 31
0.0
 73
     2
 44
1.0
  0
LINE
  5
3D4
330
1F
100
AcDbEntity
  8
股道
 62
     7
100
AcDbLine
 10
326.5527439216977
 20
146.7679006155016
 30
0.0
 11
327.3301747681254
 21
145.0313570269156
 31
0.0
  0
LINE
  5
3D5
330
1F
100
AcDbEntity
  8
股道
 62
     7
100
AcDbLine
 10
327.3301747681254
 20
145.0313570269156
 30
0.0
 11
327.3301747681254
 21
165.0313570269155
 31
0.0
  0
LINE
  5
3D6
330
1F
100
AcDbEntity
  8
股道
 62
     7
100
AcDbLine
 10
327.3301747681254
 20
165.0313570269155
 30
0.0
 11
328.107605614554
 21
163.2948134383295
 31
0.0
  0
MTEXT
  5
3D7
330
1F
100
AcDbEntity
  8
信号
 62
     7
100
AcDbMText
 10
425.6317522082727
 20
187.0790983872443
 30
0.0
 40
2.5
 41
4.22336566018364
 46
0.0
 71
     6
 72
     5
  1
X3
  7
标准（黑体）
 73
     1
 44
1.0
  0
MTEXT
  5
3D8
330
1F
100
AcDbEntity
  8
信号
 62
     7
100
AcDbMText
 10
420.3041691231901
 20
167.4126515169322
 30
0.0
 40
2.5
 41
5.725196763828898
 46
0.0
 71
     6
 72
     5
  1
XⅡ
  7
标准（黑体）
 73
     1
 44
1.0
  0
LINE
  5
3D9
330
1F
100
AcDbEntity
  8
信号
 62
     7
100
AcDbLine
 10
418.2623571751783
 20
178.2455456329375
 30
0.0
 11
418.2623571751783
 21
175.2455456329375
 31
0.0
  0
CIRCLE
  5
3DA
330
1F
100
AcDbEntity
  8
信号
 62
     7
100
AcDbCircle
 10
421.2623571751783
 20
176.7455456329375
 30
0.0
 40
1.5
  0
LINE
  5
3DB
330
1F
100
AcDbEntity
  8
信号
 62
     7
100
AcDbLine
 10
426.2016970034001
 20
175.6848854611576
 30
0.0
 11
425.848143612805
 21
175.3313320705644
 31
0.0
  0
CIRCLE
  5
3DC
330
1F
100
AcDbEntity
  8
信号
 62
     7
100
AcDbCircle
 10
424.2623571751792
 20
176.7455456329375
 30
0.0
 40
1.5
  0
CIRCLE
  5
3DD
330
1F
100
AcDbEntity
  8
信号
 62
     7
100
AcDbCircle
 10
430.2623571751792
 20
176.7455456329375
 30
0.0
 40
1.5
  0
LINE
  5
3DE
330
1F
100
AcDbEntity
  8
信号
 62
     7
100
AcDbLine
 10
428.3230173469583
 20
175.6848854611576
 30
0.0
 11
428.6765707375498
 21
175.3313320705644
 31
0.0
  0
CIRCLE
  5
3DF
330
1F
100
AcDbEntity
  8
信号
 62
     7
100
AcDbCircle
 10
427.2623571751792
 20
176.7455456329375
 30
0.0
 40
1.5
  0
LINE
  5
3E0
330
1F
100
AcDbEntity
  8
信号
 62
     7
100
AcDbLine
 10
428.6765707375498
 20
178.1597591953106
 30
0.0
 11
428.3230173469583
 21
177.8062058047173
 31
0.0
  0
LINE
  5
3E1
330
1F
100
AcDbEntity
  8
信号
 62
     7
100
AcDbLine
 10
419.7623571751783
 20
176.7455456329375
 30
0.0
 11
418.2623571751783
 21
176.7455456329375
 31
0.0
  0
LINE
  5
3E2
330
1F
100
AcDbEntity
  8
信号
 62
     7
100
AcDbLine
 10
425.848143612805
 20
178.1597591953106
 30
0.0
 11
426.2016970034001
 21
177.8062058047173
 31
0.0
  0
CIRCLE
  5
3E3
330
1F
100
AcDbEntity
  8
信号
 62
     7
100
AcDbCircle
 10
421.2623571751783
 20
176.7455456329375
 30
0.0
 40
0.75
  0
MTEXT
  5
3E4
330
1F
100
AcDbEntity
  8
信号
 62
     7
100
AcDbMText
 10
417.9682028160696
 20
176.7455456329375
 30
0.0
 40
2.5
 41
12.4
 46
0.0
 71
     6
 72
     5
  1
XⅠ
  7
标准（黑体）
 73
     1
 44
1.0
  0
MTEXT
  5
3E9
330
1F
100
AcDbEntity
  8
信号
 62
     7
100
AcDbMText
 10
245.3125311977119
 20
166.7813570269156
 30
0.0
 40
2.5
 41
7.5
 46
0.0
 71
     6
 72
     5
  1
D7
  7
标准（黑体）
 73
     1
 44
1.0
  0
CIRCLE
  5
3EA
330
1F
100
AcDbEntity
  8
信号
 62
     7
100
AcDbCircle
 10
250.2131546390392
 20
166.7813570269156
 30
0.0
 40
0.75
  0
CIRCLE
  5
3EB
330
1F
100
AcDbEntity
  8
信号
 62
     7
100
AcDbCircle
 10
250.2131546390392
 20
166.7813570269156
 30
0.0
 40
1.5
  0
LINE
  5
3EC
330
1F
100
AcDbEntity
  8
信号
 62
     7
100
AcDbLine
 10
248.6273682014134
 20
168.1955705892887
 30
0.0
 11
248.273814810821
 21
167.8420171986954
 31
0.0
  0
LINE
  5
3ED
330
1F
100
AcDbEntity
  8
信号
 62
     7
100
AcDbLine
 10
245.7131546390392
 20
168.2813570269156
 30
0.0
 11
245.7131546390392
 21
165.2813570269156
 31
0.0
  0
LINE
  5
3EE
330
1F
100
AcDbEntity
  8
信号
 62
     7
100
AcDbLine
 10
245.7989410766677
 20
168.1955705892887
 30
0.0
 11
246.1524944672583
 21
167.8420171986954
 31
0.0
  0
CIRCLE
  5
3EF
330
1F
100
AcDbEntity
  8
信号
 62
     7
100
AcDbCircle
 10
247.2131546390392
 20
166.7813570269156
 30
0.0
 40
1.5
  0
CIRCLE
  5
3F0
330
1F
100
AcDbEntity
  8
信号
 62
     7
100
AcDbCircle
 10
247.2131546390392
 20
166.7813570269156
 30
0.0
 40
0.75
  0
LINE
  5
3F1
330
1F
100
AcDbEntity
  8
信号
 62
     7
100
AcDbLine
 10
246.1524944672583
 20
165.7206968551358
 30
0.0
 11
245.7989410766677
 21
165.3671434645425
 31
0.0
  0
LINE
  5
3F2
330
1F
100
AcDbEntity
  8
信号
 62
     7
100
AcDbLine
 10
248.273814810821
 20
165.7206968551358
 30
0.0
 11
248.6273682014134
 21
165.3671434645425
 31
0.0
  0
MTEXT
  5
3F3
330
1F
100
AcDbEntity
  8
股道
 62
     7
100
AcDbMText
 10
301.2362467314043
 20
166.85940803612
 30
0.0
 40
2.5
 41
16.9539
 46
0.0
 71
     5
 72
     5
  1
Ⅱ(969)
  7
标准（黑体）
 73
     1
 44
1.0
  0
MTEXT
  5
3F4
330
1F
100
AcDbEntity
  8
股道
 62
     7
100
AcDbMText
 10
301.5122480192932
 20
146.4958387539475
 30
0.0
 40
2.5
 41
16.9539
 46
0.0
 71
     5
 72
     5
  1
4(849)
  7
标准（黑体）
 73
     1
 44
1.0
  0
LINE
  5
3F5
330
1F
100
AcDbEntity
  8
站线
 62
     7
100
AcDbLine
 10
429.9946248912451
 20
163.2319370439392
 30
0.0
 11
416.2950858443555
 21
145.0313570269156
 31
0.0
  0
MTEXT
  5
3F7
330
1F
100
AcDbEntity
  8
道岔
 62
     7
100
AcDbMText
 10
432.0701647972319
 20
161.4066318607877
 30
0.0
 40
2.5
 41
7.211599999999999
 46
0.0
 71
     5
 72
     5
  1
18
  7
标准（黑体）
 73
     1
 44
1.0
  0
MTEXT
  5
3F8
330
1F
100
AcDbEntity
  8
信号
 62
     7
100
AcDbMText
 10
440.4053449557241
 20
162.6986862012963
 30
0.0
 40
2.5
 41
7.5
 46
0.0
 71
     4
 72
     5
  1
D20
  7
标准（黑体）
 73
     1
 44
1.0
  0
CIRCLE
  5
3F9
330
1F
100
AcDbEntity
  8
信号
 62
     7
100
AcDbCircle
 10
435.657716284406
 20
162.7240783829749
 30
0.0
 40
1.5
  0
CIRCLE
  5
3FA
330
1F
100
AcDbEntity
  8
信号
 62
     7
100
AcDbCircle
 10
435.657716284406
 20
162.7240783829749
 30
0.0
 40
0.75
  0
LINE
  5
3FB
330
1F
100
AcDbEntity
  8
信号
 62
     7
100
AcDbLine
 10
439.7183764561842
 20
163.7847385547547
 30
0.0
 11
440.0719298467784
 21
164.138291945348
 31
0.0
  0
LINE
  5
3FC
330
1F
100
AcDbEntity
  8
信号
 62
     7
100
AcDbLine
 10
440.157716284406
 20
161.2240783829749
 30
0.0
 11
440.157716284406
 21
164.2240783829749
 31
0.0
  0
LINE
  5
3FD
330
1F
100
AcDbEntity
  8
信号
 62
     7
100
AcDbLine
 10
437.5970561126242
 20
163.7847385547547
 30
0.0
 11
437.2435027220326
 21
164.138291945348
 31
0.0
  0
CIRCLE
  5
3FE
330
1F
100
AcDbEntity
  8
信号
 62
     7
100
AcDbCircle
 10
438.657716284406
 20
162.7240783829749
 30
0.0
 40
1.5
  0
CIRCLE
  5
3FF
330
1F
100
AcDbEntity
  8
信号
 62
     7
100
AcDbCircle
 10
438.657716284406
 20
162.7240783829749
 30
0.0
 40
0.75
  0
LINE
  5
400
330
1F
100
AcDbEntity
  8
信号
 62
     7
100
AcDbLine
 10
437.2435027220326
 20
161.3098648206019
 30
0.0
 11
437.5970561126242
 21
161.6634182111951
 31
0.0
  0
LINE
  5
401
330
1F
100
AcDbEntity
  8
信号
 62
     7
100
AcDbLine
 10
440.0719298467784
 20
161.3098648206019
 30
0.0
 11
439.7183764561842
 21
161.6634182111951
 31
0.0
  0
CIRCLE
  5
402
330
1F
100
AcDbEntity
  8
信号
 62
     7
100
AcDbCircle
 10
484.0150884589357
 20
162.8205000490255
 30
0.0
 40
1.5
  0
MTEXT
  5
403
330
1F
100
AcDbEntity
  8
道岔
 62
     3
100
AcDbMText
 10
458.6091757434651
 20
177.5287959400848
 30
0.0
 40
2.5
 41
7.211599999999999
 46
0.0
 71
     4
 72
     5
  1
10
  7
标准（黑体）
 73
     1
 44
1.0
  0
MTEXT
  5
404
330
1F
100
AcDbEntity
  8
信号
 62
     7
100
AcDbMText
 10
488.7627171302547
 20
162.7951078673469
 30
0.0
 40
2.5
 41
7.5
 46
0.0
 71
     4
 72
     5
  1
D6
  7
标准（黑体）
 73
     1
 44
1.0
  0
CIRCLE
  5
405
330
1F
100
AcDbEntity
  8
信号
 62
     7
100
AcDbCircle
 10
484.0150884589357
 20
162.8205000490255
 30
0.0
 40
0.75
  0
CIRCLE
  5
406
330
1F
100
AcDbEntity
  8
信号
 62
     7
100
AcDbCircle
 10
487.0150884589357
 20
162.8205000490255
 30
0.0
 40
0.75
  0
CIRCLE
  5
407
330
1F
100
AcDbEntity
  8
信号
 62
     7
100
AcDbCircle
 10
487.0150884589357
 20
162.8205000490255
 30
0.0
 40
1.5
  0
LINE
  5
408
330
1F
100
AcDbEntity
  8
信号
 62
     7
100
AcDbLine
 10
488.5150884589357
 20
161.3205000490255
 30
0.0
 11
488.5150884589357
 21
164.3205000490255
 31
0.0
  0
LINE
  5
409
330
1F
100
AcDbEntity
  8
信号
 62
     7
100
AcDbLine
 10
485.6008748965623
 20
161.4062864866524
 30
0.0
 11
485.9544282871584
 21
161.7598398772457
 31
0.0
  0
LINE
  5
40A
330
1F
100
AcDbEntity
  8
信号
 62
     7
100
AcDbLine
 10
488.429302021309
 20
161.4062864866524
 30
0.0
 11
488.0757486307148
 21
161.7598398772457
 31
0.0
  0
LINE
  5
40B
330
1F
100
AcDbEntity
  8
信号
 62
     7
100
AcDbLine
 10
485.9544282871584
 20
163.8811602208053
 30
0.0
 11
485.6008748965623
 21
164.2347136113986
 31
0.0
  0
LINE
  5
40C
330
1F
100
AcDbEntity
  8
信号
 62
     7
100
AcDbLine
 10
488.0757486307148
 20
163.8811602208053
 30
0.0
 11
488.429302021309
 21
164.2347136113986
 31
0.0
  0
LINE
  5
40E
330
1F
100
AcDbEntity
  8
信号
 62
     7
100
AcDbLine
 10
524.6608594106465
 20
163.0675599831108
 30
0.0
 11
523.1608594106465
 21
163.0675599831108
 31
0.0
  0
CIRCLE
  5
410
330
1F
100
AcDbEntity
  8
信号
 62
     7
100
AcDbCircle
 10
508.1608594106465
 20
163.0675599831108
 30
0.0
 40
1.5
  0
CIRCLE
  5
411
330
1F
100
AcDbEntity
  8
信号
 62
     7
100
AcDbCircle
 10
517.1608594106465
 20
163.0675599831108
 30
0.0
 40
1.5
  0
CIRCLE
  5
412
330
1F
100
AcDbEntity
  8
信号
 62
     7
100
AcDbCircle
 10
511.1608594106465
 20
163.0675599831108
 30
0.0
 40
1.5
  0
LINE
  5
413
330
1F
100
AcDbEntity
  8
信号
 62
     7
100
AcDbLine
 10
515.2215195824256
 20
164.1282201548907
 30
0.0
 11
515.5750729730216
 21
164.4817735454839
 31
0.0
  0
LINE
  5
414
330
1F
100
AcDbEntity
  8
信号
 62
     7
100
AcDbLine
 10
513.1001992388656
 20
164.1282201548907
 30
0.0
 11
512.7466458482731
 21
164.4817735454839
 31
0.0
  0
CIRCLE
  5
415
330
1F
100
AcDbEntity
  8
信号
 62
     7
100
AcDbCircle
 10
514.1608594106465
 20
163.0675599831108
 30
0.0
 40
1.5
  0
LINE
  5
416
330
1F
100
AcDbEntity
  8
信号
 62
     7
100
AcDbLine
 10
512.7466458482731
 20
161.6533464207377
 30
0.0
 11
513.1001992388656
 21
162.006899811331
 31
0.0
  0
LINE
  5
417
330
1F
100
AcDbEntity
  8
信号
 62
     7
100
AcDbLine
 10
515.5750729730216
 20
161.6533464207377
 30
0.0
 11
515.2215195824256
 21
162.006899811331
 31
0.0
  0
LINE
  5
418
330
1F
100
AcDbEntity
  8
信号
 62
     7
100
AcDbLine
 10
520.1608594106465
 20
163.0675599831108
 30
0.0
 11
518.6608594106465
 21
163.0675599831108
 31
0.0
  0
CIRCLE
  5
419
330
1F
100
AcDbEntity
  8
信号
 62
     7
100
AcDbCircle
 10
521.6608594106465
 20
163.0675599831108
 30
0.0
 40
1.5
  0
CIRCLE
  5
41A
330
1F
100
AcDbEntity
  8
信号
 62
     7
100
AcDbCircle
 10
521.6608594106465
 20
163.0675599831108
 30
0.0
 40
0.75
  0
MTEXT
  5
41B
330
1F
100
AcDbEntity
  8
信号
 62
     7
100
AcDbMText
 10
525.2964376938535
 20
163.0675599831108
 30
0.0
 40
2.5
 41
6.050799999999999
 46
0.0
 71
     4
 72
     5
  1
S
  7
标准（黑体）
 73
     1
 44
1.0
  0
LINE
  5
41C
330
1F
100
AcDbEntity
  8
信号
 62
     7
100
AcDbLine
 10
524.6608594106465
 20
161.5675599831108
 30
0.0
 11
524.6608594106465
 21
164.5675599831108
 31
0.0
  0
MTEXT
  5
41D
330
1F
100
AcDbEntity
  8
信号
 62
     7
100
AcDbMText
 10
525.2964376938535
 20
176.7813570269156
 30
0.0
 40
2.5
 41
6.050799999999999
 46
0.0
 71
     4
 72
     5
  1
SF
  7
标准（黑体）
 73
     1
 44
1.0
  0
MTEXT
  5
43A
330
1F
100
AcDbEntity
  8
里程
 62
     7
100
AcDbMText
 10
302.9678848213734
 20
215.9895917106353
 30
0.0
 40
6.0
 41
30.9921
 46
0.0
 71
     5
 72
     5
  1
栖凤渡
  7
标准（黑体）
 73
     1
 44
1.0
  0
MTEXT
  5
43C
330
1F
100
AcDbEntity
  8
信号
 62
     7
100
AcDbMText
 10
243.9209025318178
 20
177.3272248305683
 30
0.0
 40
2.5
 41
7.5
 46
0.0
 71
     6
 72
     5
  1
D9
  7
标准（黑体）
 73
     1
 44
1.0
  0
LINE
  5
43D
330
1F
100
AcDbEntity
  8
信号
 62
     7
100
AcDbLine
 10
247.2357395355202
 20
178.7414383929414
 30
0.0
 11
246.8821861449296
 21
178.3878850023481
 31
0.0
  0
LINE
  5
43E
330
1F
100
AcDbEntity
  8
信号
 62
     7
100
AcDbLine
 10
246.8821861449296
 20
176.2665646587885
 30
0.0
 11
247.2357395355202
 21
175.9130112681952
 31
0.0
  0
CIRCLE
  5
43F
330
1F
100
AcDbEntity
  8
信号
 62
     7
100
AcDbCircle
 10
245.8215259731487
 20
177.3272248305683
 30
0.0
 40
1.5
  0
CIRCLE
  5
440
330
1F
100
AcDbEntity
  8
信号
 62
     7
100
AcDbCircle
 10
245.8215259731487
 20
177.3272248305683
 30
0.0
 40
0.75
  0
LINE
  5
441
330
1F
100
AcDbEntity
  8
信号
 62
     7
100
AcDbLine
 10
244.3215259731487
 20
178.8272248305683
 30
0.0
 11
244.3215259731487
 21
175.8272248305683
 31
0.0
  0
LINE
  5
442
330
1F
100
AcDbEntity
  8
信号
 62
     7
100
AcDbLine
 10
244.7608658013687
 20
176.2665646587885
 30
0.0
 11
244.4073124107763
 21
175.9130112681952
 31
0.0
  0
LINE
  5
443
330
1F
100
AcDbEntity
  8
信号
 62
     7
100
AcDbLine
 10
244.4073124107763
 20
178.7414383929414
 30
0.0
 11
244.7608658013687
 21
178.3878850023481
 31
0.0
  0
CIRCLE
  5
444
330
1F
100
AcDbEntity
  8
信号
 62
     7
100
AcDbCircle
 10
248.8215259731487
 20
177.3272248305683
 30
0.0
 40
0.75
  0
CIRCLE
  5
445
330
1F
100
AcDbEntity
  8
信号
 62
     7
100
AcDbCircle
 10
248.8215259731487
 20
177.3272248305683
 30
0.0
 40
1.5
  0
MTEXT
  5
446
330
1F
100
AcDbEntity
  8
道岔
 62
     7
100
AcDbMText
 10
253.3878969556936
 20
178.6438538181184
 30
0.0
 40
2.5
 41
7.211599999999999
 46
0.0
 71
     5
 72
     5
  1
13
  7
标准（黑体）
 73
     1
 44
1.0
  0
LINE
  5
447
330
1F
100
AcDbEntity
  8
站线
 62
     7
100
AcDbLine
 10
254.5071746542899
 20
176.0313570269156
 30
0.0
 11
251.5071746542899
 21
176.0313570269156
 31
0.0
  0
LINE
  5
44A
330
1F
100
AcDbEntity
  8
站线
 62
     7
100
AcDbLine
 10
255.4672158991107
 20
164.0313570269155
 30
0.0
 11
252.4672158991107
 21
164.0313570269155
 31
0.0
  0
LINE
  5
44D
330
1F
100
AcDbEntity
  8
站线
 62
     3
370
    40
100
AcDbLine
 10
445.2267717080948
 20
193.7702646004421
 30
0.0
 11
458.2320585239702
 21
176.4298821792723
 31
0.0
  0
MTEXT
  5
44E
330
1F
100
AcDbEntity
  8
道岔
 62
     7
100
AcDbMText
 10
229.3058198938188
 20
172.419351069147
 30
0.0
 40
2.5
 41
7.211599999999999
 46
0.0
 71
     6
 72
     5
  1
5
  7
标准（黑体）
 73
     1
 44
1.0
  0
LINE
  5
44F
330
1F
100
AcDbEntity
  8
站线
 62
     7
100
AcDbLine
 10
229.3415759374193
 20
174.0313570269156
 30
0.0
 11
226.3415759374211
 21
174.0313570269156
 31
0.0
  0
LINE
  5
450
330
1F
100
AcDbEntity
  8
站线
 62
     7
100
AcDbLine
 10
229.3415759374193
 20
174.0313570269156
 30
0.0
 11
235.3415759374193
 21
166.0313570269156
 31
0.0
  0
LINE
  5
451
330
1F
100
AcDbEntity
  8
站线
 62
     7
100
AcDbLine
 10
238.3415759374193
 20
166.0313570269156
 30
0.0
 11
235.3415759374193
 21
166.0313570269156
 31
0.0
  0
MTEXT
  5
452
330
1F
100
AcDbEntity
  8
道岔
 62
     7
100
AcDbMText
 10
236.9620150592436
 20
162.9657564187921
 30
0.0
 40
2.5
 41
7.211599999999999
 46
0.0
 71
     5
 72
     5
  1
7
  7
标准（黑体）
 73
     1
 44
1.0
  0
LINE
  5
453
330
1F
100
AcDbEntity
  8
站线
 62
     7
100
AcDbLine
 10
261.0629231274988
 20
185.0313570269156
 30
0.0
 11
298.8709944053999
 21
185.0313570269157
 31
0.0
  0
LINE
  5
454
330
1F
100
AcDbEntity
  8
站线
 62
     7
100
AcDbLine
 10
298.8709944053999
 20
185.0313570269157
 30
0.0
 11
308.6808242007829
 21
185.0313570269157
 31
0.0
  0
MTEXT
  5
455
330
1F
100
AcDbEntity
  8
信号
 62
     7
100
AcDbMText
 10
278.8723365624255
 20
140.2823457351301
 30
0.0
 40
2.5
 41
10.6919
 46
0.0
 71
     7
 72
     5
  1
S4
  7
标准（黑体）
 73
     1
 44
1.0
  0
CIRCLE
  5
456
330
1F
100
AcDbEntity
  8
信号
 62
     7
100
AcDbCircle
 10
419.0123571751783
 20
175.9955456329375
 30
0.0
 40
0.75
  0
MTEXT
  5
457
330
1F
100
AcDbEntity
  8
股道
 62
     7
100
AcDbMText
 10
300.9604667780614
 20
186.6064483325016
 30
0.0
 40
2.5
 41
16.9539
 46
0.0
 71
     5
 72
     5
  1
3(852)
  7
标准（黑体）
 73
     1
 44
1.0
  0
CIRCLE
  5
458
330
1F
100
AcDbEntity
  8
信号
 62
     7
100
AcDbCircle
 10
271.1713426288397
 20
163.8100747319005
 30
0.0
 40
0.75
  0
LINE
  5
459
330
1F
100
AcDbEntity
  8
信号
 62
     7
100
AcDbLine
 10
270.4213426288397
 20
163.0600747319005
 30
0.0
 11
271.9213426288397
 21
163.0600747319005
 31
0.0
  0
LINE
  5
45A
330
1F
100
AcDbEntity
  8
信号
 62
     7
100
AcDbLine
 10
261.5071290664655
 20
161.6458611695274
 30
0.0
 11
261.8606824570597
 21
161.9994145601207
 31
0.0
  0
LINE
  5
45B
330
1F
100
AcDbEntity
  8
信号
 62
     7
100
AcDbLine
 10
261.8606824570597
 20
164.1207349036803
 30
0.0
 11
261.5071290664655
 21
164.4742882942735
 31
0.0
  0
CIRCLE
  5
45C
330
1F
100
AcDbEntity
  8
信号
 62
     7
100
AcDbCircle
 10
262.9213426288379
 20
163.0600747319005
 30
0.0
 40
1.5
  0
CIRCLE
  5
45D
330
1F
100
AcDbEntity
  8
信号
 62
     7
100
AcDbCircle
 10
259.9213426288379
 20
163.0600747319005
 30
0.0
 40
1.5
  0
CIRCLE
  5
45E
330
1F
100
AcDbEntity
  8
信号
 62
     7
100
AcDbCircle
 10
265.9213426288379
 20
163.0600747319005
 30
0.0
 40
1.5
  0
LINE
  5
45F
330
1F
100
AcDbEntity
  8
信号
 62
     7
100
AcDbLine
 10
264.3355561912122
 20
161.6458611695274
 30
0.0
 11
263.9820028006179
 21
161.9994145601207
 31
0.0
  0
LINE
  5
460
330
1F
100
AcDbEntity
  8
信号
 62
     7
100
AcDbLine
 10
263.9820028006179
 20
164.1207349036803
 30
0.0
 11
264.3355561912122
 21
164.4742882942735
 31
0.0
  0
CIRCLE
  5
461
330
1F
100
AcDbEntity
  8
信号
 62
     7
100
AcDbCircle
 10
268.9213426288397
 20
163.0600747319005
 30
0.0
 40
0.75
  0
CIRCLE
  5
462
330
1F
100
AcDbEntity
  8
信号
 62
     7
100
AcDbCircle
 10
268.9213426288397
 20
163.0600747319005
 30
0.0
 40
1.5
  0
MTEXT
  5
463
330
1F
100
AcDbEntity
  8
信号
 62
     7
100
AcDbMText
 10
272.1053028993474
 20
161.5600747319005
 30
0.0
 40
2.5
 41
10.6919
 46
0.0
 71
     7
 72
     5
  1
SⅡ
  7
标准（黑体）
 73
     1
 44
1.0
  0
LINE
  5
464
330
1F
100
AcDbEntity
  8
信号
 62
     7
100
AcDbLine
 10
271.9213426288397
 20
161.5600747319005
 30
0.0
 11
271.9213426288397
 21
164.5600747319005
 31
0.0
  0
LINE
  5
465
330
1F
100
AcDbEntity
  8
站线
 62
     7
100
AcDbLine
 10
269.7172158991116
 20
145.0313570269156
 30
0.0
 11
301.8709037226005
 21
145.0313570269156
 31
0.0
  0
LINE
  5
466
330
1F
100
AcDbEntity
  8
站线
 62
     7
100
AcDbLine
 10
301.8709037226005
 20
145.0313570269156
 30
0.0
 11
308.6029150436402
 21
145.0313570269156
 31
0.0
  0
MTEXT
  5
468
330
1F
100
AcDbEntity
  8
道岔
 62
     7
100
AcDbMText
 10
445.0487056439488
 20
167.6590426100876
 30
0.0
 40
2.5
 41
7.211599999999999
 46
0.0
 71
     6
 72
     5
  1
16
  7
标准（黑体）
 73
     1
 44
1.0
  0
LINE
  5
469
330
1F
100
AcDbEntity
  8
站线
 62
     7
100
AcDbLine
 10
445.4699441270825
 20
166.4277935405809
 30
0.0
 11
450.591421592276
 21
173.2319538916384
 31
0.0
  0
MTEXT
  5
46B
330
1F
100
AcDbEntity
  8
道岔
 62
     7
100
AcDbMText
 10
453.5003068651014
 20
172.9284314479924
 30
0.0
 40
2.5
 41
7.211599999999999
 46
0.0
 71
     5
 72
     5
  1
14
  7
标准（黑体）
 73
     1
 44
1.0
  0
MTEXT
  5
46C
330
1F
100
AcDbEntity
  8
信号
 62
     7
100
AcDbMText
 10
407.4067816345841
 20
147.5922355891901
 30
0.0
 40
2.5
 41
5.057716740617275
 46
0.0
 71
     6
 72
     5
  1
X4
  7
标准（黑体）
 73
     1
 44
1.0
  0
LINE
  5
477
330
1F
100
AcDbEntity
  8
站线
 62
     7
100
AcDbLine
 10
260.9675089759285
 20
155.0313570269156
 30
0.0
 11
262.7675089759268
 21
152.6313570269156
 31
0.0
  0
MTEXT
  5
478
330
1F
100
AcDbEntity
  8
道岔
 62
     7
100
AcDbMText
 10
262.3653138806585
 20
151.2072515609518
 30
0.0
 40
2.5
 41
7.211599999999999
 46
0.0
 71
     6
 72
     5
  1
11
  7
标准（黑体）
 73
     1
 44
1.0
  0
LINE
  5
479
330
1F
100
AcDbEntity
  8
站线
 62
     7
100
AcDbLine
 10
445.8573179213316
 20
195.0313570269156
 30
0.0
 11
495.2601141075766
 21
195.0313570269154
 31
0.0
  0
LINE
  5
47A
330
1F
100
AcDbEntity
  8
站线
 62
     3
370
    40
100
AcDbLine
 10
414.9129313260764
 20
195.0313570269157
 30
0.0
 11
408.4762304746419
 21
186.194790477779
 31
0.0
  0
MTEXT
  5
47C
330
1F
100
AcDbEntity
  8
道岔
 62
     3
100
AcDbMText
 10
408.2913822867868
 20
187.8188867957514
 30
0.0
 40
2.5
 41
7.211599999999999
 46
0.0
 71
     6
 72
     5
  1
26
  7
标准（黑体）
 73
     1
 44
1.0
  0
CIRCLE
  5
47D
330
1F
100
AcDbEntity
  8
信号
 62
     7
100
AcDbCircle
 10
416.1805526654052
 20
193.2813570269157
 30
0.0
 40
1.5
  0
CIRCLE
  5
47E
330
1F
100
AcDbEntity
  8
信号
 62
     7
100
AcDbCircle
 10
416.1805526654052
 20
193.2813570269157
 30
0.0
 40
0.75
  0
MTEXT
  5
47F
330
1F
100
AcDbEntity
  8
信号
 62
     7
100
AcDbMText
 10
420.8745558008623
 20
192.9468743285153
 30
0.0
 40
2.5
 41
7.5
 46
0.0
 71
     4
 72
     5
  1
D28
  7
标准（黑体）
 73
     1
 44
1.0
  0
LINE
  5
480
330
1F
100
AcDbEntity
  8
信号
 62
     7
100
AcDbLine
 10
420.2412128371825
 20
194.3420171986956
 30
0.0
 11
420.5947662277795
 21
194.6955705892888
 31
0.0
  0
LINE
  5
481
330
1F
100
AcDbEntity
  8
信号
 62
     7
100
AcDbLine
 10
420.6805526654052
 20
191.7813570269157
 30
0.0
 11
420.6805526654052
 21
194.7813570269157
 31
0.0
  0
CIRCLE
  5
482
330
1F
100
AcDbEntity
  8
信号
 62
     7
100
AcDbCircle
 10
419.1805526654052
 20
193.2813570269157
 30
0.0
 40
1.5
  0
CIRCLE
  5
483
330
1F
100
AcDbEntity
  8
信号
 62
     7
100
AcDbCircle
 10
419.1805526654052
 20
193.2813570269157
 30
0.0
 40
0.75
  0
LINE
  5
484
330
1F
100
AcDbEntity
  8
信号
 62
     7
100
AcDbLine
 10
420.5947662277795
 20
191.8671434645427
 30
0.0
 11
420.2412128371825
 21
192.220696855136
 31
0.0
  0
LINE
  5
485
330
1F
100
AcDbEntity
  8
信号
 62
     7
100
AcDbLine
 10
418.1198924936252
 20
194.3420171986956
 30
0.0
 11
417.7663391030319
 21
194.6955705892888
 31
0.0
  0
LINE
  5
486
330
1F
100
AcDbEntity
  8
信号
 62
     7
100
AcDbLine
 10
417.7663391030319
 20
191.8671434645427
 30
0.0
 11
418.1198924936252
 21
192.220696855136
 31
0.0
  0
MTEXT
  5
487
330
1F
100
AcDbEntity
  8
信号
 62
     3
100
AcDbMText
 10
438.7366961652824
 20
196.7813570269157
 30
0.0
 40
2.5
 41
7.5
 46
0.0
 71
     6
 72
     5
  1
D18
  7
标准（黑体）
 73
     1
 44
1.0
  0
CIRCLE
  5
488
330
1F
100
AcDbEntity
  8
信号
 62
     7
100
AcDbCircle
 10
440.6373196066124
 20
196.7813570269157
 30
0.0
 40
1.5
  0
LINE
  5
489
330
1F
100
AcDbEntity
  8
信号
 62
     7
100
AcDbLine
 10
439.1373196066124
 20
198.2813570269157
 30
0.0
 11
439.1373196066124
 21
195.2813570269157
 31
0.0
  0
CIRCLE
  5
48A
102
{ACAD_REACTORS
330
1E50
102
}
330
1F
100
AcDbEntity
  8
信号
 62
     7
100
AcDbCircle
 10
443.6373196066124
 20
196.7813570269157
 30
0.0
 40
1.5
  0
LINE
  5
48B
330
1F
100
AcDbEntity
  8
信号
 62
     7
100
AcDbLine
 10
439.5766594348315
 20
195.7206968551359
 30
0.0
 11
439.2231060442382
 21
195.3671434645426
 31
0.0
  0
LINE
  5
48C
330
1F
100
AcDbEntity
  8
信号
 62
     7
100
AcDbLine
 10
441.6979797783933
 20
195.7206968551359
 30
0.0
 11
442.0515331689858
 21
195.3671434645426
 31
0.0
  0
LINE
  5
48D
330
1F
100
AcDbEntity
  8
信号
 62
     7
100
AcDbLine
 10
439.2231060442382
 20
198.1955705892888
 30
0.0
 11
439.5766594348315
 21
197.8420171986956
 31
0.0
  0
CIRCLE
  5
48E
330
1F
100
AcDbEntity
  8
信号
 62
     7
100
AcDbCircle
 10
440.6373196066124
 20
196.7813570269157
 30
0.0
 40
0.75
  0
CIRCLE
  5
48F
102
{ACAD_REACTORS
330
1E50
102
}
330
1F
100
AcDbEntity
  8
信号
 62
     7
100
AcDbCircle
 10
443.6373196066124
 20
196.7813570269157
 30
0.0
 40
0.75
  0
LINE
  5
490
330
1F
100
AcDbEntity
  8
信号
 62
     7
100
AcDbLine
 10
442.0515331689858
 20
198.1955705892888
 30
0.0
 11
441.6979797783933
 21
197.8420171986956
 31
0.0
  0
MTEXT
  5
491
330
1F
100
AcDbEntity
  8
信号
 62
     3
100
AcDbMText
 10
398.2843762430184
 20
186.7813570269157
 30
0.0
 40
2.5
 41
7.5
 46
0.0
 71
     6
 72
     5
  1
D30
  7
标准（黑体）
 73
     1
 44
1.0
  0
CIRCLE
  5
492
330
1F
100
AcDbEntity
  8
信号
 62
     7
100
AcDbCircle
 10
400.1849996843503
 20
186.7813570269157
 30
0.0
 40
1.5
  0
LINE
  5
493
330
1F
100
AcDbEntity
  8
信号
 62
     7
100
AcDbLine
 10
398.6849996843503
 20
188.2813570269157
 30
0.0
 11
398.6849996843503
 21
185.2813570269157
 31
0.0
  0
CIRCLE
  5
494
102
{ACAD_REACTORS
330
1A44
102
}
330
1F
100
AcDbEntity
  8
信号
 62
     7
100
AcDbCircle
 10
403.1849996843503
 20
186.7813570269157
 30
0.0
 40
1.5
  0
LINE
  5
495
330
1F
100
AcDbEntity
  8
信号
 62
     7
100
AcDbLine
 10
399.1243395125693
 20
185.7206968551359
 30
0.0
 11
398.7707861219787
 21
185.3671434645426
 31
0.0
  0
LINE
  5
496
330
1F
100
AcDbEntity
  8
信号
 62
     7
100
AcDbLine
 10
401.2456598561303
 20
185.7206968551359
 30
0.0
 11
401.5992132467236
 21
185.3671434645426
 31
0.0
  0
LINE
  5
497
330
1F
100
AcDbEntity
  8
信号
 62
     7
100
AcDbLine
 10
398.7707861219787
 20
188.1955705892888
 30
0.0
 11
399.1243395125693
 21
187.8420171986955
 31
0.0
  0
CIRCLE
  5
498
330
1F
100
AcDbEntity
  8
信号
 62
     7
100
AcDbCircle
 10
400.1849996843503
 20
186.7813570269157
 30
0.0
 40
0.75
  0
CIRCLE
  5
499
102
{ACAD_REACTORS
330
1A44
102
}
330
1F
100
AcDbEntity
  8
信号
 62
     7
100
AcDbCircle
 10
403.1849996843503
 20
186.7813570269157
 30
0.0
 40
0.75
  0
LINE
  5
49A
330
1F
100
AcDbEntity
  8
信号
 62
     7
100
AcDbLine
 10
401.5992132467236
 20
188.1955705892888
 30
0.0
 11
401.2456598561303
 21
187.8420171986955
 31
0.0
  0
LINE
  5
49B
330
1F
100
AcDbEntity
  8
站线
 62
     7
100
AcDbLine
 10
429.5544827914955
 20
185.0313570269157
 30
0.0
 11
436.0055889272281
 21
176.4298821792722
 31
0.0
  0
MTEXT
  5
49D
330
1F
100
AcDbEntity
  8
道岔
 62
     7
100
AcDbMText
 10
438.033577276453
 20
177.1561432413108
 30
0.0
 40
2.5
 41
5.560728870267917
 46
3.245305397548236
 71
     4
 72
     5
  1
24
  7
标准（黑体）
 73
     1
 44
1.0
  0
CIRCLE
  5
49E
330
1F
100
AcDbEntity
  8
信号
 62
     7
100
AcDbCircle
 10
454.080642783475
 20
193.2813570269157
 30
0.0
 40
1.5
  0
CIRCLE
  5
49F
330
1F
100
AcDbEntity
  8
信号
 62
     7
100
AcDbCircle
 10
451.080642783475
 20
193.2813570269157
 30
0.0
 40
0.75
  0
LINE
  5
4A0
330
1F
100
AcDbEntity
  8
信号
 62
     7
100
AcDbLine
 10
453.0199826116959
 20
194.3420171986956
 30
0.0
 11
452.6664292211017
 21
194.6955705892888
 31
0.0
  0
CIRCLE
  5
4A1
330
1F
100
AcDbEntity
  8
信号
 62
     7
100
AcDbCircle
 10
454.080642783475
 20
193.2813570269157
 30
0.0
 40
0.75
  0
LINE
  5
4A2
330
1F
100
AcDbEntity
  8
信号
 62
     7
100
AcDbLine
 10
452.6664292211017
 20
191.8671434645426
 30
0.0
 11
453.0199826116959
 21
192.2206968551359
 31
0.0
  0
MTEXT
  5
4A3
330
1F
100
AcDbEntity
  8
信号
 62
     7
100
AcDbMText
 10
455.8282714547959
 20
193.2559648452371
 30
0.0
 40
2.5
 41
7.5
 46
0.0
 71
     4
 72
     5
  1
D14
  7
标准（黑体）
 73
     1
 44
1.0
  0
LINE
  5
4A4
330
1F
100
AcDbEntity
  8
信号
 62
     7
100
AcDbLine
 10
455.1413029552559
 20
194.3420171986956
 30
0.0
 11
455.4948563458502
 21
194.6955705892888
 31
0.0
  0
LINE
  5
4A5
330
1F
100
AcDbEntity
  8
信号
 62
     7
100
AcDbLine
 10
455.580642783475
 20
191.7813570269157
 30
0.0
 11
455.580642783475
 21
194.7813570269157
 31
0.0
  0
LINE
  5
4A6
330
1F
100
AcDbEntity
  8
信号
 62
     7
100
AcDbLine
 10
455.4948563458502
 20
191.8671434645426
 30
0.0
 11
455.1413029552559
 21
192.2206968551359
 31
0.0
  0
CIRCLE
  5
4A7
330
1F
100
AcDbEntity
  8
信号
 62
     7
100
AcDbCircle
 10
451.080642783475
 20
193.2813570269157
 30
0.0
 40
1.5
  0
MTEXT
  5
4A8
330
1F
100
AcDbEntity
  8
股道
 62
     7
100
AcDbMText
 10
432.2505818222844
 20
196.9243485184488
 30
0.0
 40
2.5
 41
16.9539
 46
0.0
 71
     6
 72
     5
  1
5(200)
  7
标准（黑体）
 73
     1
 44
1.0
  0
LINE
  5
4A9
330
1F
100
AcDbEntity
  8
信号
 62
     7
100
AcDbLine
 10
520.1608594106465
 20
176.7813570269156
 30
0.0
 11
518.6608594106465
 21
176.7813570269156
 31
0.0
  0
CIRCLE
  5
4AA
330
1F
100
AcDbEntity
  8
信号
 62
     7
100
AcDbCircle
 10
511.1608594106465
 20
176.7813570269156
 30
0.0
 40
1.5
  0
CIRCLE
  5
4AB
330
1F
100
AcDbEntity
  8
信号
 62
     7
100
AcDbCircle
 10
508.1608594106465
 20
176.7813570269156
 30
0.0
 40
1.5
  0
LINE
  5
4AC
330
1F
100
AcDbEntity
  8
信号
 62
     7
100
AcDbLine
 10
515.5750729730216
 20
175.3671434645424
 30
0.0
 11
515.2215195824274
 21
175.7206968551357
 31
0.0
  0
CIRCLE
  5
4AD
330
1F
100
AcDbEntity
  8
信号
 62
     7
100
AcDbCircle
 10
514.1608594106465
 20
176.7813570269156
 30
0.0
 40
1.5
  0
LINE
  5
4AE
330
1F
100
AcDbEntity
  8
信号
 62
     7
100
AcDbLine
 10
515.2215195824274
 20
177.8420171986954
 30
0.0
 11
515.5750729730216
 21
178.1955705892887
 31
0.0
  0
LINE
  5
4AF
330
1F
100
AcDbEntity
  8
信号
 62
     7
100
AcDbLine
 10
512.7466458482731
 20
175.3671434645424
 30
0.0
 11
513.1001992388656
 21
175.7206968551357
 31
0.0
  0
LINE
  5
4B0
330
1F
100
AcDbEntity
  8
信号
 62
     7
100
AcDbLine
 10
513.1001992388656
 20
177.8420171986954
 30
0.0
 11
512.7466458482731
 21
178.1955705892887
 31
0.0
  0
CIRCLE
  5
4B1
330
1F
100
AcDbEntity
  8
信号
 62
     7
100
AcDbCircle
 10
517.1608594106465
 20
176.7813570269156
 30
0.0
 40
1.5
  0
LINE
  5
4B2
330
1F
100
AcDbEntity
  8
信号
 62
     7
100
AcDbLine
 10
524.6608594106465
 20
176.7813570269156
 30
0.0
 11
523.1608594106465
 21
176.7813570269156
 31
0.0
  0
CIRCLE
  5
4B3
330
1F
100
AcDbEntity
  8
信号
 62
     7
100
AcDbCircle
 10
521.6608594106465
 20
176.7813570269156
 30
0.0
 40
0.75
  0
CIRCLE
  5
4B4
330
1F
100
AcDbEntity
  8
信号
 62
     7
100
AcDbCircle
 10
521.6608594106465
 20
176.7813570269156
 30
0.0
 40
1.5
  0
LINE
  5
4B5
330
1F
100
AcDbEntity
  8
信号
 62
     7
100
AcDbLine
 10
524.6608594106465
 20
175.2813570269156
 30
0.0
 11
524.6608594106465
 21
178.2813570269156
 31
0.0
  0
LINE
  5
4BF
330
1F
100
AcDbEntity
  8
站线
 62
     7
100
AcDbLine
 10
269.7172158991116
 20
135.0313570269156
 30
0.0
 11
298.7837030579467
 21
135.0313570269155
 31
0.0
  0
LINE
  5
4C0
330
1F
100
AcDbEntity
  8
站线
 62
     7
100
AcDbLine
 10
298.7837030579467
 20
135.0313570269155
 30
0.0
 11
308.6036732911775
 21
135.0313570269155
 31
0.0
  0
LINE
  5
4C1
330
1F
100
AcDbEntity
  8
站线
 62
     7
100
AcDbLine
 10
262.7675089759268
 20
152.6313570269156
 30
0.0
 11
269.7172158991116
 21
135.0313570269155
 31
0.0
  0
MTEXT
  5
4C2
330
1F
100
AcDbEntity
  8
信号
 62
     7
100
AcDbMText
 10
278.5385968512255
 20
130.615899240199
 30
0.0
 40
2.5
 41
10.6919
 46
0.0
 71
     7
 72
     5
  1
S6
  7
标准（黑体）
 73
     1
 44
1.0
  0
MTEXT
  5
4C4
330
1F
100
AcDbEntity
  8
道岔
 62
     7
100
AcDbMText
 10
483.0035671495871
 20
167.6724850015594
 30
0.0
 40
2.5
 41
7.211599999999999
 46
0.0
 71
     4
 72
     5
  1
6
  7
标准（黑体）
 73
     1
 44
1.0
  0
LINE
  5
4C6
330
1F
100
AcDbEntity
  8
站线
 62
     7
100
AcDbLine
 10
477.4612185442223
 20
173.2298821792722
 30
0.0
 11
482.5612314081354
 21
166.4298650273882
 31
0.0
  0
MTEXT
  5
4C8
330
1F
100
AcDbEntity
  8
道岔
 62
     3
100
AcDbMText
 10
475.8289920828947
 20
172.4907065103811
 30
0.0
 40
2.5
 41
7.211599999999999
 46
0.0
 71
     5
 72
     5
  1
8
  7
标准（黑体）
 73
     1
 44
1.0
  0
CIRCLE
  5
4C9
330
1F
100
AcDbEntity
  8
信号
 62
     7
100
AcDbCircle
 10
469.5952374026774
 20
176.7813570269156
 30
0.0
 40
1.5
  0
CIRCLE
  5
4CA
330
1F
100
AcDbEntity
  8
信号
 62
     7
100
AcDbCircle
 10
469.5952374026774
 20
176.7813570269156
 30
0.0
 40
0.75
  0
MTEXT
  5
4CB
330
1F
100
AcDbEntity
  8
信号
 62
     3
100
AcDbMText
 10
467.6946139613456
 20
176.7813570269156
 30
0.0
 40
2.5
 41
7.5
 46
0.0
 71
     6
 72
     5
  1
D10
  7
标准（黑体）
 73
     1
 44
1.0
  0
LINE
  5
4CC
330
1F
100
AcDbEntity
  8
信号
 62
     7
100
AcDbLine
 10
468.0952374026774
 20
178.2813570269156
 30
0.0
 11
468.0952374026774
 21
175.2813570269156
 31
0.0
  0
LINE
  5
4CD
330
1F
100
AcDbEntity
  8
信号
 62
     7
100
AcDbLine
 10
468.5345772308965
 20
175.7206968551358
 30
0.0
 11
468.1810238403023
 21
175.3671434645425
 31
0.0
  0
LINE
  5
4CE
330
1F
100
AcDbEntity
  8
信号
 62
     7
100
AcDbLine
 10
468.1810238403023
 20
178.1955705892887
 30
0.0
 11
468.5345772308965
 21
177.8420171986955
 31
0.0
  0
LINE
  5
4CF
330
1F
100
AcDbEntity
  8
信号
 62
     7
100
AcDbLine
 10
470.6558975744565
 20
175.7206968551358
 30
0.0
 11
471.0094509650489
 21
175.3671434645425
 31
0.0
  0
LINE
  5
4D0
330
1F
100
AcDbEntity
  8
信号
 62
     7
100
AcDbLine
 10
471.0094509650507
 20
178.1955705892887
 30
0.0
 11
470.6558975744565
 21
177.8420171986955
 31
0.0
  0
CIRCLE
  5
4D1
102
{ACAD_REACTORS
330
20E1
102
}
330
1F
100
AcDbEntity
  8
信号
 62
     7
100
AcDbCircle
 10
472.5952374026792
 20
176.7813570269156
 30
0.0
 40
1.5
  0
CIRCLE
  5
4D2
102
{ACAD_REACTORS
330
20E1
102
}
330
1F
100
AcDbEntity
  8
信号
 62
     7
100
AcDbCircle
 10
472.5952374026792
 20
176.7813570269156
 30
0.0
 40
0.75
  0
CIRCLE
  5
4D3
330
1F
100
AcDbEntity
  8
信号
 62
     7
100
AcDbCircle
 10
463.5952374026774
 20
173.2813570269156
 30
0.0
 40
1.5
  0
CIRCLE
  5
4D4
330
1F
100
AcDbEntity
  8
信号
 62
     7
100
AcDbCircle
 10
463.5952374026774
 20
173.2813570269156
 30
0.0
 40
0.75
  0
MTEXT
  5
4D5
330
1F
100
AcDbEntity
  8
信号
 62
     7
100
AcDbMText
 10
468.3428660739964
 20
173.2559648452369
 30
0.0
 40
2.5
 41
7.5
 46
0.0
 71
     4
 72
     5
  1
D12
  7
标准（黑体）
 73
     1
 44
1.0
  0
LINE
  5
4D6
330
1F
100
AcDbEntity
  8
信号
 62
     7
100
AcDbLine
 10
468.0952374026774
 20
171.7813570269156
 30
0.0
 11
468.0952374026774
 21
174.7813570269156
 31
0.0
  0
LINE
  5
4D7
330
1F
100
AcDbEntity
  8
信号
 62
     7
100
AcDbLine
 10
468.0094509650507
 20
171.8671434645425
 30
0.0
 11
467.6558975744565
 21
172.2206968551358
 31
0.0
  0
LINE
  5
4D8
330
1F
100
AcDbEntity
  8
信号
 62
     7
100
AcDbLine
 10
467.6558975744565
 20
174.3420171986954
 30
0.0
 11
468.0094509650507
 21
174.6955705892887
 31
0.0
  0
LINE
  5
4D9
330
1F
100
AcDbEntity
  8
信号
 62
     7
100
AcDbLine
 10
465.1810238403023
 20
171.8671434645425
 30
0.0
 11
465.5345772308965
 21
172.2206968551358
 31
0.0
  0
LINE
  5
4DA
330
1F
100
AcDbEntity
  8
信号
 62
     7
100
AcDbLine
 10
465.5345772308965
 20
174.3420171986954
 30
0.0
 11
465.1810238403023
 21
174.6955705892887
 31
0.0
  0
CIRCLE
  5
4DB
330
1F
100
AcDbEntity
  8
信号
 62
     7
100
AcDbCircle
 10
466.5952374026774
 20
173.2813570269156
 30
0.0
 40
1.5
  0
CIRCLE
  5
4DC
330
1F
100
AcDbEntity
  8
信号
 62
     7
100
AcDbCircle
 10
466.5952374026774
 20
173.2813570269156
 30
0.0
 40
0.75
  0
LINE
  5
4DD
330
1F
100
AcDbEntity
  8
站线
 62
     7
100
AcDbLine
 10
412.8666099582339
 20
143.4334287392816
 30
0.0
 11
406.5423879064829
 21
135.0313570269155
 31
0.0
  0
CIRCLE
  5
4E0
330
1F
100
AcDbEntity
  8
信号
 62
     7
100
AcDbCircle
 10
414.4209230098331
 20
183.2813570269157
 30
0.0
 40
1.5
  0
LINE
  5
4E1
330
1F
100
AcDbEntity
  8
信号
 62
     7
100
AcDbLine
 10
413.360262838054
 20
184.3420171986956
 30
0.0
 11
413.0067094474598
 21
184.6955705892888
 31
0.0
  0
LINE
  5
4E2
330
1F
100
AcDbEntity
  8
信号
 62
     7
100
AcDbLine
 10
413.0067094474598
 20
181.8671434645427
 30
0.0
 11
413.360262838054
 21
182.220696855136
 31
0.0
  0
CIRCLE
  5
4E3
330
1F
100
AcDbEntity
  8
信号
 62
     7
100
AcDbCircle
 10
411.4209230098331
 20
183.2813570269157
 30
0.0
 40
0.75
  0
CIRCLE
  5
4E4
330
1F
100
AcDbEntity
  8
信号
 62
     7
100
AcDbCircle
 10
411.4209230098331
 20
183.2813570269157
 30
0.0
 40
1.5
  0
MTEXT
  5
4E5
330
1F
100
AcDbEntity
  8
信号
 62
     7
100
AcDbMText
 10
416.1149261452902
 20
182.9468743285154
 30
0.0
 40
2.5
 41
7.5
 46
0.0
 71
     4
 72
     5
  1
D26
  7
标准（黑体）
 73
     1
 44
1.0
  0
LINE
  5
4E6
330
1F
100
AcDbEntity
  8
信号
 62
     7
100
AcDbLine
 10
415.4815831816122
 20
184.3420171986956
 30
0.0
 11
415.8351365722046
 21
184.6955705892888
 31
0.0
  0
LINE
  5
4E7
330
1F
100
AcDbEntity
  8
信号
 62
     7
100
AcDbLine
 10
415.9209230098331
 20
181.7813570269157
 30
0.0
 11
415.9209230098331
 21
184.7813570269157
 31
0.0
  0
CIRCLE
  5
4E8
330
1F
100
AcDbEntity
  8
信号
 62
     7
100
AcDbCircle
 10
414.4209230098331
 20
183.2813570269157
 30
0.0
 40
0.75
  0
LINE
  5
4E9
330
1F
100
AcDbEntity
  8
信号
 62
     7
100
AcDbLine
 10
415.8351365722046
 20
181.8671434645427
 30
0.0
 11
415.4815831816122
 21
182.220696855136
 31
0.0
  0
MTEXT
  5
4EA
330
1F
100
AcDbEntity
  8
信号
 62
     7
100
AcDbMText
 10
398.2992053653061
 20
137.7633379286945
 30
0.0
 40
2.5
 41
4.056495804583413
 46
0.0
 71
     6
 72
     5
  1
X6
  7
标准（黑体）
 73
     1
 44
1.0
  0
MTEXT
  5
4EB
330
1F
100
AcDbEntity
  8
股道
 62
     7
100
AcDbMText
 10
302.2970597876075
 20
137.0974006183554
 30
0.0
 40
2.5
 41
16.9539
 46
0.0
 71
     5
 72
     5
  1
6(852)
  7
标准（黑体）
 73
     1
 44
1.0
  0
LINE
  5
4EC
330
1F
100
AcDbEntity
  8
股道
 62
     7
100
AcDbLine
 10
327.3301747681254
 20
135.0313570269155
 30
0.0
 11
327.3301747681254
 21
145.0313570269156
 31
0.0
  0
LINE
  5
4ED
330
1F
100
AcDbEntity
  8
股道
 62
     7
100
AcDbLine
 10
326.5527439216977
 20
136.7679006155015
 30
0.0
 11
327.3301747681254
 21
135.0313570269155
 31
0.0
  0
MTEXT
  5
4EE
330
1F
100
AcDbEntity
  8
股道
 62
     7
100
AcDbMText
 10
325.8843595655536
 20
140.0313570269156
 30
0.0
 40
2.5
 41
4.1223
 46
0.0
 71
     5
 72
     5
  1
5.09
  7
标准（黑体）
 11
1.000000000000000E-16
 21
1.0
 31
0.0
 73
     2
 44
1.0
  0
LINE
  5
4EF
330
1F
100
AcDbEntity
  8
股道
 62
     7
100
AcDbLine
 10
327.3301747681254
 20
145.0313570269156
 30
0.0
 11
328.107605614554
 21
143.2948134383295
 31
0.0
  0
MTEXT
  5
503
330
1F
100
AcDbEntity
  8
道岔
 62
     3
100
AcDbMText
 10
444.0975449960917
 20
193.1066446617359
 30
0.0
 40
2.5
 41
6.359220317741881
 46
0.9423541727216787
 71
     6
 72
     5
  1
12
  7
标准（黑体）
 73
     1
 44
1.0
  0
CIRCLE
  5
509
330
1F
100
AcDbEntity
  8
信号
 62
     7
100
AcDbCircle
 10
478.0946310300396
 20
166.7813570269156
 30
0.0
 40
0.75
  0
CIRCLE
  5
50A
330
1F
100
AcDbEntity
  8
信号
 62
     7
100
AcDbCircle
 10
478.0946310300396
 20
166.7813570269156
 30
0.0
 40
1.5
  0
LINE
  5
50B
330
1F
100
AcDbEntity
  8
信号
 62
     7
100
AcDbLine
 10
473.6804174676645
 20
168.1955705892887
 30
0.0
 11
474.0339708582587
 21
167.8420171986954
 31
0.0
  0
LINE
  5
50C
330
1F
100
AcDbEntity
  8
信号
 62
     7
100
AcDbLine
 10
474.0339708582587
 20
165.7206968551358
 30
0.0
 11
473.6804174676645
 21
165.3671434645425
 31
0.0
  0
CIRCLE
  5
50D
330
1F
100
AcDbEntity
  8
信号
 62
     7
100
AcDbCircle
 10
475.0946310300396
 20
166.7813570269156
 30
0.0
 40
1.5
  0
LINE
  5
50E
330
1F
100
AcDbEntity
  8
信号
 62
     7
100
AcDbLine
 10
473.5946310300396
 20
168.2813570269156
 30
0.0
 11
473.5946310300396
 21
165.2813570269156
 31
0.0
  0
MTEXT
  5
50F
330
1F
100
AcDbEntity
  8
信号
 62
     7
100
AcDbMText
 10
473.194007588706
 20
166.7813570269156
 30
0.0
 40
2.5
 41
7.5
 46
0.0
 71
     6
 72
     5
  1
D8
  7
标准（黑体）
 73
     1
 44
1.0
  0
LINE
  5
510
330
1F
100
AcDbEntity
  8
信号
 62
     7
100
AcDbLine
 10
476.5088445924093
 20
168.1955705892887
 30
0.0
 11
476.1552912018169
 21
167.8420171986954
 31
0.0
  0
LINE
  5
511
330
1F
100
AcDbEntity
  8
信号
 62
     7
100
AcDbLine
 10
476.1552912018169
 20
165.7206968551358
 30
0.0
 11
476.5088445924093
 21
165.3671434645425
 31
0.0
  0
CIRCLE
  5
512
330
1F
100
AcDbEntity
  8
信号
 62
     7
100
AcDbCircle
 10
475.0946310300396
 20
166.7813570269156
 30
0.0
 40
0.75
  0
CIRCLE
  5
527
330
1F
100
AcDbEntity
  8
信号
 62
     7
100
AcDbCircle
 10
438.3791684553862
 20
173.2813570269156
 30
0.0
 40
1.5
  0
CIRCLE
  5
528
330
1F
100
AcDbEntity
  8
信号
 62
     7
100
AcDbCircle
 10
438.3791684553862
 20
173.2813570269156
 30
0.0
 40
0.75
  0
LINE
  5
529
330
1F
100
AcDbEntity
  8
信号
 62
     7
100
AcDbLine
 10
442.4398286271653
 20
174.3420171986954
 30
0.0
 11
442.7933820177586
 21
174.6955705892887
 31
0.0
  0
LINE
  5
52A
330
1F
100
AcDbEntity
  8
信号
 62
     7
100
AcDbLine
 10
442.7933820177586
 20
171.8671434645425
 30
0.0
 11
442.4398286271653
 21
172.2206968551358
 31
0.0
  0
LINE
  5
52B
330
1F
100
AcDbEntity
  8
信号
 62
     7
100
AcDbLine
 10
440.3185082836044
 20
174.3420171986954
 30
0.0
 11
439.9649548930138
 21
174.6955705892887
 31
0.0
  0
LINE
  5
52C
330
1F
100
AcDbEntity
  8
信号
 62
     7
100
AcDbLine
 10
439.9649548930138
 20
171.8671434645425
 30
0.0
 11
440.3185082836044
 21
172.2206968551358
 31
0.0
  0
CIRCLE
  5
52D
330
1F
100
AcDbEntity
  8
信号
 62
     7
100
AcDbCircle
 10
441.3791684553844
 20
173.2813570269156
 30
0.0
 40
0.75
  0
CIRCLE
  5
52E
330
1F
100
AcDbEntity
  8
信号
 62
     7
100
AcDbCircle
 10
441.3791684553844
 20
173.2813570269156
 30
0.0
 40
1.5
  0
LINE
  5
52F
330
1F
100
AcDbEntity
  8
信号
 62
     7
100
AcDbLine
 10
442.8791684553844
 20
171.7813570269156
 30
0.0
 11
442.8791684553844
 21
174.7813570269156
 31
0.0
  0
MTEXT
  5
530
330
1F
100
AcDbEntity
  8
信号
 62
     7
100
AcDbMText
 10
443.1267971267052
 20
173.255964845237
 30
0.0
 40
2.5
 41
7.5
 46
0.0
 71
     4
 72
     5
  1
D24
  7
标准（黑体）
 73
     1
 44
1.0
  0
LWPOLYLINE
  5
532
330
1F
100
AcDbEntity
  8
站线
 62
     7
100
AcDbPolyline
 90
        4
 70
     0
 43
0.0
 10
496.2601141075784
 20
194.0313570269153
 10
495.2601141075766
 20
194.0313570269153
 10
495.2601141075766
 20
196.0313570269153
 10
496.2601141075784
 20
196.0313570269153
  0
MTEXT
  5
533
330
1F
100
AcDbEntity
  8
股道
 62
     7
100
AcDbMText
 10
471.2921252507685
 20
196.8428229462221
 30
0.0
 40
2.5
 41
16.9539
 46
0.0
 71
     5
 72
     5
  1
7(190)
  7
标准（黑体）
 73
     1
 44
1.0
  0
CIRCLE
  5
540
330
1F
100
AcDbEntity
  8
信号
 62
     7
100
AcDbCircle
 10
432.0479139195522
 20
186.8712899494352
 30
0.0
 40
1.5
  0
CIRCLE
  5
541
330
1F
100
AcDbEntity
  8
信号
 62
     7
100
AcDbCircle
 10
432.0479139195522
 20
189.8712899494352
 30
0.0
 40
1.5
  0
CIRCLE
  5
542
330
1F
100
AcDbEntity
  8
信号
 62
     7
100
AcDbCircle
 10
432.0479139195522
 20
186.8712899494352
 30
0.0
 40
0.75
  0
LINE
  5
543
330
1F
100
AcDbEntity
  8
信号
 62
     7
100
AcDbLine
 10
427.5479139195522
 20
185.3712899494352
 30
0.0
 11
427.5479139195522
 21
191.3712899494352
 31
0.0
  0
CIRCLE
  5
544
330
1F
100
AcDbEntity
  8
信号
 62
     7
100
AcDbCircle
 10
429.0479139195522
 20
189.8712899494352
 30
0.0
 40
1.5
  0
CIRCLE
  5
545
330
1F
100
AcDbEntity
  8
信号
 62
     7
100
AcDbCircle
 10
429.0479139195522
 20
186.8712899494352
 30
0.0
 40
1.5
  0
LINE
  5
546
330
1F
100
AcDbEntity
  8
信号
 62
     7
100
AcDbLine
 10
430.4621274819237
 20
188.2855035118083
 30
0.0
 11
430.1085740913295
 21
187.9319501212151
 31
0.0
  0
LINE
  5
547
330
1F
100
AcDbEntity
  8
信号
 62
     7
100
AcDbLine
 10
427.6337003571789
 20
188.2855035118083
 30
0.0
 11
427.9872537477731
 21
187.9319501212151
 31
0.0
  0
LINE
  5
548
330
1F
100
AcDbEntity
  8
信号
 62
     7
100
AcDbLine
 10
430.1085740913295
 20
185.8106297776554
 30
0.0
 11
430.4621274819237
 21
185.4570763870621
 31
0.0
  0
LINE
  5
549
330
1F
100
AcDbEntity
  8
信号
 62
     7
100
AcDbLine
 10
427.9872537477731
 20
185.8106297776554
 30
0.0
 11
427.6337003571789
 21
185.4570763870621
 31
0.0
  0
CIRCLE
  5
54A
330
1F
100
AcDbEntity
  8
信号
 62
     7
100
AcDbCircle
 10
426.7979139195495
 20
186.8712899494352
 30
0.0
 40
0.75
  0
LINE
  5
54B
330
1F
100
AcDbEntity
  8
信号
 62
     7
100
AcDbLine
 10
427.5479139195522
 20
191.3712899494352
 30
0.0
 11
426.0479139195522
 21
191.3712899494352
 31
0.0
  0
LINE
  5
54C
330
1F
100
AcDbEntity
  8
信号
 62
     7
100
AcDbLine
 10
426.0479139195522
 20
185.3712899494352
 30
0.0
 11
426.0479139195522
 21
191.3712899494352
 31
0.0
  0
LINE
  5
54D
330
1F
100
AcDbEntity
  8
信号
 62
     7
100
AcDbLine
 10
427.5479139195522
 20
185.3712899494352
 30
0.0
 11
426.0479139195522
 21
185.3712899494352
 31
0.0
  0
CIRCLE
  5
54E
330
1F
100
AcDbEntity
  8
信号
 62
     7
100
AcDbCircle
 10
435.0174305957544
 20
189.9881594533418
 30
0.0
 40
1.5
  0
LINE
  5
54F
330
1F
100
AcDbEntity
  8
站线
 62
     7
100
AcDbLine
 10
433.0239133993209
 20
190.9431745863536
 30
0.0
 11
431.0258437914854
 21
188.8746848140966
 31
0.0
  0
LINE
  5
550
330
1F
100
AcDbEntity
  8
站线
 62
     7
100
AcDbLine
 10
433.0952735252395
 20
188.8746848140966
 30
0.0
 11
431.0615241444048
 21
190.9075110538494
 31
0.0
  0
CIRCLE
  5
551
330
1F
100
AcDbEntity
  8
信号
 62
     7
100
AcDbCircle
 10
427.0418122434376
 20
167.198462846786
 30
0.0
 40
1.5
  0
CIRCLE
  5
552
330
1F
100
AcDbEntity
  8
信号
 62
     7
100
AcDbCircle
 10
427.0418122434376
 20
170.198462846786
 30
0.0
 40
1.5
  0
CIRCLE
  5
553
330
1F
100
AcDbEntity
  8
信号
 62
     7
100
AcDbCircle
 10
427.0418122434376
 20
167.198462846786
 30
0.0
 40
0.75
  0
LINE
  5
554
330
1F
100
AcDbEntity
  8
信号
 62
     7
100
AcDbLine
 10
422.5418122434376
 20
165.698462846786
 30
0.0
 11
422.5418122434376
 21
171.698462846786
 31
0.0
  0
CIRCLE
  5
555
330
1F
100
AcDbEntity
  8
信号
 62
     7
100
AcDbCircle
 10
424.0418122434376
 20
170.198462846786
 30
0.0
 40
1.5
  0
CIRCLE
  5
556
330
1F
100
AcDbEntity
  8
信号
 62
     7
100
AcDbCircle
 10
424.0418122434376
 20
167.198462846786
 30
0.0
 40
1.5
  0
LINE
  5
557
330
1F
100
AcDbEntity
  8
信号
 62
     7
100
AcDbLine
 10
425.4560258058091
 20
168.6126764091591
 30
0.0
 11
425.1024724152176
 21
168.2591230185658
 31
0.0
  0
LINE
  5
558
330
1F
100
AcDbEntity
  8
信号
 62
     7
100
AcDbLine
 10
422.6275986810642
 20
168.6126764091591
 30
0.0
 11
422.9811520716567
 21
168.2591230185658
 31
0.0
  0
LINE
  5
559
330
1F
100
AcDbEntity
  8
信号
 62
     7
100
AcDbLine
 10
425.1024724152176
 20
166.1378026750062
 30
0.0
 11
425.4560258058091
 21
165.7842492844129
 31
0.0
  0
LINE
  5
55A
330
1F
100
AcDbEntity
  8
信号
 62
     7
100
AcDbLine
 10
422.9811520716567
 20
166.1378026750062
 30
0.0
 11
422.6275986810642
 21
165.7842492844129
 31
0.0
  0
CIRCLE
  5
55B
330
1F
100
AcDbEntity
  8
信号
 62
     7
100
AcDbCircle
 10
421.7918122434376
 20
167.198462846786
 30
0.0
 40
0.75
  0
LINE
  5
55C
330
1F
100
AcDbEntity
  8
信号
 62
     7
100
AcDbLine
 10
422.5418122434376
 20
171.698462846786
 30
0.0
 11
421.0418122434376
 21
171.698462846786
 31
0.0
  0
LINE
  5
55D
330
1F
100
AcDbEntity
  8
信号
 62
     7
100
AcDbLine
 10
421.0418122434376
 20
165.698462846786
 30
0.0
 11
421.0418122434376
 21
171.698462846786
 31
0.0
  0
LINE
  5
55E
330
1F
100
AcDbEntity
  8
信号
 62
     7
100
AcDbLine
 10
422.5418122434376
 20
165.698462846786
 30
0.0
 11
421.0418122434376
 21
165.698462846786
 31
0.0
  0
CIRCLE
  5
55F
330
1F
100
AcDbEntity
  8
信号
 62
     7
100
AcDbCircle
 10
430.0113289196397
 20
170.3153323506925
 30
0.0
 40
1.5
  0
LINE
  5
560
330
1F
100
AcDbEntity
  8
站线
100
AcDbLine
 10
428.0178117232053
 20
171.2703474837044
 30
0.0
 11
426.0197421153725
 21
169.2018577114474
 31
0.0
  0
LINE
  5
561
330
1F
100
AcDbEntity
  8
站线
100
AcDbLine
 10
428.0891718491257
 20
169.2018577114474
 30
0.0
 11
426.0554224682883
 21
171.2346839512002
 31
0.0
  0
CIRCLE
  5
562
330
1F
100
AcDbEntity
  8
信号
 62
     7
100
AcDbCircle
 10
414.0259454822926
 20
147.175459335603
 30
0.0
 40
1.5
  0
CIRCLE
  5
563
330
1F
100
AcDbEntity
  8
信号
 62
     7
100
AcDbCircle
 10
414.0259454822926
 20
150.175459335603
 30
0.0
 40
1.5
  0
CIRCLE
  5
564
330
1F
100
AcDbEntity
  8
信号
 62
     7
100
AcDbCircle
 10
414.0259454822926
 20
147.175459335603
 30
0.0
 40
0.75
  0
LINE
  5
565
330
1F
100
AcDbEntity
  8
信号
 62
     7
100
AcDbLine
 10
409.5259454822926
 20
145.6754593356029
 30
0.0
 11
409.5259454822926
 21
151.6754593356029
 31
0.0
  0
CIRCLE
  5
566
330
1F
100
AcDbEntity
  8
信号
 62
     7
100
AcDbCircle
 10
411.0259454822926
 20
150.175459335603
 30
0.0
 40
1.5
  0
CIRCLE
  5
567
330
1F
100
AcDbEntity
  8
信号
 62
     7
100
AcDbCircle
 10
411.0259454822926
 20
147.175459335603
 30
0.0
 40
1.5
  0
LINE
  5
568
330
1F
100
AcDbEntity
  8
信号
 62
     7
100
AcDbLine
 10
412.4401590446696
 20
148.5896728979761
 30
0.0
 11
412.0866056540735
 21
148.2361195073828
 31
0.0
  0
LINE
  5
569
330
1F
100
AcDbEntity
  8
信号
 62
     7
100
AcDbLine
 10
409.611731919922
 20
148.5896728979761
 30
0.0
 11
409.9652853105163
 21
148.2361195073828
 31
0.0
  0
LINE
  5
56A
330
1F
100
AcDbEntity
  8
信号
 62
     7
100
AcDbLine
 10
412.0866056540735
 20
146.1147991638231
 30
0.0
 11
412.4401590446696
 21
145.7612457732299
 31
0.0
  0
LINE
  5
56B
330
1F
100
AcDbEntity
  8
信号
 62
     7
100
AcDbLine
 10
409.9652853105163
 20
146.1147991638231
 30
0.0
 11
409.611731919922
 21
145.7612457732299
 31
0.0
  0
CIRCLE
  5
56C
330
1F
100
AcDbEntity
  8
信号
 62
     7
100
AcDbCircle
 10
408.7759454822954
 20
147.1754593356029
 30
0.0
 40
0.75
  0
LINE
  5
56D
330
1F
100
AcDbEntity
  8
信号
 62
     7
100
AcDbLine
 10
409.5259454822926
 20
151.6754593356029
 30
0.0
 11
408.0259454822926
 21
151.6754593356029
 31
0.0
  0
LINE
  5
56E
330
1F
100
AcDbEntity
  8
信号
 62
     7
100
AcDbLine
 10
408.0259454822926
 20
145.6754593356029
 30
0.0
 11
408.0259454822926
 21
151.675459335603
 31
0.0
  0
LINE
  5
56F
330
1F
100
AcDbEntity
  8
信号
 62
     7
100
AcDbLine
 10
409.5259454822926
 20
145.0313569627912
 30
0.0
 11
408.0259454822926
 21
145.0313569627912
 31
0.0
  0
CIRCLE
  5
570
330
1F
100
AcDbEntity
  8
信号
 62
     7
100
AcDbCircle
 10
416.9954621584984
 20
150.2923288395095
 30
0.0
 40
1.5
  0
LINE
  5
571
330
1F
100
AcDbEntity
  8
站线
100
AcDbLine
 10
415.001944962064
 20
151.2473439725214
 30
0.0
 11
413.0038753542312
 21
149.1788542002643
 31
0.0
  0
LINE
  5
572
330
1F
100
AcDbEntity
  8
站线
100
AcDbLine
 10
415.0733050879862
 20
149.1788542002643
 30
0.0
 11
413.0395557071497
 21
151.2116804400172
 31
0.0
  0
CIRCLE
  5
573
330
1F
100
AcDbEntity
  8
信号
 62
     7
100
AcDbCircle
 10
404.6812203508443
 20
137.1797851102634
 30
0.0
 40
1.5
  0
CIRCLE
  5
574
330
1F
100
AcDbEntity
  8
信号
 62
     7
100
AcDbCircle
 10
404.6812203508443
 20
140.1797851102635
 30
0.0
 40
1.5
  0
CIRCLE
  5
575
330
1F
100
AcDbEntity
  8
信号
 62
     7
100
AcDbCircle
 10
404.6812203508443
 20
137.1797851102634
 30
0.0
 40
0.75
  0
LINE
  5
576
330
1F
100
AcDbEntity
  8
信号
 62
     7
100
AcDbLine
 10
400.1812203508443
 20
135.6797851102634
 30
0.0
 11
400.1812203508443
 21
141.6797851102634
 31
0.0
  0
CIRCLE
  5
577
330
1F
100
AcDbEntity
  8
信号
 62
     7
100
AcDbCircle
 10
401.6812203508443
 20
140.1797851102635
 30
0.0
 40
1.5
  0
CIRCLE
  5
578
330
1F
100
AcDbEntity
  8
信号
 62
     7
100
AcDbCircle
 10
401.6812203508443
 20
137.1797851102634
 30
0.0
 40
1.5
  0
LINE
  5
579
330
1F
100
AcDbEntity
  8
信号
 62
     7
100
AcDbLine
 10
403.0954339132177
 20
138.5939986726364
 30
0.0
 11
402.7418805226243
 21
138.2404452820432
 31
0.0
  0
LINE
  5
57A
330
1F
100
AcDbEntity
  8
信号
 62
     7
100
AcDbLine
 10
400.2670067884701
 20
138.5939986726364
 30
0.0
 11
400.6205601790634
 21
138.2404452820432
 31
0.0
  0
LINE
  5
57B
330
1F
100
AcDbEntity
  8
信号
 62
     7
100
AcDbLine
 10
402.7418805226243
 20
136.1191249384835
 30
0.0
 11
403.0954339132177
 21
135.7655715478903
 31
0.0
  0
LINE
  5
57C
330
1F
100
AcDbEntity
  8
信号
 62
     7
100
AcDbLine
 10
400.6205601790634
 20
136.1191249384835
 30
0.0
 11
400.2670067884701
 21
135.7655715478903
 31
0.0
  0
CIRCLE
  5
57D
330
1F
100
AcDbEntity
  8
信号
 62
     7
100
AcDbCircle
 10
399.4312203508443
 20
137.1797851102634
 30
0.0
 40
0.75
  0
LINE
  5
57E
330
1F
100
AcDbEntity
  8
信号
 62
     7
100
AcDbLine
 10
400.1812203508443
 20
141.6797851102635
 30
0.0
 11
398.6812203508443
 21
141.6797851102635
 31
0.0
  0
LINE
  5
57F
330
1F
100
AcDbEntity
  8
信号
 62
     7
100
AcDbLine
 10
398.6812203508443
 20
135.6797851102634
 30
0.0
 11
398.6812203508443
 21
141.6797851102635
 31
0.0
  0
LINE
  5
580
330
1F
100
AcDbEntity
  8
信号
 62
     7
100
AcDbLine
 10
400.1812203508443
 20
135.0313569627912
 30
0.0
 11
398.6812203508443
 21
135.0313569627912
 31
0.0
  0
CIRCLE
  5
581
330
1F
100
AcDbEntity
  8
信号
 62
     7
100
AcDbCircle
 10
407.6507370270474
 20
140.29665461417
 30
0.0
 40
1.5
  0
LINE
  5
582
330
1F
100
AcDbEntity
  8
站线
100
AcDbLine
 10
405.6572198306148
 20
141.2516697471819
 30
0.0
 11
403.6591502227793
 21
139.1831799749247
 31
0.0
  0
LINE
  5
583
330
1F
100
AcDbEntity
  8
站线
100
AcDbLine
 10
405.7285799565343
 20
139.1831799749247
 30
0.0
 11
403.694830575696
 21
141.2160062146777
 31
0.0
  0
CIRCLE
  5
584
330
1F
100
AcDbEntity
  8
信号
 62
     7
100
AcDbCircle
 10
263.9488630406277
 20
183.3170979180844
 30
0.0
 40
1.5
  0
CIRCLE
  5
585
330
1F
100
AcDbEntity
  8
信号
 62
     7
100
AcDbCircle
 10
263.9488630406277
 20
180.3170979180844
 30
0.0
 40
1.5
  0
CIRCLE
  5
586
330
1F
100
AcDbEntity
  8
信号
 62
     7
100
AcDbCircle
 10
263.9488630406277
 20
183.3170979180844
 30
0.0
 40
0.75
  0
LINE
  5
587
330
1F
100
AcDbEntity
  8
信号
 62
     7
100
AcDbLine
 10
268.4488630406267
 20
184.8170979180844
 30
0.0
 11
268.4488630406267
 21
178.8170979180844
 31
0.0
  0
CIRCLE
  5
588
330
1F
100
AcDbEntity
  8
信号
 62
     7
100
AcDbCircle
 10
266.9488630406267
 20
180.3170979180844
 30
0.0
 40
1.5
  0
CIRCLE
  5
589
330
1F
100
AcDbEntity
  8
信号
 62
     7
100
AcDbCircle
 10
266.9488630406267
 20
183.3170979180844
 30
0.0
 40
1.5
  0
LINE
  5
58A
330
1F
100
AcDbEntity
  8
信号
 62
     7
100
AcDbLine
 10
265.5346494782543
 20
181.9028843557113
 30
0.0
 11
265.8882028688467
 21
182.2564377463046
 31
0.0
  0
LINE
  5
58B
330
1F
100
AcDbEntity
  8
信号
 62
     7
100
AcDbLine
 10
268.3630766029992
 20
181.9028843557113
 30
0.0
 11
268.0095232124049
 21
182.2564377463046
 31
0.0
  0
LINE
  5
58C
330
1F
100
AcDbEntity
  8
信号
 62
     7
100
AcDbLine
 10
265.8882028688467
 20
184.3777580898642
 30
0.0
 11
265.5346494782543
 21
184.7313114804575
 31
0.0
  0
LINE
  5
58D
330
1F
100
AcDbEntity
  8
信号
 62
     7
100
AcDbLine
 10
268.0095232124049
 20
184.3777580898642
 30
0.0
 11
268.3630766029992
 21
184.7313114804575
 31
0.0
  0
CIRCLE
  5
58E
330
1F
100
AcDbEntity
  8
信号
 62
     7
100
AcDbCircle
 10
269.1988630406277
 20
183.3170979180844
 30
0.0
 40
0.75
  0
LINE
  5
58F
330
1F
100
AcDbEntity
  8
信号
 62
     7
100
AcDbLine
 10
268.4488630406267
 20
178.8170979180844
 30
0.0
 11
269.9488630406267
 21
178.8170979180844
 31
0.0
  0
LINE
  5
590
330
1F
100
AcDbEntity
  8
信号
 62
     7
100
AcDbLine
 10
269.9488630406267
 20
184.8170979180844
 30
0.0
 11
269.9488630406267
 21
178.8170979180844
 31
0.0
  0
LINE
  5
591
330
1F
100
AcDbEntity
  8
信号
 62
     7
100
AcDbLine
 10
268.4488630406267
 20
184.8170979180844
 30
0.0
 11
269.9488630406267
 21
184.8170979180844
 31
0.0
  0
CIRCLE
  5
592
330
1F
100
AcDbEntity
  8
信号
 62
     7
100
AcDbCircle
 10
260.9793463644228
 20
180.2002284141779
 30
0.0
 40
1.5
  0
LINE
  5
593
330
1F
100
AcDbEntity
  8
站线
100
AcDbLine
 10
262.9728635608571
 20
179.245213281166
 30
0.0
 11
264.9709331686909
 21
181.313703053423
 31
0.0
  0
LINE
  5
594
330
1F
100
AcDbEntity
  8
站线
100
AcDbLine
 10
262.9015034349359
 20
181.313703053423
 30
0.0
 11
264.9352528157742
 21
179.2808768136702
 31
0.0
  0
CIRCLE
  5
595
330
1F
100
AcDbEntity
  8
信号
 62
     7
100
AcDbCircle
 10
261.1120712897455
 20
172.9769520239023
 30
0.0
 40
1.5
  0
CIRCLE
  5
596
330
1F
100
AcDbEntity
  8
信号
 62
     7
100
AcDbCircle
 10
261.1120712897455
 20
169.9769520239023
 30
0.0
 40
1.5
  0
CIRCLE
  5
597
330
1F
100
AcDbEntity
  8
信号
 62
     7
100
AcDbCircle
 10
261.1120712897455
 20
172.9769520239023
 30
0.0
 40
0.75
  0
LINE
  5
598
330
1F
100
AcDbEntity
  8
信号
 62
     7
100
AcDbLine
 10
265.6120712897455
 20
174.4769520239023
 30
0.0
 11
265.6120712897455
 21
168.4769520239023
 31
0.0
  0
CIRCLE
  5
599
330
1F
100
AcDbEntity
  8
信号
 62
     7
100
AcDbCircle
 10
264.1120712897455
 20
169.9769520239023
 30
0.0
 40
1.5
  0
CIRCLE
  5
59A
330
1F
100
AcDbEntity
  8
信号
 62
     7
100
AcDbCircle
 10
264.1120712897455
 20
172.9769520239023
 30
0.0
 40
1.5
  0
LINE
  5
59B
330
1F
100
AcDbEntity
  8
信号
 62
     7
100
AcDbLine
 10
262.697857727373
 20
171.5627384615292
 30
0.0
 11
263.0514111179682
 21
171.9162918521224
 31
0.0
  0
LINE
  5
59C
330
1F
100
AcDbEntity
  8
信号
 62
     7
100
AcDbLine
 10
265.5262848521206
 20
171.5627384615292
 30
0.0
 11
265.1727314615264
 21
171.9162918521224
 31
0.0
  0
LINE
  5
59D
330
1F
100
AcDbEntity
  8
信号
 62
     7
100
AcDbLine
 10
263.0514111179682
 20
174.0376121956821
 30
0.0
 11
262.697857727373
 21
174.3911655862754
 31
0.0
  0
LINE
  5
59E
330
1F
100
AcDbEntity
  8
信号
 62
     7
100
AcDbLine
 10
265.1727314615264
 20
174.0376121956821
 30
0.0
 11
265.5262848521206
 21
174.3911655862754
 31
0.0
  0
CIRCLE
  5
59F
330
1F
100
AcDbEntity
  8
信号
 62
     7
100
AcDbCircle
 10
266.3620712897473
 20
172.9769520239023
 30
0.0
 40
0.75
  0
LINE
  5
5A0
330
1F
100
AcDbEntity
  8
信号
 62
     7
100
AcDbLine
 10
265.6120712897455
 20
168.4769520239023
 30
0.0
 11
267.1120712897455
 21
168.4769520239023
 31
0.0
  0
LINE
  5
5A1
330
1F
100
AcDbEntity
  8
信号
 62
     7
100
AcDbLine
 10
267.1120712897455
 20
174.4769520239023
 30
0.0
 11
267.1120712897455
 21
168.4769520239023
 31
0.0
  0
LINE
  5
5A2
330
1F
100
AcDbEntity
  8
信号
 62
     7
100
AcDbLine
 10
265.6120712897455
 20
174.4769520239023
 30
0.0
 11
267.1120712897455
 21
174.4769520239023
 31
0.0
  0
CIRCLE
  5
5A3
330
1F
100
AcDbEntity
  8
信号
 62
     7
100
AcDbCircle
 10
258.1425546135424
 20
169.8600825199958
 30
0.0
 40
1.5
  0
LINE
  5
5A4
330
1F
100
AcDbEntity
  8
站线
100
AcDbLine
 10
260.1360718099759
 20
168.9050673869838
 30
0.0
 11
262.1341414178096
 21
170.9735571592409
 31
0.0
  0
LINE
  5
5A5
330
1F
100
AcDbEntity
  8
站线
100
AcDbLine
 10
260.0647116840564
 20
170.9735571592409
 30
0.0
 11
262.0984610648929
 21
168.940730919488
 31
0.0
  0
CIRCLE
  5
5A6
330
1F
100
AcDbEntity
  8
信号
 62
     7
100
AcDbCircle
 10
272.8114015342544
 20
143.1312261771612
 30
0.0
 40
1.5
  0
CIRCLE
  5
5A7
330
1F
100
AcDbEntity
  8
信号
 62
     7
100
AcDbCircle
 10
272.8114015342544
 20
140.1312261771612
 30
0.0
 40
1.5
  0
CIRCLE
  5
5A8
330
1F
100
AcDbEntity
  8
信号
 62
     7
100
AcDbCircle
 10
272.8114015342544
 20
143.1312261771612
 30
0.0
 40
0.75
  0
LINE
  5
5A9
330
1F
100
AcDbEntity
  8
信号
 62
     7
100
AcDbLine
 10
277.3114015342553
 20
144.6312261771612
 30
0.0
 11
277.3114015342553
 21
138.6312261771612
 31
0.0
  0
CIRCLE
  5
5AA
330
1F
100
AcDbEntity
  8
信号
 62
     7
100
AcDbCircle
 10
275.8114015342544
 20
140.1312261771612
 30
0.0
 40
1.5
  0
CIRCLE
  5
5AB
330
1F
100
AcDbEntity
  8
信号
 62
     7
100
AcDbCircle
 10
275.8114015342544
 20
143.1312261771612
 30
0.0
 40
1.5
  0
LINE
  5
5AC
330
1F
100
AcDbEntity
  8
信号
 62
     7
100
AcDbLine
 10
274.3971879718792
 20
141.7170126147881
 30
0.0
 11
274.7507413624735
 21
142.0705660053813
 31
0.0
  0
LINE
  5
5AD
330
1F
100
AcDbEntity
  8
信号
 62
     7
100
AcDbLine
 10
277.225615096625
 20
141.7170126147881
 30
0.0
 11
276.8720617060344
 21
142.0705660053813
 31
0.0
  0
LINE
  5
5AE
330
1F
100
AcDbEntity
  8
信号
 62
     7
100
AcDbLine
 10
274.7507413624735
 20
144.191886348941
 30
0.0
 11
274.3971879718792
 21
144.5454397395343
 31
0.0
  0
LINE
  5
5AF
330
1F
100
AcDbEntity
  8
信号
 62
     7
100
AcDbLine
 10
276.8720617060344
 20
144.191886348941
 30
0.0
 11
277.225615096625
 21
144.5454397395343
 31
0.0
  0
CIRCLE
  5
5B0
330
1F
100
AcDbEntity
  8
信号
 62
     7
100
AcDbCircle
 10
278.0614015342535
 20
143.1312261771612
 30
0.0
 40
0.75
  0
LINE
  5
5B1
330
1F
100
AcDbEntity
  8
信号
 62
     7
100
AcDbLine
 10
277.3114015342553
 20
138.6312261771612
 30
0.0
 11
278.8114015342553
 21
138.6312261771612
 31
0.0
  0
LINE
  5
5B2
330
1F
100
AcDbEntity
  8
信号
 62
     7
100
AcDbLine
 10
278.8114015342553
 20
144.6312261771612
 30
0.0
 11
278.8114015342553
 21
138.6312261771612
 31
0.0
  0
LINE
  5
5B3
330
1F
100
AcDbEntity
  8
信号
 62
     7
100
AcDbLine
 10
277.3114015342553
 20
144.6312261771612
 30
0.0
 11
278.8114015342553
 21
144.6312261771612
 31
0.0
  0
CIRCLE
  5
5B4
330
1F
100
AcDbEntity
  8
信号
 62
     7
100
AcDbCircle
 10
269.8418848580495
 20
140.0143566732546
 30
0.0
 40
1.5
  0
LINE
  5
5B5
330
1F
100
AcDbEntity
  8
站线
100
AcDbLine
 10
271.8354020544839
 20
139.0593415402427
 30
0.0
 11
273.8334716623185
 21
141.1278313124998
 31
0.0
  0
LINE
  5
5B6
330
1F
100
AcDbEntity
  8
站线
100
AcDbLine
 10
271.7640419285644
 20
141.1278313124998
 30
0.0
 11
273.7977913094001
 21
139.0950050727469
 31
0.0
  0
CIRCLE
  5
5B7
330
1F
100
AcDbEntity
  8
信号
 62
     7
100
AcDbCircle
 10
272.292367236043
 20
133.1173582815318
 30
0.0
 40
1.5
  0
CIRCLE
  5
5B8
330
1F
100
AcDbEntity
  8
信号
 62
     7
100
AcDbCircle
 10
272.292367236043
 20
130.1173582815318
 30
0.0
 40
1.5
  0
CIRCLE
  5
5B9
330
1F
100
AcDbEntity
  8
信号
 62
     7
100
AcDbCircle
 10
272.292367236043
 20
133.1173582815318
 30
0.0
 40
0.75
  0
LINE
  5
5BA
330
1F
100
AcDbEntity
  8
信号
 62
     7
100
AcDbLine
 10
276.792367236043
 20
134.6173582815319
 30
0.0
 11
276.792367236043
 21
128.6173582815319
 31
0.0
  0
CIRCLE
  5
5BB
330
1F
100
AcDbEntity
  8
信号
 62
     7
100
AcDbCircle
 10
275.292367236043
 20
130.1173582815318
 30
0.0
 40
1.5
  0
CIRCLE
  5
5BC
330
1F
100
AcDbEntity
  8
信号
 62
     7
100
AcDbCircle
 10
275.292367236043
 20
133.1173582815318
 30
0.0
 40
1.5
  0
LINE
  5
5BD
330
1F
100
AcDbEntity
  8
信号
 62
     7
100
AcDbLine
 10
273.8781536736697
 20
131.7031447191587
 30
0.0
 11
274.2317070642621
 21
132.056698109752
 31
0.0
  0
LINE
  5
5BE
330
1F
100
AcDbEntity
  8
信号
 62
     7
100
AcDbLine
 10
276.7065807984172
 20
131.7031447191587
 30
0.0
 11
276.3530274078203
 21
132.056698109752
 31
0.0
  0
LINE
  5
5BF
330
1F
100
AcDbEntity
  8
信号
 62
     7
100
AcDbLine
 10
274.2317070642621
 20
134.1780184533117
 30
0.0
 11
273.8781536736697
 21
134.5315718439049
 31
0.0
  0
LINE
  5
5C0
330
1F
100
AcDbEntity
  8
信号
 62
     7
100
AcDbLine
 10
276.3530274078203
 20
134.1780184533117
 30
0.0
 11
276.7065807984172
 21
134.5315718439049
 31
0.0
  0
CIRCLE
  5
5C1
330
1F
100
AcDbEntity
  8
信号
 62
     7
100
AcDbCircle
 10
277.542367236043
 20
133.1173582815319
 30
0.0
 40
0.75
  0
LINE
  5
5C2
330
1F
100
AcDbEntity
  8
信号
 62
     7
100
AcDbLine
 10
278.2923672360439
 20
134.6173582815319
 30
0.0
 11
278.2923672360439
 21
128.6173582815318
 31
0.0
  0
LINE
  5
5C3
330
1F
100
AcDbEntity
  8
信号
 62
     7
100
AcDbLine
 10
276.792367236043
 20
134.6173582815319
 30
0.0
 11
278.2923672360439
 21
134.6173582815319
 31
0.0
  0
CIRCLE
  5
5C4
330
1F
100
AcDbEntity
  8
信号
 62
     7
100
AcDbCircle
 10
269.322850559839
 20
130.0004887776253
 30
0.0
 40
1.5
  0
LINE
  5
5C5
330
1F
100
AcDbEntity
  8
站线
100
AcDbLine
 10
271.3163677562734
 20
129.0454736446134
 30
0.0
 11
273.3144373641071
 21
131.1139634168705
 31
0.0
  0
LINE
  5
5C6
330
1F
100
AcDbEntity
  8
站线
100
AcDbLine
 10
271.2450076303521
 20
131.1139634168705
 30
0.0
 11
273.2787570111905
 21
129.0811371771176
 31
0.0
  0
CIRCLE
  5
5D1
330
1F
100
AcDbEntity
  8
信号
 62
     1
100
AcDbCircle
 10
310.1666114912705
 20
184.8253567176313
 30
0.0
 40
1.5
  0
CIRCLE
  5
5D2
330
1F
100
AcDbEntity
  8
信号
 62
     1
100
AcDbCircle
 10
310.1028240859205
 20
174.9421804706281
 30
0.0
 40
1.5
  0
CIRCLE
  5
5D3
330
1F
100
AcDbEntity
  8
信号
 62
     1
100
AcDbCircle
 10
310.1028240859205
 20
165.0827354885231
 30
0.0
 40
1.5
  0
CIRCLE
  5
5D4
330
1F
100
AcDbEntity
  8
信号
 62
     1
100
AcDbCircle
 10
310.1028240859205
 20
145.0148384045288
 30
0.0
 40
1.5
  0
CIRCLE
  5
5D5
330
1F
100
AcDbEntity
  8
信号
 62
     1
100
AcDbCircle
 10
310.1028240859205
 20
134.9808902594221
 30
0.0
 40
1.5
  0
LINE
  5
7C7
330
1F
100
AcDbEntity
  8
里程
 62
     7
100
AcDbLine
 10
315.8536942315365
 20
201.2835817111279
 30
0.0
 11
289.8234134750143
 21
201.2835817111281
 31
0.0
  0
MTEXT
  5
7C8
330
1F
100
AcDbEntity
  8
里程
 62
     7
100
AcDbMText
 10
299.381145319439
 20
204.0188411248679
 30
0.0
 40
3.125
 41
19.25345
 46
0.0
 71
     5
 72
     5
  1
广州方向
  7
标准（黑体）
 73
     1
 44
1.0
  0
HATCH
  5
7C9
330
1F
100
AcDbEntity
  8
里程
 62
     7
100
AcDbHatch
 10
0.0
 20
0.0
 30
0.0
210
0.0
220
0.0
230
1.0
  2
SOLID
 70
     1
 71
     0
 91
        2
 92
        7
 72
     0
 73
     1
 93
        3
 10
315.8536942315365
 20
201.2835817111279
 10
309.0768755005244
 20
201.2835817111279
 10
309.0768755005244
 20
200.2835817111279
 97
        0
 92
        7
 72
     0
 73
     1
 93
        3
 10
315.8536942315365
 20
201.2835817111279
 10
309.0768755005244
 20
202.2835817111279
 10
309.0768755005244
 20
201.2835817111279
 97
        0
 75
     0
 76
     1
 47
0.0
 98
        1
 10
-6142.625822426597
 20
327.6059383821917
450
        0
451
        0
460
0.0
461
0.0
452
        0
462
0.0
453
        2
463
0.0
 63
     5
421
      255
463
1.0
 63
   254
421
 13750783
470

  0
LINE
  5
7CA
330
1F
100
AcDbEntity
  8
里程
 62
     7
100
AcDbLine
 10
309.0768755005244
 20
202.2835817111279
 30
0.0
 11
315.8536942315365
 21
201.2835817111279
 31
0.0
  0
LINE
  5
7CB
330
1F
100
AcDbEntity
  8
里程
 62
     7
100
AcDbLine
 10
315.8536942315365
 20
201.2835817111279
 30
0.0
 11
309.0768755005244
 21
200.2835817111279
 31
0.0
  0
LINE
  5
7CC
330
1F
100
AcDbEntity
  8
里程
 62
     7
100
AcDbLine
 10
309.0768755005244
 20
200.2835817111279
 30
0.0
 11
309.0768755005244
 21
202.2835817111279
 31
0.0
  0
MTEXT
  5
81B
330
1F
100
AcDbEntity
  8
里程
 62
     7
100
AcDbMText
 10
541.5166122617461
 20
164.8140350225655
 30
0.0
 40
3.0
 41
30.9921
 46
0.0
 71
     5
 72
     5
  1
{\fSimSun|b0|i0|c134|p2;京广上行线}
  7
标准（黑体）
 73
     1
 44
1.0
  0
MTEXT
  5
81C
330
1F
100
AcDbEntity
  8
里程
 62
     7
100
AcDbMText
 10
541.5166122617461
 20
174.924695444374
 30
0.0
 40
3.0
 41
30.9921
 46
0.0
 71
     5
 72
     5
  1
{\fSimSun|b0|i0|c134|p2;京广下行线}
  7
标准（黑体）
 73
     1
 44
1.0
  0
MTEXT
  5
866
330
1F
100
AcDbEntity
  8
里程
 62
     7
100
AcDbMText
 10
179.0431279507094
 20
164.9769387727081
 30
0.0
 40
3.0
 41
30.9921
 46
0.0
 71
     5
 72
     5
  1
{\fSimSun|b0|i0|c134|p2;京广上行线}
  7
标准（黑体）
 73
     1
 44
1.0
  0
MTEXT
  5
867
330
1F
100
AcDbEntity
  8
里程
 62
     7
100
AcDbMText
 10
179.0431279507094
 20
175.0875991945165
 30
0.0
 40
3.0
 41
30.9921
 46
0.0
 71
     5
 72
     5
  1
{\fSimSun|b0|i0|c134|p2;京广下行线}
  7
标准（黑体）
 73
     1
 44
1.0
  0
LINE
  5
1407
330
1F
100
AcDbEntity
  8
0
100
AcDbLine
 10
201.904119558532
 20
174.8298821792723
 30
0.0
 11
207.8157581589977
 21
174.8298821792723
 31
0.0
  0
LINE
  5
144E
330
1F
100
AcDbEntity
  8
0
100
AcDbLine
 10
209.5723593417413
 20
164.8298666152495
 30
0.0
 11
203.4918167826571
 21
164.8298666152495
 31
0.0
  0
LINE
  5
1487
330
1F
100
AcDbEntity
  8
0
100
AcDbLine
 10
278.7202893409024
 20
185.0313570269156
 30
0.0
 11
273.2721232067133
 21
185.0313570269156
 31
0.0
  0
LINE
  5
14B8
330
1F
100
AcDbEntity
  8
0
100
AcDbLine
 10
280.709302374019
 20
174.8298821792723
 30
0.0
 11
273.3586020342401
 21
174.8298821792723
 31
0.0
  0
LINE
  5
14EE
330
1F
100
AcDbEntity
  8
0
100
AcDbLine
 10
279.2391623023185
 20
164.8298660517033
 30
0.0
 11
271.8884619662843
 21
164.8298660517033
 31
0.0
  0
LINE
  5
1512
330
1F
100
AcDbEntity
  8
0
100
AcDbLine
 10
282.5253577520818
 20
145.0313570269156
 30
0.0
 11
274.0504326544543
 21
145.0313570269156
 31
0.0
  0
LINE
  5
153B
330
1F
100
AcDbEntity
  8
0
100
AcDbLine
 10
283.0442307172426
 20
135.0313570269155
 30
0.0
 11
278.2923672360439
 21
135.0313570269155
 31
0.0
  0
LINE
  5
1690
330
1F
100
AcDbEntity
  8
站线
 62
     7
100
AcDbLine
 10
347.8038457739123
 20
185.0313570269157
 30
0.0
 11
381.3583721242179
 21
185.0313570269157
 31
0.0
  0
LINE
  5
1693
330
1F
100
AcDbEntity
  8
正线
 62
     7
100
AcDbLine
 10
347.7300552012127
 20
174.8298821792723
 30
0.0
 11
435.2055889272281
 21
174.8298821792723
 31
0.0
  0
LINE
  5
1696
330
1F
100
AcDbEntity
  8
正线
 62
     7
100
AcDbLine
 10
350.7043776771748
 20
164.8298658158079
 30
0.0
 11
429.1973822182147
 21
164.8298653315732
 31
0.0
  0
LINE
  5
169A
330
1F
100
AcDbEntity
  8
站线
 62
     7
100
AcDbLine
 10
347.7259366167693
 20
145.0313570269156
 30
0.0
 11
412.0693672852034
 21
145.0313570269156
 31
0.0
  0
LINE
  5
169F
330
1F
100
AcDbEntity
  8
站线
 62
     7
100
AcDbLine
 10
350.7249964537926
 20
135.0313570269155
 30
0.0
 11
406.5423879064829
 21
135.0313570269155
 31
0.0
  0
LINE
  5
16D9
330
1F
100
AcDbEntity
  8
0
100
AcDbLine
 10
276.792367236043
 20
128.6173582815319
 30
0.0
 11
278.2923672360439
 21
128.6173582815318
 31
0.0
  0
LINE
  5
17B5
330
1F
100
AcDbEntity
  8
站线
 62
     7
100
AcDbLine
 10
311.6523987817582
 20
185.0313570269157
 30
0.0
 11
347.8038457739123
 21
185.0313570269157
 31
0.0
  0
LINE
  5
17B8
330
1F
100
AcDbEntity
  8
正线
 62
     7
100
AcDbLine
 10
311.5986145437583
 20
174.8298821792723
 30
0.0
 11
347.7300552012127
 21
174.8298821792723
 31
0.0
  0
LINE
  5
17BB
330
1F
100
AcDbEntity
  8
正线
 62
     7
100
AcDbLine
 10
311.5813561436933
 20
164.8298660476288
 30
0.0
 11
350.7043776771748
 21
164.8298658158079
 31
0.0
  0
LINE
  5
17C0
330
1F
100
AcDbEntity
  8
站线
 62
     7
100
AcDbLine
 10
311.6027331282009
 20
145.0313570269156
 30
0.0
 11
347.7259366167693
 21
145.0313570269156
 31
0.0
  0
LINE
  5
17C3
330
1F
100
AcDbEntity
  8
站线
 62
     7
100
AcDbLine
 10
311.6019748806636
 20
135.0313570269155
 30
0.0
 11
350.7249964537926
 21
135.0313570269155
 31
0.0
  0
LINE
  5
187F
330
1F
100
AcDbEntity
  8
0
 62
     1
370
    50
100
AcDbLine
 10
388.6791642827039
 20
186.3818837417778
 30
0.0
 11
381.3583721242179
 21
186.3818837417778
 31
0.0
  0
LINE
  5
1899
330
1F
100
AcDbEntity
  8
0
 62
     1
370
    50
100
AcDbLine
 10
381.3583721242179
 20
186.3818837417778
 30
0.0
 11
381.3583721242179
 21
183.6808303120536
 31
0.0
  0
LINE
  5
18F1
330
1F
100
AcDbEntity
  8
0
 62
     1
370
    50
100
AcDbLine
 10
388.6791642827039
 20
186.3818837417778
 30
0.0
 11
388.6791642827039
 21
183.6808303120536
 31
0.0
  0
LINE
  5
18F2
330
1F
100
AcDbEntity
  8
0
 62
     1
370
    50
100
AcDbLine
 10
388.6791642827039
 20
183.6808303120536
 30
0.0
 11
381.3583721242179
 21
183.6808303120536
 31
0.0
  0
MTEXT
  5
19D5
330
1F
100
AcDbEntity
  8
股道
 62
     1
100
AcDbMText
 10
378.2401298393544
 20
190.5039098273102
 30
0.0
 40
2.5
 41
16.9539
 46
0.0
 71
     5
 72
     5
  1
轨道车A
  7
标准（黑体）
 73
     1
 44
1.0
  0
HATCH
  5
1A44
330
1F
100
AcDbEntity
  8
0
100
AcDbHatch
 10
0.0
 20
0.0
 30
0.0
210
0.0
220
0.0
230
1.0
  2
SOLID
 70
     1
 71
     1
 91
        3
 92
        7
 72
     1
 73
     1
 93
        2
 10
404.6849996843503
 20
186.7813570269157
 42
0.9999999999999999
 10
401.6849996843503
 20
186.7813570269157
 42
0.9999999999999999
 97
        1
330
494
 92
       22
 72
     1
 73
     1
 93
        2
 10
403.9349996843503
 20
186.7813570269157
 42
0.9999999999999999
 10
402.4349996843503
 20
186.7813570269157
 42
0.9999999999999999
 97
        1
330
499
 92
        6
 72
     1
 73
     1
 93
        2
 10
403.9349996843503
 20
186.7813570269157
 42
0.9999999999999999
 10
402.4349996843503
 20
186.7813570269157
 42
0.9999999999999999
 97
        1
330
499
 75
     0
 76
     1
 47
0.0
 98
        2
 10
404.2603890180494
 20
187.0763102709671
 10
403.349466592352
 20
186.9244898666842
450
        0
451
        0
460
0.0
461
0.0
452
        1
462
0.0
453
        2
463
0.0
 63
     5
421
      255
463
1.0
 63
   254
421
 13750783
470

1001
ACAD
1010
0.0
1020
0.0
1030
0.0
  0
LINE
  5
1D6A
330
1F
100
AcDbEntity
  8
0
100
AcDbLine
 10
429.5544827914955
 20
185.0313570269157
 30
0.0
 11
409.0681317810359
 21
185.0313570269157
 31
0.0
  0
LINE
  5
1DD8
330
1F
100
AcDbEntity
  8
0
 62
     3
370
    40
100
AcDbLine
 10
388.6791642827039
 20
185.0313570269157
 30
0.0
 11
407.6287663558444
 21
185.0313570269157
 31
0.0
  0
HATCH
  5
1E50
330
1F
100
AcDbEntity
  8
0
100
AcDbHatch
 10
0.0
 20
0.0
 30
0.0
210
0.0
220
0.0
230
1.0
  2
SOLID
 70
     1
 71
     1
 91
        3
 92
        7
 72
     1
 73
     1
 93
        2
 10
442.1373196066124
 20
196.7813570269157
 42
-0.9999999999999999
 10
445.1373196066124
 20
196.7813570269157
 42
-0.9999999999999999
 97
        1
330
48A
 92
       22
 72
     1
 73
     1
 93
        2
 10
444.3873196066124
 20
196.7813570269157
 42
0.9999999999999999
 10
442.8873196066124
 20
196.7813570269157
 42
0.9999999999999999
 97
        1
330
48F
 92
        6
 72
     1
 73
     1
 93
        2
 10
444.3873196066124
 20
196.7813570269157
 42
0.9999999999999999
 10
442.8873196066124
 20
196.7813570269157
 42
0.9999999999999999
 97
        1
330
48F
 75
     0
 76
     1
 47
0.0
 98
        2
 10
444.2634077389428
 20
195.8928572875389
 10
443.7537567235889
 20
196.5452105871919
450
        0
451
        0
460
0.0
461
0.0
452
        1
462
0.0
453
        2
463
0.0
 63
     5
421
      255
463
1.0
 63
   254
421
 13750783
470

1001
ACAD
1010
0.0
1020
0.0
1030
0.0
  0
LINE
  5
1EAF
330
1F
100
AcDbEntity
  8
0
 62
     3
370
    40
100
AcDbLine
 10
444.2809523882398
 20
195.0313570269156
 30
0.0
 11
414.9129313260764
 21
195.0313570269157
 31
0.0
  0
LINE
  5
1F92
330
1F
100
AcDbEntity
  8
正线
 62
     7
100
AcDbLine
 10
504.3488165825634
 20
174.8298821792723
 30
0.0
 11
529.5509156302172
 21
174.8298821792723
 31
0.0
  0
LINE
  5
2095
330
1F
100
AcDbEntity
  8
0
 62
     3
370
    40
100
AcDbLine
 10
459.4320585239702
 20
174.8298821792723
 30
0.0
 11
476.2612185442223
 21
174.8298821792723
 31
0.0
  0
HATCH
  5
20E1
330
1F
100
AcDbEntity
  8
0
100
AcDbHatch
 10
0.0
 20
0.0
 30
0.0
210
0.0
220
0.0
230
1.0
  2
SOLID
 70
     1
 71
     1
 91
        3
 92
        7
 72
     1
 73
     1
 93
        2
 10
471.0952374026792
 20
176.7813570269156
 42
-0.9999999999999999
 10
474.0952374026792
 20
176.7813570269156
 42
-0.9999999999999999
 97
        1
330
4D1
 92
       22
 72
     1
 73
     1
 93
        2
 10
473.3452374026792
 20
176.7813570269156
 42
0.9999999999999999
 10
471.8452374026792
 20
176.7813570269156
 42
0.9999999999999999
 97
        1
330
4D2
 92
        6
 72
     1
 73
     1
 93
        2
 10
473.3452374026792
 20
176.7813570269156
 42
0.9999999999999999
 10
471.8452374026792
 20
176.7813570269156
 42
0.9999999999999999
 97
        1
330
4D2
 75
     0
 76
     1
 47
0.0
 98
        2
 10
473.4864266544907
 20
176.1807802489642
 10
472.6561588185687
 20
176.6767844106839
450
        0
451
        0
460
0.0
461
0.0
452
        1
462
0.0
453
        2
463
0.0
 63
     5
421
      255
463
1.0
 63
   254
421
 13750783
470

1001
ACAD
1010
0.0
1020
0.0
1030
0.0
  0
MTEXT
  5
258F
330
1F
100
AcDbEntity
  8
0
100
AcDbMText
 10
407.254248987074
 20
184.7485667028365
 30
0.0
 40
0.5
 41
0.5770229231060853
 46
0.0
 71
     1
 72
     1
  1
{\fVerdana|b0|i0|c0|p0;\C3;26}
 73
     1
 44
1.0
  0
MTEXT
  5
25D6
330
1F
100
AcDbEntity
  8
0
100
AcDbMText
 10
408.6638888797629
 20
186.2762716823115
 30
0.0
 40
0.5
 41
0.5770229231060853
 46
0.0
 71
     1
 72
     1
  1
{\fVerdana|b0|i0|c0|p0;\C3;26(1)}
 73
     1
 44
1.0
  0
MTEXT
  5
262A
330
1F
100
AcDbEntity
  8
0
100
AcDbMText
 10
408.7723227176621
 20
184.8168994369663
 30
0.0
 40
0.5
 41
0.5770229231060853
 46
0.0
 71
     1
 72
     1
  1
{\fVerdana|b0|i0|c0|p0;\C3;26(2)}
 73
     1
 44
1.0
  0
MTEXT
  5
269C
330
1F
100
AcDbEntity
  8
0
100
AcDbMText
 10
414.4020179770737
 20
195.8516224791261
 30
0.0
 40
0.5
 41
0.5770229231060853
 46
0.0
 71
     1
 72
     1
  1
{\fVerdana|b0|i0|c0|p0;\C3;27}
 73
     1
 44
1.0
  0
MTEXT
  5
281F
330
1F
100
AcDbEntity
  8
0
100
AcDbMText
 10
445.6342073846052
 20
195.8751802570889
 30
0.0
 40
0.5
 41
0.5770229231060853
 46
0.0
 71
     1
 72
     1
  1
{\fVerdana|b0|i0|c0|p0;\C3;12(1)}
 73
     1
 44
1.0
  0
MTEXT
  5
286F
330
1F
100
AcDbEntity
  8
0
100
AcDbMText
 10
445.5784414108282
 20
194.202201043788
 30
0.0
 40
0.5
 41
0.5770229231060853
 46
0.0
 71
     1
 72
     1
  1
{\fVerdana|b0|i0|c0|p0;\C3;12(2)}
 73
     1
 44
1.0
  0
MTEXT
  5
2A04
330
1F
100
AcDbEntity
  8
0
100
AcDbMText
 10
496.423356502596
 20
195.6359864076194
 30
0.0
 40
1.5
 41
0.0
 46
0.0
 71
     1
 72
     1
  1
{\fVerdana|b0|i0|c0|p0;\C3;7}
 73
     1
 44
1.0
  0
MTEXT
  5
2B0C
330
1F
100
AcDbEntity
  8
0
100
AcDbMText
 10
427.9213393315323
 20
184.504074897151
 30
0.0
 40
1.5
 41
0.5770229231060853
 46
0.0
 71
     1
 72
     1
  1
{\fVerdana|b0|i0|c0|p0;\C3;3}
 73
     1
 44
1.0
  0
LINE
  5
2D8A
330
1F
100
AcDbEntity
  8
正线
 62
     7
100
AcDbLine
 10
437.2055889272281
 20
174.8298821792723
 30
0.0
 11
449.7941789192458
 21
174.8298821792723
 31
0.0
  0
LINE
  5
3220
330
1F
100
AcDbEntity
  8
0
100
AcDbLine
 10
445.7060796150526
 20
182.0634603040876
 30
0.0
 11
441.7060796150526
 21
182.0634603040876
 31
0.0
  0
MTEXT
  5
32CA
330
1F
100
AcDbEntity
  8
0
100
AcDbMText
 10
433.6452170239015
 20
176.8731864240708
 30
0.0
 40
0.5
 41
0.5770229231060853
 46
0.0
 71
     1
 72
     1
  1
{\fVerdana|b0|i0|c0|p0;\C3;24(1)}
 73
     1
 44
1.0
  0
MTEXT
  5
331A
330
1F
100
AcDbEntity
  8
0
100
AcDbMText
 10
433.6740576083195
 20
174.1910120732111
 30
0.0
 40
0.5
 41
0.5770229231060853
 46
0.0
 71
     1
 72
     1
  1
{\fVerdana|b0|i0|c0|p0;\C3;24(2)}
 73
     1
 44
1.0
  0
MTEXT
  5
3535
330
1F
100
AcDbEntity
  8
0
100
AcDbMText
 10
455.5171139537754
 20
176.8294852828139
 30
0.0
 40
0.5
 41
0.5770229231060853
 46
0.0
 71
     1
 72
     1
  1
{\fVerdana|b0|i0|c0|p0;\C3;10(1)}
 73
     1
 44
1.0
  0
MTEXT
  5
3585
330
1F
100
AcDbEntity
  8
0
100
AcDbMText
 10
456.1883130093179
 20
174.3963887064719
 30
0.0
 40
0.5
 41
0.5770229231060853
 46
0.0
 71
     1
 72
     1
  1
{\fVerdana|b0|i0|c0|p0;\C3;10(2)}
 73
     1
 44
1.0
  0
LINE
  5
385B
330
1F
100
AcDbEntity
  8
0
 62
     3
370
    40
100
AcDbLine
 10
478.2612185442223
 20
174.8298821792723
 30
0.0
 11
504.3488165825634
 21
174.8298821792723
 31
0.0
  0
MTEXT
  5
38F9
330
1F
100
AcDbEntity
  8
0
100
AcDbMText
 10
477.9875864651224
 20
175.6710071566859
 30
0.0
 40
0.5
 41
0.5770229231060853
 46
0.0
 71
     1
 72
     1
  1
{\fVerdana|b0|i0|c0|p0;\C3;8(1)}
 73
     1
 44
1.0
  0
MTEXT
  5
3949
330
1F
100
AcDbEntity
  8
0
100
AcDbMText
 10
478.3025409062361
 20
173.5311696302963
 30
0.0
 40
0.5
 41
0.5770229231060853
 46
0.0
 71
     1
 72
     1
  1
{\fVerdana|b0|i0|c0|p0;\C3;8(2)}
 73
     1
 44
1.0
  0
LINE
  5
3A81
330
1F
100
AcDbEntity
  8
正线
 62
     7
100
AcDbLine
 10
483.7612314081354
 20
164.8298650273881
 30
0.0
 11
529.5509156302173
 21
164.8298647560644
 31
0.0
  0
MTEXT
  5
3B00
330
1F
100
AcDbEntity
  8
0
100
AcDbMText
 10
480.5219621583034
 20
166.7265660354311
 30
0.0
 40
0.5
 41
0.5770229231060853
 46
0.0
 71
     1
 72
     1
  1
{\fVerdana|b0|i0|c0|p0;\C3;6(1)}
 73
     1
 44
1.0
  0
MTEXT
  5
3B36
330
1F
100
AcDbEntity
  8
0
100
AcDbMText
 10
480.3085342076193
 20
163.9520026765384
 30
0.0
 40
0.5
 41
0.5770229231060853
 46
0.0
 71
     1
 72
     1
  1
{\fVerdana|b0|i0|c0|p0;\C3;6(2)}
 73
     1
 44
1.0
  0
LINE
  5
3C95
330
1F
100
AcDbEntity
  8
正线
 62
     7
100
AcDbLine
 10
451.7941789192458
 20
174.8298821792723
 30
0.0
 11
457.4320585239702
 21
174.8298821792723
 31
0.0
  0
LINE
  5
3D43
330
1F
100
AcDbEntity
  8
正线
 62
     7
100
AcDbLine
 10
446.2671868001127
 20
164.8298652529471
 30
0.0
 11
481.7612314081354
 21
164.8298650273881
 31
0.0
  0
MTEXT
  5
3D94
330
1F
100
AcDbEntity
  8
0
100
AcDbMText
 10
448.2499455933067
 20
175.7996016469606
 30
0.0
 40
0.5
 41
0.5770229231060853
 46
0.0
 71
     1
 72
     1
  1
{\fVerdana|b0|i0|c0|p0;\C3;14(1)}
 73
     1
 44
1.0
  0
MTEXT
  5
3DDB
330
1F
100
AcDbEntity
  8
0
100
AcDbMText
 10
448.394790951252
 20
173.611931467482
 30
0.0
 40
0.5
 41
0.5770229231060853
 46
0.0
 71
     1
 72
     1
  1
{\fVerdana|b0|i0|c0|p0;\C3;14(2)}
 73
     1
 44
1.0
  0
MTEXT
  5
4021
330
1F
100
AcDbEntity
  8
0
100
AcDbMText
 10
446.6361190370399
 20
167.4632487175014
 30
0.0
 40
0.5
 41
0.5770229231060853
 46
0.0
 71
     1
 72
     1
  1
{\fVerdana|b0|i0|c0|p0;\C3;16(1)}
 73
     1
 44
1.0
  0
MTEXT
  5
4057
330
1F
100
AcDbEntity
  8
0
100
AcDbMText
 10
446.4981454123552
 20
163.9587186505115
 30
0.0
 40
0.5
 41
0.5770229231060853
 46
0.0
 71
     1
 72
     1
  1
{\fVerdana|b0|i0|c0|p0;\C3;16(2)}
 73
     1
 44
1.0
  0
LINE
  5
414B
330
1F
100
AcDbEntity
  8
正线
 62
     7
100
AcDbLine
 10
431.1973822182147
 20
164.8298653315732
 30
0.0
 11
444.2671868001127
 21
164.8298652529471
 31
0.0
  0
LINE
  5
418D
330
1F
100
AcDbEntity
  8
站线
 62
     7
100
AcDbLine
 10
414.0693672852034
 20
145.0313570269156
 30
0.0
 11
416.2950858443555
 21
145.0313570269156
 31
0.0
  0
LINE
  5
41BC
330
1F
100
AcDbEntity
  8
0
100
AcDbLine
 10
409.5259454822926
 20
145.6754593356029
 30
0.0
 11
408.0259454822926
 21
145.6754593356029
 31
0.0
  0
LINE
  5
43C4
330
1F
100
AcDbEntity
  8
0
100
AcDbLine
 10
400.1812203508443
 20
135.6797851102634
 30
0.0
 11
398.6812203508443
 21
135.6797851102634
 31
0.0
  0
MTEXT
  5
4468
330
1F
100
AcDbEntity
  8
0
100
AcDbMText
 10
428.5422999058728
 20
165.9465741815185
 30
0.0
 40
0.5
 41
0.5770229231060853
 46
0.0
 71
     1
 72
     1
  1
{\fVerdana|b0|i0|c0|p0;\C3;18(1)}
 73
     1
 44
1.0
  0
MTEXT
  5
44BB
330
1F
100
AcDbEntity
  8
0
100
AcDbMText
 10
427.763923809696
 20
163.6763105676692
 30
0.0
 40
0.5
 41
0.5770229231060853
 46
0.0
 71
     1
 72
     1
  1
{\fVerdana|b0|i0|c0|p0;\C3;18(2)}
 73
     1
 44
1.0
  0
MTEXT
  5
461B
330
1F
100
AcDbEntity
  8
0
100
AcDbMText
 10
409.8162463937376
 20
144.6158518584072
 30
0.0
 40
0.5
 41
0.5770229231060853
 46
0.0
 71
     1
 72
     1
  1
{\fVerdana|b0|i0|c0|p0;\C3;22(1)}
 73
     1
 44
1.0
  0
MTEXT
  5
466E
330
1F
100
AcDbEntity
  8
0
100
AcDbMText
 10
409.7865939710258
 20
143.266666625034
 30
0.0
 40
0.5
 41
0.5770229231060853
 46
0.0
 71
     1
 72
     1
  1
{\fVerdana|b0|i0|c0|p0;\C3;22(2)}
 73
     1
 44
1.0
  0
MTEXT
  5
481D
330
1F
100
AcDbEntity
  8
0
100
AcDbMText
 10
417.0514375353437
 20
145.1347692558588
 30
0.0
 40
1.0
 41
0.5770229231060853
 46
0.0
 71
     1
 72
     1
  1
{\fVerdana|b0|i0|c0|p0;\C3;21}
 73
     1
 44
1.0
  0
MTEXT
  5
486A
330
1F
100
AcDbEntity
  8
0
100
AcDbMText
 10
413.8934545165687
 20
144.6306780697632
 30
0.0
 40
1.0
 41
0.5770229231060853
 46
0.0
 71
     1
 72
     1
  1
{\fVerdana|b0|i0|c0|p0;\C3;22}
 73
     1
 44
1.0
  0
MTEXT
  5
4902
330
1F
100
AcDbEntity
  8
0
100
AcDbMText
 10
406.6912368690174
 20
134.8439158120831
 30
0.0
 40
1.0
 41
0.5770229231060853
 46
0.0
 71
     1
 72
     1
  1
{\fVerdana|b0|i0|c0|p0;\C3;23}
 73
     1
 44
1.0
  0
ENDSEC
  0
SECTION
  2
OBJECTS
  0
DICTIONARY
  5
C
330
0
100
AcDbDictionary
281
     1
  3
ACAD_COLOR
350
6C
  3
ACAD_DETAILVIEWSTYLE
350
49B4
  3
ACAD_GROUP
350
D
  3
ACAD_LAYOUT
350
1A
  3
ACAD_MATERIAL
350
6B
  3
ACAD_MLEADERSTYLE
350
DE
  3
ACAD_MLINESTYLE
350
17
  3
ACAD_PLOTSETTINGS
350
19
  3
ACAD_PLOTSTYLENAME
350
E
  3
ACAD_SCALELIST
350
B7
  3
ACAD_SECTIONVIEWSTYLE
350
49B5
  3
ACAD_TABLESTYLE
350
92
  3
ACAD_VISUALSTYLE
350
4997
  3
ACAD_WIPEOUT_VARS
350
99
  3
ACDB_RECOMPOSE_DATA
350
49B3
  3
AcDbVariableDictionary
350
59
  0
DICTIONARY
  5
F7
330
F6
100
AcDbDictionary
280
     1
281
     1
  3
ADSK_XREC_LAYER_RECONCILED
360
F8
  0
DICTIONARY
  5
FF
330
FE
100
AcDbDictionary
280
     1
281
     1
  3
ADSK_XREC_LAYER_RECONCILED
360
100
  0
DICTIONARY
  5
111
330
110
100
AcDbDictionary
280
     1
281
     1
  3
ADSK_XREC_LAYER_RECONCILED
360
112
  0
DICTIONARY
  5
12E
330
12D
100
AcDbDictionary
280
     1
281
     1
  3
ADSK_XREC_LAYER_RECONCILED
360
12F
  0
DICTIONARY
  5
134
330
133
100
AcDbDictionary
280
     1
281
     1
  3
ADSK_XREC_LAYER_RECONCILED
360
135
  0
DICTIONARY
  5
152
330
151
100
AcDbDictionary
280
     1
281
     1
  3
ADSK_XREC_LAYER_RECONCILED
360
153
  0
DICTIONARY
  5
192
330
191
100
AcDbDictionary
280
     1
281
     1
  3
ADSK_XREC_LAYER_RECONCILED
360
193
  0
DICTIONARY
  5
349
330
348
100
AcDbDictionary
280
     1
281
     1
  3
ADSK_XREC_LAYER_RECONCILED
360
34A
  0
DICTIONARY
  5
1A45
330
1F
100
AcDbDictionary
281
     1
  3
ACAD_SORTENTS
360
1A46
  0
DICTIONARY
  5
6C
102
{ACAD_REACTORS
330
C
102
}
330
C
100
AcDbDictionary
281
     1
  0
DICTIONARY
  5
49B4
102
{ACAD_REACTORS
330
C
102
}
330
C
100
AcDbDictionary
281
     1
  0
DICTIONARY
  5
D
102
{ACAD_REACTORS
330
C
102
}
330
C
100
AcDbDictionary
281
     1
  0
DICTIONARY
  5
1A
102
{ACAD_REACTORS
330
C
102
}
330
C
100
AcDbDictionary
281
     1
  3
Model
350
22
  3
布局1
350
1E
  3
布局2
350
26
  0
DICTIONARY
  5
6B
102
{ACAD_REACTORS
330
C
102
}
330
C
100
AcDbDictionary
281
     1
  3
ByBlock
350
49B0
  3
BYLAYER
350
375
  3
GLOBAL
350
F9
  0
DICTIONARY
  5
DE
102
{ACAD_REACTORS
330
C
102
}
330
C
100
AcDbDictionary
281
     1
  3
Standard
350
E1
  0
DICTIONARY
  5
17
102
{ACAD_REACTORS
330
C
102
}
330
C
100
AcDbDictionary
281
     1
  3
Standard
350
18
  0
DICTIONARY
  5
19
102
{ACAD_REACTORS
330
C
102
}
330
C
100
AcDbDictionary
281
     1
  0
ACDBDICTIONARYWDFLT
  5
E
102
{ACAD_REACTORS
330
C
102
}
330
C
100
AcDbDictionary
281
     1
  3
Normal
350
F
100
AcDbDictionaryWithDefault
340
F
  0
DICTIONARY
  5
B7
102
{ACAD_REACTORS
330
C
102
}
330
C
100
AcDbDictionary
281
     1
  3
A0
350
B8
  3
A1
350
B9
  3
A2
350
BA
  3
A3
350
BB
  3
A4
350
BC
  3
A5
350
BD
  3
A6
350
BE
  3
A7
350
BF
  3
A8
350
C0
  3
A9
350
C1
  3
B0
350
C2
  3
B1
350
C3
  3
B2
350
C4
  3
B3
350
C5
  3
B4
350
C6
  3
B5
350
C7
  3
B6
350
C8
  3
B7
350
C9
  3
B8
350
CA
  3
B9
350
CB
  3
C0
350
CC
  3
C1
350
CD
  3
C2
350
CE
  3
C3
350
CF
  3
C4
350
D0
  3
C5
350
D1
  3
C6
350
D2
  3
C7
350
D3
  3
C8
350
D4
  3
C9
350
D5
  3
D0
350
D6
  3
D1
350
D7
  3
D2
350
D8
  0
DICTIONARY
  5
49B5
102
{ACAD_REACTORS
330
C
102
}
330
C
100
AcDbDictionary
281
     1
  0
DICTIONARY
  5
92
102
{ACAD_REACTORS
330
C
102
}
330
C
100
AcDbDictionary
281
     1
  3
Standard
350
93
  0
DICTIONARY
  5
4997
102
{ACAD_REACTORS
330
C
102
}
330
C
100
AcDbDictionary
281
     1
  3
2dWireframe
350
499C
  3
Basic
350
499F
  3
Brighten
350
49A3
  3
ColorChange
350
49A7
  3
Conceptual
350
49A1
  3
Dim
350
49A2
  3
EdgeColorOff
350
49AA
  3
Facepattern
350
49A6
  3
Flat
350
4998
  3
FlatWithEdges
350
4999
  3
Gouraud
350
499A
  3
GouraudWithEdges
350
499B
  3
Hidden
350
499E
  3
JitterOff
350
49A8
  3
Linepattern
350
49A5
  3
OverhangOff
350
49A9
  3
Realistic
350
49A0
  3
Shaded
350
49AF
  3
Shaded with edges
350
49AE
  3
Shades of Gray
350
49AB
  3
Sketchy
350
49AC
  3
Thicken
350
49A4
  3
Wireframe
350
499D
  3
X-Ray
350
49AD
  0
WIPEOUTVARIABLES
  5
99
102
{ACAD_REACTORS
330
C
102
}
330
C
100
AcDbWipeoutVariables
 70
     1
  0
XRECORD
  5
49B3
102
{ACAD_REACTORS
330
C
102
}
330
C
100
AcDbXrecord
280
     1
 90
        1
330
93
  0
DICTIONARY
  5
59
102
{ACAD_REACTORS
330
C
102
}
330
C
100
AcDbDictionary
281
     1
  3
CANNOSCALE
350
DD
  3
CMLEADERSTYLE
350
E9
  3
CTABLESTYLE
350
98
  3
DIMASSOC
350
43
  3
HIDETEXT
350
5E
  3
PROJECTNAME
350
B6
  3
XCLIPFRAME
350
E2
  0
XRECORD
  5
F8
102
{ACAD_REACTORS
330
F7
102
}
330
F7
100
AcDbXrecord
280
     1
290
     1
  0
XRECORD
  5
100
102
{ACAD_REACTORS
330
FF
102
}
330
FF
100
AcDbXrecord
280
     1
290
     1
  0
XRECORD
  5
112
102
{ACAD_REACTORS
330
111
102
}
330
111
100
AcDbXrecord
280
     1
290
     1
  0
XRECORD
  5
12F
102
{ACAD_REACTORS
330
12E
102
}
330
12E
100
AcDbXrecord
280
     1
290
     1
  0
XRECORD
  5
135
102
{ACAD_REACTORS
330
134
102
}
330
134
100
AcDbXrecord
280
     1
290
     1
  0
XRECORD
  5
153
102
{ACAD_REACTORS
330
152
102
}
330
152
100
AcDbXrecord
280
     1
290
     1
  0
XRECORD
  5
193
102
{ACAD_REACTORS
330
192
102
}
330
192
100
AcDbXrecord
280
     1
290
     1
  0
XRECORD
  5
34A
102
{ACAD_REACTORS
330
349
102
}
330
349
100
AcDbXrecord
280
     1
290
     1
  0
SORTENTSTABLE
  5
1A46
102
{ACAD_REACTORS
330
1A45
102
}
330
1A45
100
AcDbSortentsTable
330
1F
331
0
  5
4B8
331
48A
  5
48B
331
48B
  5
48C
331
48C
  5
48D
331
48D
  5
48E
331
48E
  5
48F
331
48F
  5
490
331
490
  5
491
331
491
  5
492
331
492
  5
493
331
493
  5
494
331
494
  5
496
331
495
  5
497
331
496
  5
498
331
497
  5
499
331
498
  5
49A
331
499
  5
49B
331
49A
  5
49C
331
49B
  5
49D
331
49D
  5
49F
331
49E
  5
4A0
331
49F
  5
4A1
331
4A0
  5
4A2
331
4A1
  5
4A3
331
4A2
  5
4A4
331
4A3
  5
4A5
331
4A4
  5
4A6
331
4A5
  5
4A7
331
4A6
  5
4A8
331
4A7
  5
4A9
331
4A8
  5
4AA
331
4A9
  5
4AB
331
4AA
  5
4AC
331
4AB
  5
4AD
331
4AC
  5
4AE
331
4AD
  5
4AF
331
4AE
  5
4B0
331
4AF
  5
4B1
331
4B0
  5
4B2
331
4B1
  5
4B3
331
4B2
  5
4B4
331
4B3
  5
4B5
331
4B4
  5
4B6
331
4B5
  5
4B7
331
4BF
  5
4C1
331
4C0
  5
4C2
331
4C1
  5
4C3
331
4C2
  5
4C4
331
4C4
  5
4C6
331
4C6
  5
4C8
331
4C8
  5
4CA
331
4C9
  5
4CB
331
4CA
  5
4CC
331
4CB
  5
4CD
331
4CC
  5
4CE
331
4CD
  5
4CF
331
4CE
  5
4D0
331
4CF
  5
4D1
331
4D0
  5
4D2
331
4D1
  5
4D4
331
4D2
  5
4D5
331
4D3
  5
4D6
331
4D4
  5
4D7
331
4D5
  5
4D8
331
4D6
  5
4D9
331
4D7
  5
4DA
331
4D8
  5
4DB
331
4D9
  5
4DC
331
4DA
  5
4DD
331
4DB
  5
4DE
331
4DC
  5
4DF
331
4DD
  5
4E0
331
4E0
  5
4E3
331
4E1
  5
4E4
331
4E2
  5
4E5
331
4E3
  5
4E6
331
4E4
  5
4E7
331
4E5
  5
4E8
331
4E6
  5
4E9
331
4E7
  5
4EA
331
4E8
  5
4EB
331
4E9
  5
4EC
331
4EA
  5
4ED
331
4EB
  5
4EE
331
4EC
  5
4EF
331
4ED
  5
4F0
331
4EE
  5
4F1
331
4EF
  5
4F2
331
503
  5
506
331
509
  5
50C
331
50A
  5
50D
331
50B
  5
50E
331
50C
  5
50F
331
50D
  5
510
331
50E
  5
511
331
50F
  5
512
331
510
  5
513
331
511
  5
514
331
512
  5
515
331
527
  5
52A
331
528
  5
52B
331
529
  5
52C
331
52A
  5
52D
331
52B
  5
52E
331
52C
  5
52F
331
52D
  5
530
331
52E
  5
531
331
52F
  5
532
331
530
  5
533
331
532
  5
535
331
533
  5
536
331
540
  5
543
331
541
  5
544
331
542
  5
545
331
543
  5
546
331
544
  5
547
331
545
  5
548
331
546
  5
549
331
547
  5
54A
331
548
  5
54B
331
549
  5
54C
331
54A
  5
54D
331
54B
  5
54E
331
54C
  5
54F
331
54D
  5
550
331
54E
  5
551
331
54F
  5
552
331
550
  5
553
331
551
  5
554
331
552
  5
555
331
553
  5
556
331
554
  5
557
331
555
  5
558
331
556
  5
559
331
557
  5
55A
331
558
  5
55B
331
559
  5
55C
331
55A
  5
55D
331
55B
  5
55E
331
55C
  5
55F
331
55D
  5
560
331
55E
  5
561
331
55F
  5
562
331
560
  5
563
331
561
  5
564
331
562
  5
565
331
563
  5
566
331
564
  5
567
331
565
  5
568
331
566
  5
569
331
567
  5
56A
331
568
  5
56B
331
569
  5
56C
331
56A
  5
56D
331
56B
  5
56E
331
56C
  5
56F
331
56D
  5
570
331
56E
  5
571
331
56F
  5
572
331
570
  5
573
331
571
  5
574
331
572
  5
575
331
573
  5
576
331
574
  5
577
331
575
  5
578
331
576
  5
579
331
577
  5
57A
331
578
  5
57B
331
579
  5
57C
331
57A
  5
57D
331
57B
  5
57E
331
57C
  5
57F
331
57D
  5
580
331
57E
  5
581
331
57F
  5
582
331
580
  5
583
331
581
  5
584
331
582
  5
585
331
583
  5
586
331
584
  5
587
331
585
  5
588
331
586
  5
589
331
587
  5
58A
331
588
  5
58B
331
589
  5
58C
331
58A
  5
58D
331
58B
  5
58E
331
58C
  5
58F
331
58D
  5
590
331
58E
  5
591
331
58F
  5
592
331
590
  5
593
331
591
  5
594
331
592
  5
595
331
593
  5
596
331
594
  5
597
331
595
  5
598
331
596
  5
599
331
597
  5
59A
331
598
  5
59B
331
599
  5
59C
331
59A
  5
59D
331
59B
  5
59E
331
59C
  5
59F
331
59D
  5
5A0
331
59E
  5
5A1
331
59F
  5
5A2
331
5A0
  5
5A3
331
5A1
  5
5A4
331
5A2
  5
5A5
331
5A3
  5
5A6
331
5A4
  5
5A7
331
5A5
  5
5A8
331
5A6
  5
5A9
331
5A7
  5
5AA
331
5A8
  5
5AB
331
5A9
  5
5AC
331
5AA
  5
5AD
331
5AB
  5
5AE
331
5AC
  5
5AF
331
5AD
  5
5B0
331
5AE
  5
5B1
331
5AF
  5
5B2
331
5B0
  5
5B3
331
5B1
  5
5B4
331
5B2
  5
5B5
331
5B3
  5
5B6
331
5B4
  5
5B7
331
5B5
  5
5B8
331
5B6
  5
5B9
331
5B7
  5
5BA
331
5B8
  5
5BB
331
5B9
  5
5BC
331
5BA
  5
5BD
331
5BB
  5
5BE
331
5BC
  5
5BF
331
5BD
  5
5C0
331
5BE
  5
5C1
331
5BF
  5
5C2
331
5C0
  5
5C3
331
5C1
  5
5C4
331
5C2
  5
5C5
331
5C3
  5
5C6
331
5C4
  5
5D1
331
5C5
  5
5D2
331
5C6
  5
5D3
331
5D1
  5
5D4
331
5D2
  5
5D5
331
5D3
  5
7C7
331
5D4
  5
7C8
331
5D5
  5
7C9
331
7C7
  5
7CA
331
7C8
  5
7CB
331
7C9
  5
7CC
331
7CA
  5
81B
331
7CB
  5
81C
331
7CC
  5
866
331
81B
  5
867
331
81C
  5
8BF
331
866
  5
A88
331
867
  5
EE5
331
1407
  5
14B8
331
144E
  5
14EE
331
1487
  5
1512
331
14B8
  5
153B
331
14EE
  5
15EF
331
1512
  5
15F0
331
153B
  5
15F1
331
1690
  5
169A
331
1693
  5
169F
331
1696
  5
16D9
331
169A
  5
17B5
331
169F
  5
17B8
331
16D9
  5
17BB
331
17B5
  5
17C0
331
17B8
  5
17C3
331
17BB
  5
17F5
331
17C0
  5
183A
331
17C3
  5
187F
331
187F
  5
18F2
331
1899
  5
18F3
331
18F1
  5
19D5
331
18F2
  5
1A41
331
19D5
  5
1A43
331
1A44
  5
495
331
1D6A
  5
1E4C
331
1DD8
  5
1E4D
331
1E50
  5
48A
331
1EAF
  5
1F92
331
1F92
  5
2095
331
2095
  5
20DD
331
20E1
  5
4D3
  0
LAYOUT
  5
22
102
{ACAD_REACTORS
330
1A
102
}
102
{ACAD_XDICTIONARY
360
B2
102
}
330
1A
100
AcDbPlotSettings
  1

  2
none_device
  4
none_user_media
  6

 40
6.349999904632568
 41
6.349999904632568
 42
6.350006103515625
 43
6.350006103515625
 44
215.8999938964844
 45
279.3999938964844
 46
0.0
 47
67.3
 48
0.0
 49
0.0
140
0.0
141
0.0
142
1.0
143
2.653339271834874
 70
 11285
 72
     1
 73
     0
 74
     0
  7

 75
     0
 76
     0
 77
     2
 78
   300
147
0.3768835785965909
148
0.0164422551733878
149
0.0106888522248596
100
AcDbLayout
  1
Model
 70
     1
 71
     0
 10
0.0
 20
0.0
 11
420.0
 21
297.0
 12
0.0
 22
0.0
 32
0.0
 14
1.000000000000000E+20
 24
1.000000000000000E+20
 34
1.000000000000000E+20
 15
-1.000000000000000E+20
 25
-1.000000000000000E+20
 35
-1.000000000000000E+20
146
0.0
 13
0.0
 23
0.0
 33
0.0
 16
1.0
 26
0.0
 36
0.0
 17
0.0
 27
1.0
 37
0.0
 76
     0
330
1F
331
AD
  0
LAYOUT
  5
1E
102
{ACAD_REACTORS
330
1A
102
}
102
{ACAD_XDICTIONARY
360
B0
102
}
330
1A
100
AcDbPlotSettings
  1

  2
none_device
  4

  6

 40
0.0
 41
0.0
 42
0.0
 43
0.0
 44
0.0
 45
0.0
 46
0.0
 47
0.0
 48
0.0
 49
0.0
140
0.0
141
0.0
142
1.0
143
1.0
 70
   688
 72
     1
 73
     1
 74
     5
  7

 75
    16
 76
     0
 77
     2
 78
   300
147
1.0
148
0.0
149
0.0
100
AcDbLayout
  1
布局1
 70
     1
 71
     1
 10
-20.0
 20
-7.5
 11
277.0
 21
202.5
 12
0.0
 22
0.0
 32
0.0
 14
1.000000000000000E+20
 24
1.000000000000000E+20
 34
1.000000000000000E+20
 15
-1.000000000000000E+20
 25
-1.000000000000000E+20
 35
-1.000000000000000E+20
146
0.0
 13
0.0
 23
0.0
 33
0.0
 16
1.0
 26
0.0
 36
0.0
 17
0.0
 27
1.0
 37
0.0
 76
     0
330
73
  0
LAYOUT
  5
26
102
{ACAD_REACTORS
330
1A
102
}
102
{ACAD_XDICTIONARY
360
B4
102
}
330
1A
100
AcDbPlotSettings
  1

  2
none_device
  4

  6

 40
0.0
 41
0.0
 42
0.0
 43
0.0
 44
0.0
 45
0.0
 46
0.0
 47
0.0
 48
0.0
 49
0.0
140
0.0
141
0.0
142
1.0
143
1.0
 70
   688
 72
     0
 73
     0
 74
     5
  7

 75
    16
 76
     0
 77
     2
 78
   300
147
1.0
148
0.0
149
0.0
100
AcDbLayout
  1
布局2
 70
     1
 71
     2
 10
0.0
 20
0.0
 11
12.0
 21
9.0
 12
0.0
 22
0.0
 32
0.0
 14
0.0
 24
0.0
 34
0.0
 15
0.0
 25
0.0
 35
0.0
146
0.0
 13
0.0
 23
0.0
 33
0.0
 16
1.0
 26
0.0
 36
0.0
 17
0.0
 27
1.0
 37
0.0
 76
     0
330
23
  0
MATERIAL
  5
49B0
102
{ACAD_REACTORS
330
6B
102
}
330
6B
100
AcDbMaterial
  1
ByBlock
 72
     1
 94
      127
  0
MATERIAL
  5
375
102
{ACAD_REACTORS
330
6B
102
}
102
{ACAD_XDICTIONARY
360
376
102
}
330
6B
100
AcDbMaterial
  1
BYLAYER
 72
     1
 94
       63
  0
MATERIAL
  5
F9
102
{ACAD_REACTORS
330
6B
102
}
102
{ACAD_XDICTIONARY
360
FA
102
}
330
6B
100
AcDbMaterial
  1
GLOBAL
 72
     1
 94
       63
  0
MLEADERSTYLE
  5
E1
102
{ACAD_REACTORS
330
DE
102
}
330
DE
100
AcDbMLeaderStyle
179
     2
170
     2
171
     1
172
     0
 90
        2
 40
0.0
 41
0.0
173
     1
 91
-1056964608
340
15
 92
       -2
290
     1
 42
2.0
291
     1
 43
8.0
  3
Standard
341
0
 44
4.0
300

342
11
174
     1
178
     6
175
     1
176
     0
 93
-1056964608
 45
4.0
292
     0
297
     0
 46
4.0
343
0
 94
-1056964608
 47
1.0
 49
1.0
140
1.0
293
     1
141
0.0
294
     1
177
     0
142
1.0
295
     0
296
     0
143
3.75
271
     0
272
     9
273
     9
298
     0
1001
ACAD_MLEADERVER
1070
     2
  0
MLINESTYLE
  5
18
102
{ACAD_REACTORS
330
17
102
}
330
17
100
AcDbMlineStyle
  2
STANDARD
 70
     0
  3

 62
    18
 51
90.0
 52
90.0
 71
     2
 49
0.5
 62
   256
  6
BYLAYER
 49
-0.5
 62
   256
  6
BYLAYER
  0
ACDBPLACEHOLDER
  5
F
102
{ACAD_REACTORS
330
E
102
}
330
E
  0
SCALE
  5
B8
102
{ACAD_REACTORS
330
B7
102
}
330
B7
100
AcDbScale
 70
     0
300
1:1
140
1.0
141
1.0
290
     1
  0
SCALE
  5
B9
102
{ACAD_REACTORS
330
B7
102
}
330
B7
100
AcDbScale
 70
     0
300
1:2
140
1.0
141
2.0
290
     0
  0
SCALE
  5
BA
102
{ACAD_REACTORS
330
B7
102
}
330
B7
100
AcDbScale
 70
     0
300
1:4
140
1.0
141
4.0
290
     0
  0
SCALE
  5
BB
102
{ACAD_REACTORS
330
B7
102
}
330
B7
100
AcDbScale
 70
     0
300
1:5
140
1.0
141
5.0
290
     0
  0
SCALE
  5
BC
102
{ACAD_REACTORS
330
B7
102
}
330
B7
100
AcDbScale
 70
     0
300
1:8
140
1.0
141
8.0
290
     0
  0
SCALE
  5
BD
102
{ACAD_REACTORS
330
B7
102
}
330
B7
100
AcDbScale
 70
     0
300
1:10
140
1.0
141
10.0
290
     0
  0
SCALE
  5
BE
102
{ACAD_REACTORS
330
B7
102
}
330
B7
100
AcDbScale
 70
     0
300
1:16
140
1.0
141
16.0
290
     0
  0
SCALE
  5
BF
102
{ACAD_REACTORS
330
B7
102
}
330
B7
100
AcDbScale
 70
     0
300
1:20
140
1.0
141
20.0
290
     0
  0
SCALE
  5
C0
102
{ACAD_REACTORS
330
B7
102
}
330
B7
100
AcDbScale
 70
     0
300
1:30
140
1.0
141
30.0
290
     0
  0
SCALE
  5
C1
102
{ACAD_REACTORS
330
B7
102
}
330
B7
100
AcDbScale
 70
     0
300
1:40
140
1.0
141
40.0
290
     0
  0
SCALE
  5
C2
102
{ACAD_REACTORS
330
B7
102
}
330
B7
100
AcDbScale
 70
     0
300
1:50
140
1.0
141
50.0
290
     0
  0
SCALE
  5
C3
102
{ACAD_REACTORS
330
B7
102
}
330
B7
100
AcDbScale
 70
     0
300
1:100
140
1.0
141
100.0
290
     0
  0
SCALE
  5
C4
102
{ACAD_REACTORS
330
B7
102
}
330
B7
100
AcDbScale
 70
     0
300
2:1
140
2.0
141
1.0
290
     0
  0
SCALE
  5
C5
102
{ACAD_REACTORS
330
B7
102
}
330
B7
100
AcDbScale
 70
     0
300
4:1
140
4.0
141
1.0
290
     0
  0
SCALE
  5
C6
102
{ACAD_REACTORS
330
B7
102
}
330
B7
100
AcDbScale
 70
     0
300
8:1
140
8.0
141
1.0
290
     0
  0
SCALE
  5
C7
102
{ACAD_REACTORS
330
B7
102
}
330
B7
100
AcDbScale
 70
     0
300
10:1
140
10.0
141
1.0
290
     0
  0
SCALE
  5
C8
102
{ACAD_REACTORS
330
B7
102
}
330
B7
100
AcDbScale
 70
     0
300
100:1
140
100.0
141
1.0
290
     0
  0
SCALE
  5
C9
102
{ACAD_REACTORS
330
B7
102
}
330
B7
100
AcDbScale
 70
     0
300
1/128" = 1'-0"
140
0.0078125
141
12.0
290
     0
  0
SCALE
  5
CA
102
{ACAD_REACTORS
330
B7
102
}
330
B7
100
AcDbScale
 70
     0
300
1/64" = 1'-0"
140
0.015625
141
12.0
290
     0
  0
SCALE
  5
CB
102
{ACAD_REACTORS
330
B7
102
}
330
B7
100
AcDbScale
 70
     0
300
1/32" = 1'-0"
140
0.03125
141
12.0
290
     0
  0
SCALE
  5
CC
102
{ACAD_REACTORS
330
B7
102
}
330
B7
100
AcDbScale
 70
     0
300
1/16" = 1'-0"
140
0.0625
141
12.0
290
     0
  0
SCALE
  5
CD
102
{ACAD_REACTORS
330
B7
102
}
330
B7
100
AcDbScale
 70
     0
300
3/32" = 1'-0"
140
0.09375
141
12.0
290
     0
  0
SCALE
  5
CE
102
{ACAD_REACTORS
330
B7
102
}
330
B7
100
AcDbScale
 70
     0
300
1/8" = 1'-0"
140
0.125
141
12.0
290
     0
  0
SCALE
  5
CF
102
{ACAD_REACTORS
330
B7
102
}
330
B7
100
AcDbScale
 70
     0
300
3/16" = 1'-0"
140
0.1875
141
12.0
290
     0
  0
SCALE
  5
D0
102
{ACAD_REACTORS
330
B7
102
}
330
B7
100
AcDbScale
 70
     0
300
1/4" = 1'-0"
140
0.25
141
12.0
290
     0
  0
SCALE
  5
D1
102
{ACAD_REACTORS
330
B7
102
}
330
B7
100
AcDbScale
 70
     0
300
3/8" = 1'-0"
140
0.375
141
12.0
290
     0
  0
SCALE
  5
D2
102
{ACAD_REACTORS
330
B7
102
}
330
B7
100
AcDbScale
 70
     0
300
1/2" = 1'-0"
140
0.5
141
12.0
290
     0
  0
SCALE
  5
D3
102
{ACAD_REACTORS
330
B7
102
}
330
B7
100
AcDbScale
 70
     0
300
3/4" = 1'-0"
140
0.75
141
12.0
290
     0
  0
SCALE
  5
D4
102
{ACAD_REACTORS
330
B7
102
}
330
B7
100
AcDbScale
 70
     0
300
1" = 1'-0"
140
1.0
141
12.0
290
     0
  0
SCALE
  5
D5
102
{ACAD_REACTORS
330
B7
102
}
330
B7
100
AcDbScale
 70
     0
300
1-1/2" = 1'-0"
140
1.5
141
12.0
290
     0
  0
SCALE
  5
D6
102
{ACAD_REACTORS
330
B7
102
}
330
B7
100
AcDbScale
 70
     0
300
3" = 1'-0"
140
3.0
141
12.0
290
     0
  0
SCALE
  5
D7
102
{ACAD_REACTORS
330
B7
102
}
330
B7
100
AcDbScale
 70
     0
300
6" = 1'-0"
140
6.0
141
12.0
290
     0
  0
SCALE
  5
D8
102
{ACAD_REACTORS
330
B7
102
}
330
B7
100
AcDbScale
 70
     0
300
1'-0" = 1'-0"
140
12.0
141
12.0
290
     0
  0
TABLESTYLE
  5
93
102
{ACAD_REACTORS
330
92
102
}
102
{ACAD_XDICTIONARY
360
49B1
102
}
330
92
100
AcDbTableStyle
  3
Standard
 70
     0
 71
     0
 40
1.5
 41
1.5
280
     0
281
     0
  7
Standard
140
4.5
170
     2
 62
     0
 63
   257
283
     0
 90
      512
 91
        0
  1

274
    -2
284
     1
 64
     0
275
    -2
285
     1
 65
     0
276
    -2
286
     1
 66
     0
277
    -2
287
     1
 67
     0
278
    -2
288
     1
 68
     0
279
    -2
289
     1
 69
     0
  7
Standard
140
6.0
170
     5
 62
     0
 63
   257
283
     0
 90
      512
 91
        0
  1

274
    -2
284
     1
 64
     0
275
    -2
285
     1
 65
     0
276
    -2
286
     1
 66
     0
277
    -2
287
     1
 67
     0
278
    -2
288
     1
 68
     0
279
    -2
289
     1
 69
     0
  7
Standard
140
4.5
170
     5
 62
     0
 63
   257
283
     0
 90
      512
 91
        0
  1

274
    -2
284
     1
 64
     0
275
    -2
285
     1
 65
     0
276
    -2
286
     1
 66
     0
277
    -2
287
     1
 67
     0
278
    -2
288
     1
 68
     0
279
    -2
289
     1
 69
     0
1001
ACAD
1000
AcRTDxfName
1000
TABLESTYLE
  0
VISUALSTYLE
  5
499C
102
{ACAD_REACTORS
330
4997
102
}
330
4997
100
AcDbVisualStyle
  2
2dWireframe
 70
     4
177
     3
291
     0
 70
    58
 90
        0
176
     1
 90
        2
176
     1
 90
        0
176
     1
 90
        0
176
     1
 40
0.6
176
     1
 40
30.0
176
     1
 62
     7
420
 16777215
176
     1
 90
        1
176
     1
 90
        4
176
     1
 62
     7
176
     1
 62
   257
176
     1
 90
        1
176
     1
 90
        1
176
     1
 40
1.0
176
     1
 90
        0
176
     1
 62
   257
176
     1
 40
1.0
176
     1
 90
        1
176
     1
 90
        6
176
     1
 90
        2
176
     1
 62
     7
176
     1
 90
        5
176
     1
 90
        0
176
     1
 90
        0
176
     1
290
     0
176
     1
 90
        1
176
     1
 40
0.0
176
     1
 90
        0
176
     1
290
     1
176
     1
290
     1
176
     1
290
     0
176
     1
290
     0
176
     1
290
     0
176
     1
290
     0
176
     1
290
     0
176
     1
290
     0
176
     1
290
     0
176
     1
 90
       50
176
     1
 40
0.0
176
     1
 40
1.0
176
     1
 90
        0
176
     1
 62
    18
420
        0
176
     1
 90
       50
176
     1
 90
        3
176
     1
 62
     5
420
      255
176
     1
290
     0
176
     1
 90
       50
176
     1
 90
       50
176
     1
 90
       50
176
     1
290
     0
176
     1
 90
       50
176
     1
 62
   256
176
     0
 40
1.0
176
     0
 90
        2
176
     1
  1
strokes_ogs.tif
176
     1
290
     0
176
     1
 40
1.0
176
     1
 40
1.0
176
     1
  0
VISUALSTYLE
  5
499F
102
{ACAD_REACTORS
330
4997
102
}
330
4997
100
AcDbVisualStyle
  2
Basic
 70
     7
177
     3
291
     1
 70
    58
 90
        1
176
     1
 90
        0
176
     1
 90
        1
176
     1
 90
        0
176
     1
 40
0.6
176
     1
 40
30.0
176
     1
 62
     7
420
 16777215
176
     1
 90
        0
176
     1
 90
        4
176
     1
 62
     7
176
     1
 62
   257
176
     1
 90
        1
176
     1
 90
        1
176
     1
 40
1.0
176
     1
 90
        8
176
     1
 62
     7
176
     1
 40
1.0
176
     1
 90
        1
176
     1
 90
        6
176
     1
 90
        2
176
     1
 62
     7
176
     1
 90
        5
176
     1
 90
        0
176
     1
 90
        0
176
     1
290
     0
176
     1
 90
        1
176
     1
 40
0.0
176
     1
 90
        0
176
     1
290
     0
176
     1
290
     1
176
     1
290
     1
176
     1
290
     0
176
     1
290
     0
176
     1
290
     0
176
     1
290
     0
176
     1
290
     0
176
     1
290
     0
176
     1
 90
       50
176
     1
 40
0.0
176
     1
 40
1.0
176
     1
 90
        0
176
     1
 62
    18
420
        0
176
     1
 90
       50
176
     1
 90
        3
176
     1
 62
     5
420
      255
176
     1
290
     0
176
     1
 90
       50
176
     1
 90
       50
176
     1
 90
       50
176
     1
290
     0
176
     1
 90
       50
176
     1
 62
   256
176
     0
 40
1.0
176
     0
 90
        2
176
     1
  1
strokes_ogs.tif
176
     1
290
     0
176
     1
 40
1.0
176
     1
 40
1.0
176
     1
  0
VISUALSTYLE
  5
49A3
102
{ACAD_REACTORS
330
4997
102
}
330
4997
100
AcDbVisualStyle
  2
Brighten
 70
    12
177
     3
291
     1
 70
    58
 90
        2
176
     1
 90
        2
176
     1
 90
        0
176
     1
 90
        0
176
     1
 40
0.6
176
     1
 40
30.0
176
     1
 62
     7
420
 16777215
176
     1
 90
        1
176
     1
 90
        4
176
     1
 62
     7
176
     1
 62
   257
176
     1
 90
        1
176
     1
 90
        1
176
     1
 40
1.0
176
     1
 90
        8
176
     1
 62
     7
176
     1
 40
1.0
176
     1
 90
        1
176
     1
 90
        6
176
     1
 90
        2
176
     1
 62
     7
176
     1
 90
        5
176
     1
 90
        0
176
     1
 90
        0
176
     1
290
     0
176
     1
 90
        1
176
     1
 40
50.0
176
     1
 90
        0
176
     1
290
     0
176
     1
290
     1
176
     1
290
     1
176
     1
290
     0
176
     1
290
     0
176
     1
290
     0
176
     1
290
     0
176
     1
290
     0
176
     1
290
     0
176
     1
 90
       50
176
     1
 40
0.0
176
     1
 40
1.0
176
     1
 90
        0
176
     1
 62
    18
420
        0
176
     1
 90
       50
176
     1
 90
        3
176
     1
 62
     5
420
      255
176
     1
290
     0
176
     1
 90
       50
176
     1
 90
       50
176
     1
 90
       50
176
     1
290
     0
176
     1
 90
       50
176
     1
 62
   256
176
     0
 40
1.0
176
     0
 90
        2
176
     1
  1
strokes_ogs.tif
176
     1
290
     0
176
     1
 40
1.0
176
     1
 40
1.0
176
     1
  0
VISUALSTYLE
  5
49A7
102
{ACAD_REACTORS
330
4997
102
}
330
4997
100
AcDbVisualStyle
  2
ColorChange
 70
    16
177
     3
291
     1
 70
    58
 90
        2
176
     1
 90
        2
176
     1
 90
        3
176
     1
 90
        0
176
     1
 40
0.6
176
     1
 40
30.0
176
     1
 62
     8
420
  8421504
176
     1
 90
        1
176
     1
 90
        4
176
     1
 62
     7
176
     1
 62
   257
176
     1
 90
        1
176
     1
 90
        1
176
     1
 40
1.0
176
     1
 90
        8
176
     1
 62
     8
420
  8421504
176
     1
 40
1.0
176
     1
 90
        1
176
     1
 90
        6
176
     1
 90
        2
176
     1
 62
     7
176
     1
 90
        5
176
     1
 90
        0
176
     1
 90
        0
176
     1
290
     0
176
     1
 90
        1
176
     1
 40
0.0
176
     1
 90
        0
176
     1
290
     0
176
     1
290
     1
176
     1
290
     1
176
     1
290
     0
176
     1
290
     0
176
     1
290
     0
176
     1
290
     0
176
     1
290
     0
176
     1
290
     0
176
     1
 90
       50
176
     1
 40
0.0
176
     1
 40
1.0
176
     1
 90
        0
176
     1
 62
    18
420
        0
176
     1
 90
       50
176
     1
 90
        3
176
     1
 62
     5
420
      255
176
     1
290
     0
176
     1
 90
       50
176
     1
 90
       50
176
     1
 90
       50
176
     1
290
     0
176
     1
 90
       50
176
     1
 62
   256
176
     0
 40
1.0
176
     0
 90
        2
176
     1
  1
strokes_ogs.tif
176
     1
290
     0
176
     1
 40
1.0
176
     1
 40
1.0
176
     1
  0
VISUALSTYLE
  5
49A1
102
{ACAD_REACTORS
330
4997
102
}
330
4997
100
AcDbVisualStyle
  2
Conceptual
 70
     9
177
     3
291
     0
 70
    58
 90
        3
176
     1
 90
        2
176
     1
 90
        0
176
     1
 90
        0
176
     1
 40
0.6
176
     1
 40
30.0
176
     1
 62
     7
420
 16777215
176
     1
 90
        2
176
     1
 90
        2
176
     1
 62
     7
176
     1
 62
   257
176
     1
 90
        1
176
     1
 90
        1
176
     1
 40
40.0
176
     1
 90
        8
176
     1
 62
     7
176
     1
 40
1.0
176
     1
 90
        1
176
     1
 90
        6
176
     1
 90
        2
176
     1
 62
     7
176
     1
 90
        3
176
     1
 90
        0
176
     1
 90
        0
176
     1
290
     0
176
     1
 90
        1
176
     1
 40
0.0
176
     1
 90
        0
176
     1
290
     0
176
     1
290
     1
176
     1
290
     1
176
     1
290
     0
176
     1
290
     0
176
     1
290
     0
176
     1
290
     0
176
     1
290
     0
176
     1
290
     0
176
     1
 90
       50
176
     1
 40
0.0
176
     1
 40
1.0
176
     1
 90
        0
176
     1
 62
    18
420
        0
176
     1
 90
       50
176
     1
 90
        3
176
     1
 62
     5
420
      255
176
     1
290
     0
176
     1
 90
       50
176
     1
 90
       50
176
     1
 90
       50
176
     1
290
     0
176
     1
 90
       50
176
     1
 62
   256
176
     0
 40
1.0
176
     0
 90
        2
176
     1
  1
strokes_ogs.tif
176
     1
290
     0
176
     1
 40
1.0
176
     1
 40
1.0
176
     1
  0
VISUALSTYLE
  5
49A2
102
{ACAD_REACTORS
330
4997
102
}
330
4997
100
AcDbVisualStyle
  2
Dim
 70
    11
177
     3
291
     1
 70
    58
 90
        2
176
     1
 90
        2
176
     1
 90
        0
176
     1
 90
        0
176
     1
 40
0.6
176
     1
 40
30.0
176
     1
 62
     7
420
 16777215
176
     1
 90
        1
176
     1
 90
        4
176
     1
 62
     7
176
     1
 62
   257
176
     1
 90
        1
176
     1
 90
        1
176
     1
 40
1.0
176
     1
 90
        8
176
     1
 62
     7
176
     1
 40
1.0
176
     1
 90
        1
176
     1
 90
        6
176
     1
 90
        2
176
     1
 62
     7
176
     1
 90
        5
176
     1
 90
        0
176
     1
 90
        0
176
     1
290
     0
176
     1
 90
        1
176
     1
 40
-50.0
176
     1
 90
        0
176
     1
290
     0
176
     1
290
     1
176
     1
290
     1
176
     1
290
     0
176
     1
290
     0
176
     1
290
     0
176
     1
290
     0
176
     1
290
     0
176
     1
290
     0
176
     1
 90
       50
176
     1
 40
0.0
176
     1
 40
1.0
176
     1
 90
        0
176
     1
 62
    18
420
        0
176
     1
 90
       50
176
     1
 90
        3
176
     1
 62
     5
420
      255
176
     1
290
     0
176
     1
 90
       50
176
     1
 90
       50
176
     1
 90
       50
176
     1
290
     0
176
     1
 90
       50
176
     1
 62
   256
176
     0
 40
1.0
176
     0
 90
        2
176
     1
  1
strokes_ogs.tif
176
     1
290
     0
176
     1
 40
1.0
176
     1
 40
1.0
176
     1
  0
VISUALSTYLE
  5
49AA
102
{ACAD_REACTORS
330
4997
102
}
330
4997
100
AcDbVisualStyle
  2
EdgeColorOff
 70
    22
177
     3
291
     1
 70
    58
 90
        2
176
     0
 90
        2
176
     0
 90
        0
176
     0
 90
        0
176
     0
 40
0.6
176
     0
 40
30.0
176
     0
 62
     7
420
 16777215
176
     0
 90
        1
176
     0
 90
        4
176
     0
 62
     7
176
     0
 62
   257
176
     0
 90
        1
176
     0
 90
        1
176
     0
 40
1.0
176
     0
 90
        8
176
     0
 62
     7
176
     0
 40
1.0
176
     0
 90
        1
176
     0
 90
        6
176
     0
 90
        2
176
     0
 62
     7
176
     0
 90
        5
176
     0
 90
        0
176
     0
 90
        0
176
     0
290
     0
176
     0
 90
        1
176
     0
 40
0.0
176
     0
 90
        0
176
     0
290
     0
176
     1
290
     1
176
     1
290
     1
176
     1
290
     0
176
     1
290
     0
176
     1
290
     0
176
     1
290
     0
176
     1
290
     0
176
     1
290
     0
176
     1
 90
       50
176
     1
 40
0.0
176
     1
 40
1.0
176
     1
 90
        0
176
     1
 62
    18
420
        0
176
     1
 90
       50
176
     1
 90
        3
176
     1
 62
     5
420
      255
176
     1
290
     0
176
     1
 90
       50
176
     1
 90
       50
176
     1
 90
       50
176
     1
290
     0
176
     1
 90
       50
176
     1
 62
   256
176
     0
 40
1.0
176
     0
 90
        2
176
     1
  1
strokes_ogs.tif
176
     1
290
     0
176
     1
 40
1.0
176
     1
 40
1.0
176
     1
  0
VISUALSTYLE
  5
49A6
102
{ACAD_REACTORS
330
4997
102
}
330
4997
100
AcDbVisualStyle
  2
Facepattern
 70
    15
177
     3
291
     1
 70
    58
 90
        2
176
     1
 90
        2
176
     1
 90
        0
176
     1
 90
        0
176
     1
 40
0.6
176
     1
 40
30.0
176
     1
 62
     7
420
 16777215
176
     1
 90
        1
176
     1
 90
        4
176
     1
 62
     7
176
     1
 62
   257
176
     1
 90
        1
176
     1
 90
        1
176
     1
 40
1.0
176
     1
 90
        8
176
     1
 62
     7
176
     1
 40
1.0
176
     1
 90
        1
176
     1
 90
        6
176
     1
 90
        2
176
     1
 62
     7
176
     1
 90
        5
176
     1
 90
        0
176
     1
 90
        0
176
     1
290
     0
176
     1
 90
        1
176
     1
 40
0.0
176
     1
 90
        0
176
     1
290
     0
176
     1
290
     1
176
     1
290
     1
176
     1
290
     0
176
     1
290
     0
176
     1
290
     0
176
     1
290
     0
176
     1
290
     0
176
     1
290
     0
176
     1
 90
       50
176
     1
 40
0.0
176
     1
 40
1.0
176
     1
 90
        0
176
     1
 62
    18
420
        0
176
     1
 90
       50
176
     1
 90
        3
176
     1
 62
     5
420
      255
176
     1
290
     0
176
     1
 90
       50
176
     1
 90
       50
176
     1
 90
       50
176
     1
290
     0
176
     1
 90
       50
176
     1
 62
   256
176
     0
 40
1.0
176
     0
 90
        2
176
     1
  1
strokes_ogs.tif
176
     1
290
     0
176
     1
 40
1.0
176
     1
 40
1.0
176
     1
  0
VISUALSTYLE
  5
4998
102
{ACAD_REACTORS
330
4997
102
}
330
4997
100
AcDbVisualStyle
  2
Flat
 70
     0
177
     3
291
     1
 70
    58
 90
        2
176
     1
 90
        1
176
     1
 90
        1
176
     1
 90
        2
176
     1
 40
0.6
176
     1
 40
30.0
176
     1
 62
     7
420
 16777215
176
     1
 90
        0
176
     1
 90
        4
176
     1
 62
     7
176
     1
 62
   257
176
     1
 90
        1
176
     1
 90
        1
176
     1
 40
1.0
176
     1
 90
        8
176
     1
 62
     7
176
     1
 40
1.0
176
     1
 90
        1
176
     1
 90
        6
176
     1
 90
        2
176
     1
 62
     7
176
     1
 90
        5
176
     1
 90
        0
176
     1
 90
        0
176
     1
290
     0
176
     1
 90
       13
176
     1
 40
0.0
176
     1
 90
        0
176
     1
290
     0
176
     1
290
     1
176
     1
290
     1
176
     1
290
     0
176
     1
290
     0
176
     1
290
     0
176
     1
290
     0
176
     1
290
     0
176
     1
290
     0
176
     1
 90
       50
176
     1
 40
0.0
176
     1
 40
1.0
176
     1
 90
        0
176
     1
 62
    18
420
        0
176
     1
 90
       50
176
     1
 90
        3
176
     1
 62
     5
420
      255
176
     1
290
     0
176
     1
 90
       50
176
     1
 90
       50
176
     1
 90
       50
176
     1
290
     0
176
     1
 90
       50
176
     1
 62
   256
176
     0
 40
1.0
176
     0
 90
        2
176
     1
  1
strokes_ogs.tif
176
     1
290
     0
176
     1
 40
1.0
176
     1
 40
1.0
176
     1
  0
VISUALSTYLE
  5
4999
102
{ACAD_REACTORS
330
4997
102
}
330
4997
100
AcDbVisualStyle
  2
FlatWithEdges
 70
     1
177
     3
291
     1
 70
    58
 90
        2
176
     1
 90
        1
176
     1
 90
        1
176
     1
 90
        2
176
     1
 40
0.6
176
     1
 40
30.0
176
     1
 62
     7
420
 16777215
176
     1
 90
        1
176
     1
 90
        4
176
     1
 62
     7
176
     1
 62
   257
176
     1
 90
        1
176
     1
 90
        1
176
     1
 40
1.0
176
     1
 90
        0
176
     1
 62
   257
176
     1
 40
1.0
176
     1
 90
        1
176
     1
 90
        6
176
     1
 90
        2
176
     1
 62
     7
176
     1
 90
        5
176
     1
 90
        0
176
     1
 90
        0
176
     1
290
     0
176
     1
 90
       13
176
     1
 40
0.0
176
     1
 90
        0
176
     1
290
     0
176
     1
290
     1
176
     1
290
     1
176
     1
290
     0
176
     1
290
     0
176
     1
290
     0
176
     1
290
     0
176
     1
290
     0
176
     1
290
     0
176
     1
 90
       50
176
     1
 40
0.0
176
     1
 40
1.0
176
     1
 90
        0
176
     1
 62
    18
420
        0
176
     1
 90
       50
176
     1
 90
        3
176
     1
 62
     5
420
      255
176
     1
290
     0
176
     1
 90
       50
176
     1
 90
       50
176
     1
 90
       50
176
     1
290
     0
176
     1
 90
       50
176
     1
 62
   256
176
     0
 40
1.0
176
     0
 90
        2
176
     1
  1
strokes_ogs.tif
176
     1
290
     0
176
     1
 40
1.0
176
     1
 40
1.0
176
     1
  0
VISUALSTYLE
  5
499A
102
{ACAD_REACTORS
330
4997
102
}
330
4997
100
AcDbVisualStyle
  2
Gouraud
 70
     2
177
     3
291
     1
 70
    58
 90
        2
176
     1
 90
        2
176
     1
 90
        1
176
     1
 90
        2
176
     1
 40
0.6
176
     1
 40
30.0
176
     1
 62
     7
420
 16777215
176
     1
 90
        0
176
     1
 90
        4
176
     1
 62
     7
176
     1
 62
   257
176
     1
 90
        1
176
     1
 90
        1
176
     1
 40
1.0
176
     1
 90
        0
176
     1
 62
     7
176
     1
 40
1.0
176
     1
 90
        1
176
     1
 90
        6
176
     1
 90
        2
176
     1
 62
     7
176
     1
 90
        5
176
     1
 90
        0
176
     1
 90
        0
176
     1
290
     0
176
     1
 90
       13
176
     1
 40
0.0
176
     1
 90
        0
176
     1
290
     0
176
     1
290
     1
176
     1
290
     1
176
     1
290
     0
176
     1
290
     0
176
     1
290
     0
176
     1
290
     0
176
     1
290
     0
176
     1
290
     0
176
     1
 90
       50
176
     1
 40
0.0
176
     1
 40
1.0
176
     1
 90
        0
176
     1
 62
    18
420
        0
176
     1
 90
       50
176
     1
 90
        3
176
     1
 62
     5
420
      255
176
     1
290
     0
176
     1
 90
       50
176
     1
 90
       50
176
     1
 90
       50
176
     1
290
     0
176
     1
 90
       50
176
     1
 62
   256
176
     0
 40
1.0
176
     0
 90
        2
176
     1
  1
strokes_ogs.tif
176
     1
290
     0
176
     1
 40
1.0
176
     1
 40
1.0
176
     1
  0
VISUALSTYLE
  5
499B
102
{ACAD_REACTORS
330
4997
102
}
330
4997
100
AcDbVisualStyle
  2
GouraudWithEdges
 70
     3
177
     3
291
     1
 70
    58
 90
        2
176
     1
 90
        2
176
     1
 90
        1
176
     1
 90
        2
176
     1
 40
0.6
176
     1
 40
30.0
176
     1
 62
     7
420
 16777215
176
     1
 90
        1
176
     1
 90
        4
176
     1
 62
     7
176
     1
 62
   257
176
     1
 90
        1
176
     1
 90
        1
176
     1
 40
1.0
176
     1
 90
        0
176
     1
 62
   257
176
     1
 40
1.0
176
     1
 90
        1
176
     1
 90
        6
176
     1
 90
        2
176
     1
 62
     7
176
     1
 90
        5
176
     1
 90
        0
176
     1
 90
        0
176
     1
290
     0
176
     1
 90
       13
176
     1
 40
0.0
176
     1
 90
        0
176
     1
290
     0
176
     1
290
     1
176
     1
290
     1
176
     1
290
     0
176
     1
290
     0
176
     1
290
     0
176
     1
290
     0
176
     1
290
     0
176
     1
290
     0
176
     1
 90
       50
176
     1
 40
0.0
176
     1
 40
1.0
176
     1
 90
        0
176
     1
 62
    18
420
        0
176
     1
 90
       50
176
     1
 90
        3
176
     1
 62
     5
420
      255
176
     1
290
     0
176
     1
 90
       50
176
     1
 90
       50
176
     1
 90
       50
176
     1
290
     0
176
     1
 90
       50
176
     1
 62
   256
176
     0
 40
1.0
176
     0
 90
        2
176
     1
  1
strokes_ogs.tif
176
     1
290
     0
176
     1
 40
1.0
176
     1
 40
1.0
176
     1
  0
VISUALSTYLE
  5
499E
102
{ACAD_REACTORS
330
4997
102
}
330
4997
100
AcDbVisualStyle
  2
Hidden
 70
     6
177
     3
291
     0
 70
    58
 90
        1
176
     1
 90
        2
176
     1
 90
        2
176
     1
 90
        0
176
     1
 40
0.6
176
     1
 40
30.0
176
     1
 62
     7
420
 16777215
176
     1
 90
        2
176
     1
 90
        2
176
     1
 62
     7
176
     1
 62
   257
176
     1
 90
        2
176
     1
 90
        1
176
     1
 40
40.0
176
     1
 90
        0
176
     1
 62
   257
176
     1
 40
1.0
176
     1
 90
        1
176
     1
 90
        6
176
     1
 90
        2
176
     1
 62
     7
176
     1
 90
        3
176
     1
 90
        0
176
     1
 90
        0
176
     1
290
     0
176
     1
 90
        1
176
     1
 40
0.0
176
     1
 90
        0
176
     1
290
     0
176
     1
290
     1
176
     1
290
     1
176
     1
290
     0
176
     1
290
     0
176
     1
290
     0
176
     1
290
     0
176
     1
290
     0
176
     1
290
     0
176
     1
 90
       50
176
     1
 40
0.0
176
     1
 40
1.0
176
     1
 90
        0
176
     1
 62
    18
420
        0
176
     1
 90
       50
176
     1
 90
        3
176
     1
 62
     5
420
      255
176
     1
290
     0
176
     1
 90
       50
176
     1
 90
       50
176
     1
 90
       50
176
     1
290
     0
176
     1
 90
       50
176
     1
 62
   256
176
     0
 40
1.0
176
     0
 90
        2
176
     1
  1
strokes_ogs.tif
176
     1
290
     0
176
     1
 40
1.0
176
     1
 40
1.0
176
     1
  0
VISUALSTYLE
  5
49A8
102
{ACAD_REACTORS
330
4997
102
}
330
4997
100
AcDbVisualStyle
  2
JitterOff
 70
    20
177
     3
291
     1
 70
    58
 90
        2
176
     0
 90
        2
176
     0
 90
        0
176
     0
 90
        0
176
     0
 40
0.6
176
     0
 40
30.0
176
     0
 62
     7
420
 16777215
176
     0
 90
        1
176
     0
 90
        4
176
     0
 62
     7
176
     0
 62
   257
176
     0
 90
        1
176
     0
 90
        1
176
     0
 40
1.0
176
     0
 90
       10
176
     0
 62
     7
176
     0
 40
1.0
176
     0
 90
        1
176
     0
 90
        6
176
     0
 90
        2
176
     0
 62
     7
176
     0
 90
        5
176
     0
 90
        0
176
     0
 90
        0
176
     0
290
     0
176
     0
 90
        1
176
     0
 40
0.0
176
     0
 90
        0
176
     0
290
     0
176
     1
290
     1
176
     1
290
     1
176
     1
290
     0
176
     1
290
     0
176
     1
290
     0
176
     1
290
     0
176
     1
290
     0
176
     1
290
     0
176
     1
 90
       50
176
     1
 40
0.0
176
     1
 40
1.0
176
     1
 90
        0
176
     1
 62
    18
420
        0
176
     1
 90
       50
176
     1
 90
        3
176
     1
 62
     5
420
      255
176
     1
290
     0
176
     1
 90
       50
176
     1
 90
       50
176
     1
 90
       50
176
     1
290
     0
176
     1
 90
       50
176
     1
 62
   256
176
     0
 40
1.0
176
     0
 90
        2
176
     1
  1
strokes_ogs.tif
176
     1
290
     0
176
     1
 40
1.0
176
     1
 40
1.0
176
     1
  0
VISUALSTYLE
  5
49A5
102
{ACAD_REACTORS
330
4997
102
}
330
4997
100
AcDbVisualStyle
  2
Linepattern
 70
    14
177
     3
291
     1
 70
    58
 90
        2
176
     1
 90
        2
176
     1
 90
        0
176
     1
 90
        0
176
     1
 40
0.6
176
     1
 40
30.0
176
     1
 62
     7
420
 16777215
176
     1
 90
        1
176
     1
 90
        4
176
     1
 62
     7
176
     1
 62
   257
176
     1
 90
        7
176
     1
 90
        7
176
     1
 40
1.0
176
     1
 90
        8
176
     1
 62
     7
176
     1
 40
1.0
176
     1
 90
        1
176
     1
 90
        6
176
     1
 90
        2
176
     1
 62
     7
176
     1
 90
        5
176
     1
 90
        0
176
     1
 90
        0
176
     1
290
     0
176
     1
 90
        1
176
     1
 40
0.0
176
     1
 90
        0
176
     1
290
     0
176
     1
290
     1
176
     1
290
     1
176
     1
290
     0
176
     1
290
     0
176
     1
290
     0
176
     1
290
     0
176
     1
290
     0
176
     1
290
     0
176
     1
 90
       50
176
     1
 40
0.0
176
     1
 40
1.0
176
     1
 90
        0
176
     1
 62
    18
420
        0
176
     1
 90
       50
176
     1
 90
        3
176
     1
 62
     5
420
      255
176
     1
290
     0
176
     1
 90
       50
176
     1
 90
       50
176
     1
 90
       50
176
     1
290
     0
176
     1
 90
       50
176
     1
 62
   256
176
     0
 40
1.0
176
     0
 90
        2
176
     1
  1
strokes_ogs.tif
176
     1
290
     0
176
     1
 40
1.0
176
     1
 40
1.0
176
     1
  0
VISUALSTYLE
  5
49A9
102
{ACAD_REACTORS
330
4997
102
}
330
4997
100
AcDbVisualStyle
  2
OverhangOff
 70
    21
177
     3
291
     1
 70
    58
 90
        2
176
     0
 90
        2
176
     0
 90
        0
176
     0
 90
        0
176
     0
 40
0.6
176
     0
 40
30.0
176
     0
 62
     7
420
 16777215
176
     0
 90
        1
176
     0
 90
        4
176
     0
 62
     7
176
     0
 62
   257
176
     0
 90
        1
176
     0
 90
        1
176
     0
 40
1.0
176
     0
 90
        9
176
     0
 62
     7
176
     0
 40
1.0
176
     0
 90
        1
176
     0
 90
        6
176
     0
 90
        2
176
     0
 62
     7
176
     0
 90
        5
176
     0
 90
        0
176
     0
 90
        0
176
     0
290
     0
176
     0
 90
        1
176
     0
 40
0.0
176
     0
 90
        0
176
     0
290
     0
176
     1
290
     1
176
     1
290
     1
176
     1
290
     0
176
     1
290
     0
176
     1
290
     0
176
     1
290
     0
176
     1
290
     0
176
     1
290
     0
176
     1
 90
       50
176
     1
 40
0.0
176
     1
 40
1.0
176
     1
 90
        0
176
     1
 62
    18
420
        0
176
     1
 90
       50
176
     1
 90
        3
176
     1
 62
     5
420
      255
176
     1
290
     0
176
     1
 90
       50
176
     1
 90
       50
176
     1
 90
       50
176
     1
290
     0
176
     1
 90
       50
176
     1
 62
   256
176
     0
 40
1.0
176
     0
 90
        2
176
     1
  1
strokes_ogs.tif
176
     1
290
     0
176
     1
 40
1.0
176
     1
 40
1.0
176
     1
  0
VISUALSTYLE
  5
49A0
102
{ACAD_REACTORS
330
4997
102
}
330
4997
100
AcDbVisualStyle
  2
Realistic
 70
     8
177
     3
291
     0
 70
    58
 90
        2
176
     1
 90
        3
176
     1
 90
        0
176
     1
 90
        2
176
     1
 40
0.6
176
     1
 40
30.0
176
     1
 62
     7
420
 16777215
176
     1
 90
        0
176
     1
 90
        0
176
     1
 62
     7
176
     1
 62
   257
176
     1
 90
        1
176
     1
 90
        1
176
     1
 40
1.0
176
     1
 90
        8
176
     1
 62
   257
176
     1
 40
1.0
176
     1
 90
        1
176
     1
 90
        6
176
     1
 90
        2
176
     1
 62
     7
176
     1
 90
        3
176
     1
 90
        0
176
     1
 90
        0
176
     1
290
     0
176
     1
 90
       13
176
     1
 40
0.0
176
     1
 90
        0
176
     1
290
     0
176
     1
290
     1
176
     1
290
     1
176
     1
290
     0
176
     1
290
     0
176
     1
290
     0
176
     1
290
     0
176
     1
290
     0
176
     1
290
     0
176
     1
 90
       50
176
     1
 40
0.0
176
     1
 40
1.0
176
     1
 90
        0
176
     1
 62
    18
420
        0
176
     1
 90
       50
176
     1
 90
        3
176
     1
 62
     5
420
      255
176
     1
290
     0
176
     1
 90
       50
176
     1
 90
       50
176
     1
 90
       50
176
     1
290
     0
176
     1
 90
       50
176
     1
 62
   256
176
     0
 40
1.0
176
     0
 90
        2
176
     1
  1
strokes_ogs.tif
176
     1
290
     0
176
     1
 40
1.0
176
     1
 40
1.0
176
     1
  0
VISUALSTYLE
  5
49AF
102
{ACAD_REACTORS
330
4997
102
}
330
4997
100
AcDbVisualStyle
  2
Shaded
 70
    27
177
     3
291
     0
 70
    58
 90
        2
176
     1
 90
        2
176
     1
 90
        1
176
     1
 90
        2
176
     1
 40
0.6
176
     1
 40
30.0
176
     1
 62
     7
420
 16777215
176
     1
 90
        0
176
     1
 90
        4
176
     1
 62
     7
176
     1
 62
   257
176
     1
 90
        1
176
     1
 90
        1
176
     1
 40
1.0
176
     1
 90
        8
176
     1
 62
   257
176
     1
 40
1.0
176
     1
 90
        1
176
     1
 90
        6
176
     1
 90
        2
176
     1
 62
   251
420
  5131854
176
     1
 90
        3
176
     1
 90
        0
176
     1
 90
        0
176
     1
290
     0
176
     1
 90
        5
176
     1
 40
0.0
176
     1
 90
        0
176
     1
290
     0
176
     1
290
     1
176
     1
290
     1
176
     1
290
     0
176
     1
290
     0
176
     1
290
     0
176
     1
290
     0
176
     1
290
     0
176
     1
290
     0
176
     1
 90
       50
176
     1
 40
0.0
176
     1
 40
1.0
176
     1
 90
        0
176
     1
 62
    18
420
        0
176
     1
 90
       50
176
     1
 90
        3
176
     1
 62
     5
420
      255
176
     1
290
     0
176
     1
 90
       50
176
     1
 90
       50
176
     1
 90
       50
176
     1
290
     0
176
     1
 90
       50
176
     1
 62
   256
176
     0
 40
1.0
176
     0
 90
        2
176
     1
  1
strokes_ogs.tif
176
     1
290
     0
176
     1
 40
1.0
176
     1
 40
1.0
176
     1
  0
VISUALSTYLE
  5
49AE
102
{ACAD_REACTORS
330
4997
102
}
330
4997
100
AcDbVisualStyle
  2
Shaded with edges
 70
    26
177
     3
291
     0
 70
    58
 90
        2
176
     1
 90
        2
176
     1
 90
        1
176
     1
 90
        2
176
     1
 40
0.6
176
     1
 40
30.0
176
     1
 62
     7
420
 16777215
176
     1
 90
        1
176
     1
 90
       10
176
     1
 62
     7
176
     1
 62
   257
176
     1
 90
        2
176
     1
 90
        1
176
     1
 40
1.0
176
     1
 90
        8
176
     1
 62
   257
176
     1
 40
1.0
176
     1
 90
        1
176
     1
 90
        6
176
     1
 90
        2
176
     1
 62
     7
176
     1
 90
        3
176
     1
 90
        0
176
     1
 90
        0
176
     1
290
     0
176
     1
 90
        5
176
     1
 40
0.0
176
     1
 90
        0
176
     1
290
     0
176
     1
290
     1
176
     1
290
     1
176
     1
290
     0
176
     1
290
     0
176
     1
290
     0
176
     1
290
     0
176
     1
290
     0
176
     1
290
     0
176
     1
 90
       50
176
     1
 40
0.0
176
     1
 40
1.0
176
     1
 90
        0
176
     1
 62
    18
420
        0
176
     1
 90
       50
176
     1
 90
        3
176
     1
 62
     5
420
      255
176
     1
290
     0
176
     1
 90
       50
176
     1
 90
       50
176
     1
 90
       50
176
     1
290
     0
176
     1
 90
       50
176
     1
 62
   256
176
     0
 40
1.0
176
     0
 90
        2
176
     1
  1
strokes_ogs.tif
176
     1
290
     0
176
     1
 40
1.0
176
     1
 40
1.0
176
     1
  0
VISUALSTYLE
  5
49AB
102
{ACAD_REACTORS
330
4997
102
}
330
4997
100
AcDbVisualStyle
  2
Shades of Gray
 70
    23
177
     3
291
     0
 70
    58
 90
        2
176
     1
 90
        2
176
     1
 90
        3
176
     1
 90
        0
176
     1
 40
0.6
176
     1
 40
30.0
176
     1
 62
     7
420
 16777215
176
     1
 90
        2
176
     1
 90
        2
176
     1
 62
     7
176
     1
 62
     7
176
     1
 90
        1
176
     1
 90
        1
176
     1
 40
40.0
176
     1
 90
        8
176
     1
 62
     7
176
     1
 40
1.0
176
     1
 90
        1
176
     1
 90
        6
176
     1
 90
        2
176
     1
 62
     7
176
     1
 90
        3
176
     1
 90
        0
176
     1
 90
        0
176
     1
290
     0
176
     1
 90
        1
176
     1
 40
0.0
176
     1
 90
        0
176
     1
290
     0
176
     1
290
     1
176
     1
290
     1
176
     1
290
     0
176
     1
290
     0
176
     1
290
     0
176
     1
290
     0
176
     1
290
     0
176
     1
290
     0
176
     1
 90
       50
176
     1
 40
0.0
176
     1
 40
1.0
176
     1
 90
        0
176
     1
 62
    18
420
        0
176
     1
 90
       50
176
     1
 90
        3
176
     1
 62
     5
420
      255
176
     1
290
     0
176
     1
 90
       50
176
     1
 90
       50
176
     1
 90
       50
176
     1
290
     0
176
     1
 90
       50
176
     1
 62
   256
176
     0
 40
1.0
176
     0
 90
        2
176
     1
  1
strokes_ogs.tif
176
     1
290
     0
176
     1
 40
1.0
176
     1
 40
1.0
176
     1
  0
VISUALSTYLE
  5
49AC
102
{ACAD_REACTORS
330
4997
102
}
330
4997
100
AcDbVisualStyle
  2
Sketchy
 70
    24
177
     3
291
     0
 70
    58
 90
        1
176
     1
 90
        2
176
     1
 90
        2
176
     1
 90
        0
176
     1
 40
0.6
176
     1
 40
30.0
176
     1
 62
     7
420
 16777215
176
     1
 90
        2
176
     1
 90
        2
176
     1
 62
     7
176
     1
 62
     7
176
     1
 90
        1
176
     1
 90
        1
176
     1
 40
40.0
176
     1
 90
       11
176
     1
 62
     7
176
     1
 40
1.0
176
     1
 90
        1
176
     1
 90
        6
176
     1
 90
        2
176
     1
 62
     7
176
     1
 90
        6
176
     1
 90
        0
176
     1
 90
        0
176
     1
290
     0
176
     1
 90
        1
176
     1
 40
0.0
176
     1
 90
        0
176
     1
290
     0
176
     1
290
     1
176
     1
290
     1
176
     1
290
     0
176
     1
290
     0
176
     1
290
     0
176
     1
290
     0
176
     1
290
     0
176
     1
290
     0
176
     1
 90
       50
176
     1
 40
0.0
176
     1
 40
1.0
176
     1
 90
        0
176
     1
 62
    18
420
        0
176
     1
 90
       50
176
     1
 90
        3
176
     1
 62
     5
420
      255
176
     1
290
     0
176
     1
 90
       50
176
     1
 90
       50
176
     1
 90
       50
176
     1
290
     0
176
     1
 90
       50
176
     1
 62
   256
176
     0
 40
1.0
176
     0
 90
        2
176
     1
  1
strokes_ogs.tif
176
     1
290
     0
176
     1
 40
1.0
176
     1
 40
1.0
176
     1
  0
VISUALSTYLE
  5
49A4
102
{ACAD_REACTORS
330
4997
102
}
330
4997
100
AcDbVisualStyle
  2
Thicken
 70
    13
177
     3
291
     1
 70
    58
 90
        2
176
     1
 90
        2
176
     1
 90
        0
176
     1
 90
        0
176
     1
 40
0.6
176
     1
 40
30.0
176
     1
 62
     7
420
 16777215
176
     1
 90
        1
176
     1
 90
        4
176
     1
 62
     7
176
     1
 62
   257
176
     1
 90
        1
176
     1
 90
        1
176
     1
 40
1.0
176
     1
 90
       12
176
     1
 62
     7
176
     1
 40
1.0
176
     1
 90
        1
176
     1
 90
        6
176
     1
 90
        2
176
     1
 62
     7
176
     1
 90
        5
176
     1
 90
        0
176
     1
 90
        0
176
     1
290
     0
176
     1
 90
        1
176
     1
 40
0.0
176
     1
 90
        0
176
     1
290
     0
176
     1
290
     1
176
     1
290
     1
176
     1
290
     0
176
     1
290
     0
176
     1
290
     0
176
     1
290
     0
176
     1
290
     0
176
     1
290
     0
176
     1
 90
       50
176
     1
 40
0.0
176
     1
 40
1.0
176
     1
 90
        0
176
     1
 62
    18
420
        0
176
     1
 90
       50
176
     1
 90
        3
176
     1
 62
     5
420
      255
176
     1
290
     0
176
     1
 90
       50
176
     1
 90
       50
176
     1
 90
       50
176
     1
290
     0
176
     1
 90
       50
176
     1
 62
   256
176
     0
 40
1.0
176
     0
 90
        2
176
     1
  1
strokes_ogs.tif
176
     1
290
     0
176
     1
 40
1.0
176
     1
 40
1.0
176
     1
  0
VISUALSTYLE
  5
499D
102
{ACAD_REACTORS
330
4997
102
}
330
4997
100
AcDbVisualStyle
  2
Wireframe
 70
     5
177
     3
291
     0
 70
    58
 90
        0
176
     1
 90
        2
176
     1
 90
        0
176
     1
 90
        0
176
     1
 40
0.6
176
     1
 40
30.0
176
     1
 62
     7
420
 16777215
176
     1
 90
        1
176
     1
 90
        4
176
     1
 62
     7
176
     1
 62
   257
176
     1
 90
        1
176
     1
 90
        1
176
     1
 40
1.0
176
     1
 90
        0
176
     1
 62
   257
176
     1
 40
1.0
176
     1
 90
        1
176
     1
 90
        6
176
     1
 90
        2
176
     1
 62
     7
176
     1
 90
        5
176
     1
 90
        0
176
     1
 90
        0
176
     1
290
     0
176
     1
 90
        1
176
     1
 40
0.0
176
     1
 90
        0
176
     1
290
     0
176
     1
290
     1
176
     1
290
     1
176
     1
290
     0
176
     1
290
     0
176
     1
290
     0
176
     1
290
     0
176
     1
290
     0
176
     1
290
     0
176
     1
 90
       50
176
     1
 40
0.0
176
     1
 40
1.0
176
     1
 90
        0
176
     1
 62
    18
420
        0
176
     1
 90
       50
176
     1
 90
        3
176
     1
 62
     5
420
      255
176
     1
290
     0
176
     1
 90
       50
176
     1
 90
       50
176
     1
 90
       50
176
     1
290
     0
176
     1
 90
       50
176
     1
 62
   256
176
     0
 40
1.0
176
     0
 90
        2
176
     1
  1
strokes_ogs.tif
176
     1
290
     0
176
     1
 40
1.0
176
     1
 40
1.0
176
     1
  0
VISUALSTYLE
  5
49AD
102
{ACAD_REACTORS
330
4997
102
}
330
4997
100
AcDbVisualStyle
  2
X-Ray
 70
    25
177
     3
291
     0
 70
    58
 90
        2
176
     1
 90
        2
176
     1
 90
        1
176
     1
 90
        1
176
     1
 40
0.5
176
     1
 40
30.0
176
     1
 62
     7
420
 16777215
176
     1
 90
        1
176
     1
 90
        0
176
     1
 62
     7
176
     1
 62
   257
176
     1
 90
        1
176
     1
 90
        1
176
     1
 40
1.0
176
     1
 90
        8
176
     1
 62
     7
176
     1
 40
1.0
176
     1
 90
        1
176
     1
 90
        6
176
     1
 90
        2
176
     1
 62
     7
176
     1
 90
        3
176
     1
 90
        0
176
     1
 90
        0
176
     1
290
     0
176
     1
 90
       13
176
     1
 40
0.0
176
     1
 90
        0
176
     1
290
     0
176
     1
290
     1
176
     1
290
     1
176
     1
290
     0
176
     1
290
     0
176
     1
290
     0
176
     1
290
     0
176
     1
290
     0
176
     1
290
     0
176
     1
 90
       50
176
     1
 40
0.0
176
     1
 40
1.0
176
     1
 90
        0
176
     1
 62
    18
420
        0
176
     1
 90
       50
176
     1
 90
        3
176
     1
 62
     5
420
      255
176
     1
290
     0
176
     1
 90
       50
176
     1
 90
       50
176
     1
 90
       50
176
     1
290
     0
176
     1
 90
       50
176
     1
 62
   256
176
     0
 40
1.0
176
     0
 90
        2
176
     1
  1
strokes_ogs.tif
176
     1
290
     0
176
     1
 40
1.0
176
     1
 40
1.0
176
     1
  0
DICTIONARYVAR
  5
DD
102
{ACAD_REACTORS
330
59
102
}
330
59
100
DictionaryVariables
280
     0
  1
1:1
  0
DICTIONARYVAR
  5
E9
102
{ACAD_REACTORS
330
59
102
}
330
59
100
DictionaryVariables
280
     0
  1
Standard
  0
DICTIONARYVAR
  5
98
102
{ACAD_REACTORS
330
59
102
}
330
59
100
DictionaryVariables
280
     0
  1
Standard
  0
DICTIONARYVAR
  5
43
102
{ACAD_REACTORS
330
59
102
}
330
59
100
DictionaryVariables
280
     0
  1
2
  0
DICTIONARYVAR
  5
5E
102
{ACAD_REACTORS
330
59
102
}
330
59
100
DictionaryVariables
280
     0
  1
1
  0
DICTIONARYVAR
  5
B6
102
{ACAD_REACTORS
330
59
102
}
330
59
100
DictionaryVariables
280
     0
  1

  0
DICTIONARYVAR
  5
E2
102
{ACAD_REACTORS
330
59
102
}
330
59
100
DictionaryVariables
280
     0
  1
0
  0
DICTIONARY
  5
B2
330
22
100
AcDbDictionary
280
     1
281
     1
  0
DICTIONARY
  5
B0
330
1E
100
AcDbDictionary
280
     1
281
     1
  0
DICTIONARY
  5
B4
330
26
100
AcDbDictionary
280
     1
281
     1
  0
DICTIONARY
  5
376
330
375
100
AcDbDictionary
280
     1
281
     1
  3
ACAD_XREC_ROUNDTRIP
360
377
  0
DICTIONARY
  5
FA
330
F9
100
AcDbDictionary
280
     1
281
     1
  3
ACAD_XREC_ROUNDTRIP
360
FB
  0
DICTIONARY
  5
49B1
330
93
100
AcDbDictionary
280
     1
281
     1
  3
ACAD_ROUNDTRIP_2008_TABLESTYLE_CELLSTYLEMAP
360
49B2
  0
XRECORD
  5
377
102
{ACAD_REACTORS
330
376
102
}
330
376
100
AcDbXrecord
280
     1
102
MATERIAL
148
0.0
149
0.0
149
0.0
 93
        0
 94
       63
282
     0
 72
     1
 77
     1
171
     1
175
     1
179
     1
273
     0
  0
XRECORD
  5
FB
102
{ACAD_REACTORS
330
FA
102
}
330
FA
100
AcDbXrecord
280
     1
102
MATERIAL
148
0.0
149
0.0
149
0.0
 93
        0
 94
       63
282
     0
 72
     1
 77
     1
171
     1
175
     1
179
     1
273
     0
  0
CELLSTYLEMAP
  5
49B2
102
{ACAD_REACTORS
330
49B1
102
}
330
49B1
100
AcDbCellStyleMap
 90
        3
300
CELLSTYLE
  1
TABLEFORMAT_BEGIN
 90
        5
170
     1
 91
        0
 92
    32768
 62
   257
 93
        1
300
CONTENTFORMAT
  1
CONTENTFORMAT_BEGIN
 90
        0
 91
        0
 92
      512
 93
        0
300

 40
0.0
140
1.0
 94
        5
 62
     0
340
11
144
6.0
309
CONTENTFORMAT_END
171
     1
301
MARGIN
  1
CELLMARGIN_BEGIN
 40
1.5
 40
1.5
 40
1.5
 40
1.5
 40
4.5
 40
4.5
309
CELLMARGIN_END
 94
        6
 95
        1
302
GRIDFORMAT
  1
GRIDFORMAT_BEGIN
 90
        0
 91
        1
 62
     0
 92
       -2
340
14
 93
        0
 40
1.125
309
GRIDFORMAT_END
 95
        2
302
GRIDFORMAT
  1
GRIDFORMAT_BEGIN
 90
        0
 91
        1
 62
     0
 92
       -2
340
14
 93
        0
 40
1.125
309
GRIDFORMAT_END
 95
        4
302
GRIDFORMAT
  1
GRIDFORMAT_BEGIN
 90
        0
 91
        1
 62
     0
 92
       -2
340
14
 93
        0
 40
1.125
309
GRIDFORMAT_END
 95
        8
302
GRIDFORMAT
  1
GRIDFORMAT_BEGIN
 90
        0
 91
        1
 62
     0
 92
       -2
340
14
 93
        0
 40
1.125
309
GRIDFORMAT_END
 95
       16
302
GRIDFORMAT
  1
GRIDFORMAT_BEGIN
 90
        0
 91
        1
 62
     0
 92
       -2
340
14
 93
        0
 40
1.125
309
GRIDFORMAT_END
 95
       32
302
GRIDFORMAT
  1
GRIDFORMAT_BEGIN
 90
        0
 91
        1
 62
     0
 92
       -2
340
14
 93
        0
 40
1.125
309
GRIDFORMAT_END
309
TABLEFORMAT_END
  1
CELLSTYLE_BEGIN
 90
        1
 91
        1
300
_TITLE
309
CELLSTYLE_END
300
CELLSTYLE
  1
TABLEFORMAT_BEGIN
 90
        5
170
     1
 91
        0
 92
        0
 62
   257
 93
        1
300
CONTENTFORMAT
  1
CONTENTFORMAT_BEGIN
 90
        0
 91
        0
 92
      512
 93
        0
300

 40
0.0
140
1.0
 94
        5
 62
     0
340
11
144
4.5
309
CONTENTFORMAT_END
171
     1
301
MARGIN
  1
CELLMARGIN_BEGIN
 40
1.5
 40
1.5
 40
1.5
 40
1.5
 40
4.5
 40
4.5
309
CELLMARGIN_END
 94
        6
 95
        1
302
GRIDFORMAT
  1
GRIDFORMAT_BEGIN
 90
        0
 91
        1
 62
     0
 92
       -2
340
14
 93
        0
 40
1.125
309
GRIDFORMAT_END
 95
        2
302
GRIDFORMAT
  1
GRIDFORMAT_BEGIN
 90
        0
 91
        1
 62
     0
 92
       -2
340
14
 93
        0
 40
1.125
309
GRIDFORMAT_END
 95
        4
302
GRIDFORMAT
  1
GRIDFORMAT_BEGIN
 90
        0
 91
        1
 62
     0
 92
       -2
340
14
 93
        0
 40
1.125
309
GRIDFORMAT_END
 95
        8
302
GRIDFORMAT
  1
GRIDFORMAT_BEGIN
 90
        0
 91
        1
 62
     0
 92
       -2
340
14
 93
        0
 40
1.125
309
GRIDFORMAT_END
 95
       16
302
GRIDFORMAT
  1
GRIDFORMAT_BEGIN
 90
        0
 91
        1
 62
     0
 92
       -2
340
14
 93
        0
 40
1.125
309
GRIDFORMAT_END
 95
       32
302
GRIDFORMAT
  1
GRIDFORMAT_BEGIN
 90
        0
 91
        1
 62
     0
 92
       -2
340
14
 93
        0
 40
1.125
309
GRIDFORMAT_END
309
TABLEFORMAT_END
  1
CELLSTYLE_BEGIN
 90
        2
 91
        1
300
_HEADER
309
CELLSTYLE_END
300
CELLSTYLE
  1
TABLEFORMAT_BEGIN
 90
        5
170
     1
 91
        0
 92
        0
 62
   257
 93
        1
300
CONTENTFORMAT
  1
CONTENTFORMAT_BEGIN
 90
        0
 91
        0
 92
      512
 93
        0
300

 40
0.0
140
1.0
 94
        2
 62
     0
340
11
144
4.5
309
CONTENTFORMAT_END
171
     1
301
MARGIN
  1
CELLMARGIN_BEGIN
 40
1.5
 40
1.5
 40
1.5
 40
1.5
 40
4.5
 40
4.5
309
CELLMARGIN_END
 94
        6
 95
        1
302
GRIDFORMAT
  1
GRIDFORMAT_BEGIN
 90
        0
 91
        1
 62
     0
 92
       -2
340
14
 93
        0
 40
1.125
309
GRIDFORMAT_END
 95
        2
302
GRIDFORMAT
  1
GRIDFORMAT_BEGIN
 90
        0
 91
        1
 62
     0
 92
       -2
340
14
 93
        0
 40
1.125
309
GRIDFORMAT_END
 95
        4
302
GRIDFORMAT
  1
GRIDFORMAT_BEGIN
 90
        0
 91
        1
 62
     0
 92
       -2
340
14
 93
        0
 40
1.125
309
GRIDFORMAT_END
 95
        8
302
GRIDFORMAT
  1
GRIDFORMAT_BEGIN
 90
        0
 91
        1
 62
     0
 92
       -2
340
14
 93
        0
 40
1.125
309
GRIDFORMAT_END
 95
       16
302
GRIDFORMAT
  1
GRIDFORMAT_BEGIN
 90
        0
 91
        1
 62
     0
 92
       -2
340
14
 93
        0
 40
1.125
309
GRIDFORMAT_END
 95
       32
302
GRIDFORMAT
  1
GRIDFORMAT_BEGIN
 90
        0
 91
        1
 62
     0
 92
       -2
340
14
 93
        0
 40
1.125
309
GRIDFORMAT_END
309
TABLEFORMAT_END
  1
CELLSTYLE_BEGIN
 90
        3
 91
        2
300
_DATA
309
CELLSTYLE_END
  0
ENDSEC
  0
EOF
